<svg role="img" viewBox="0 0 24 24" xmlns="http://www.w3.org/2000/svg"><title>Webhooks</title><path d="M11.42 5.362h-0.023l-0.232 0.046q-0.766 0.093 -1.497 0.429t-1.288 0.894q-0.952 0.859 -1.323 2.112q-0.209 0.696 -0.186 1.462t0.279 1.462q0.395 1.044 1.207 1.81l0.302 0.279l-1.926 3.133q-0.603 -0.023 -1.044 0.162q-0.696 0.302 -1.044 0.928q-0.162 0.348 -0.209 0.72t0.046 0.743q0.186 0.696 0.766 1.114q0.348 0.232 0.766 0.337t0.836 0.046t0.801 -0.29t0.638 -0.58q0.279 -0.395 0.337 -0.905t-0.128 -0.952q-0.023 -0.116 -0.162 -0.325l-0.07 -0.139l2.739 -4.456q0.139 -0.209 0.186 -0.325l-0.232 -0.07q-0.209 -0.046 -0.302 -0.093q-0.534 -0.232 -0.963 -0.638t-0.662 -0.917q-0.395 -0.836 -0.209 -1.741q0.093 -0.534 0.395 -0.998t0.72 -0.789q0.859 -0.627 1.903 -0.627q0.627 -0.023 1.219 0.221t1.033 0.708q0.395 0.371 0.615 0.894t0.244 1.056q0 0.395 -0.139 0.975l1.625 0.441l0.186 0.023q0.325 -0.998 0.162 -1.996q-0.093 -0.766 -0.453 -1.474t-0.917 -1.242q-0.975 -0.975 -2.391 -1.3q-0.139 -0.046 -0.418 -0.093l-0.325 -0.046h-0.859zM11.838 8.24q-0.395 0 -0.789 0.162t-0.708 0.476t-0.453 0.731q-0.186 0.464 -0.093 1.021q0.07 0.418 0.325 0.789t0.65 0.58q0.557 0.348 1.3 0.302q0.07 0.093 0.116 0.186l2.6 4.433q0.07 0.139 0.139 0.209q0.627 -0.603 1.358 -0.824t1.509 -0.081t1.358 0.603q0.743 0.58 1.01 1.427t0.012 1.706q-0.186 0.65 -0.662 1.161t-1.126 0.766q-0.72 0.302 -1.544 0.197t-1.474 -0.569q-0.093 -0.07 -0.302 -0.232l-0.116 -0.139q-0.093 0.07 -0.255 0.232l-1.091 1.068q0.534 0.534 1.207 0.894t1.416 0.499l0.511 0.093h0.905l0.65 -0.116q1.485 -0.302 2.553 -1.393q0.511 -0.511 0.847 -1.172t0.453 -1.381q0.116 -0.836 -0.046 -1.66t-0.58 -1.497t-1.021 -1.184t-1.323 -0.812q-0.789 -0.325 -1.636 -0.371t-1.66 0.162l-0.395 0.116l-1.88 -3.18q0.302 -0.441 0.371 -0.859q0.116 -0.743 -0.302 -1.393q-0.371 -0.58 -1.021 -0.812q-0.395 -0.139 -0.812 -0.139zM5.292 14.368q-1.346 0.302 -2.321 1.23q-1.091 1.021 -1.416 2.437l-0.093 0.557v0.859l0.046 0.255q0.046 0.302 0.093 0.464q0.162 0.72 0.569 1.369t0.986 1.137q1.161 0.952 2.669 1.137q0.882 0.093 1.764 -0.104t1.625 -0.662q1.23 -0.789 1.81 -2.112q0.162 -0.395 0.325 -1.044q0.139 -0.023 0.418 0 l2.901 0.046q0.325 0 0.464 0.023q0.255 0.464 0.58 0.72t0.731 0.371t0.824 0.093q0.65 -0.07 1.161 -0.464q0.627 -0.487 0.743 -1.253q0.046 -0.395 -0.035 -0.766t-0.313 -0.696q-0.371 -0.511 -0.952 -0.743q-0.395 -0.162 -0.824 -0.151t-0.824 0.174q-0.65 0.279 -0.998 0.859l-0.07 0.139q-0.325 0 -0.975 -0.023l-2.623 -0.023q-0.348 -0.023 -0.998 -0.023l-1.161 -0.023l0.07 0.395q0.186 0.998 -0.302 1.88q-0.325 0.627 -0.928 1.044t-1.323 0.511q-0.812 0.139 -1.625 -0.174t-1.323 -0.986q-0.65 -0.812 -0.627 -1.834q0.023 -0.859 0.534 -1.602q0.302 -0.441 0.743 -0.743t0.952 -0.441l0.209 -0.07z"/></svg>
