<svg role="img" viewBox="0 0 24 24" xmlns="http://www.w3.org/2000/svg"><title>Zellij</title><path d="M10.916.5 7.834 2.056 4.178 3.905l-2.869 1.45-1.311.663.007 3.89c.006 4.02.025 7.807.04 8.022l.008.122 5.982 2.974A1173 1173 0 0 0 12.04 24c.013 0 .515-.248 1.119-.552 2.06-1.038 6.959-3.514 9.775-4.942l1.06-.538.004-1.51c.002-.831-.003-2.568-.01-3.86-.029-5.287-.037-6.49-.044-6.573l-.008-.087-2.625-1.306C13.79.896 11.978 0 11.939.002c-.027 0-.342.153-1.023.497m2.936 1.896 2.778 1.386c1.402.698 1.697.85 1.703.873.003.015.033.109.064.21.03.101.054.19.05.195-.004.007-.26.122-.57.258-1.184.517-1.221.532-1.336.532-.027 0-.122-.02-.21-.043-.091-.024-.243-.064-.34-.088a10 10 0 0 1-.56-.151c-.036-.013-.465-.231-.954-.486l-1.329-.689a10 10 0 0 1-.45-.24 15 15 0 0 1-.342-.444l-.092-.129.002-.574c.004-.6.015-1.077.03-1.09.005-.007.25-.07.354-.09.013-.004.045.003.07.014s.535.26 1.132.556m-2.479-.498a.5.5 0 0 0 .083.036c.017 0 .024.035.04.181.006.058.02.16.03.229.032.22.108.786.119.888.005.046.002.067-.012.082-.01.01-.118.191-.242.4-.123.21-.231.388-.238.395-.008.008-.225.12-.483.25l-1.154.587-.686.35-.217.043-.218.045-.127-.07-.128-.07-.038-.117-.085-.275-.065-.2a3 3 0 0 1-.077-.239A7 7 0 0 0 7.8 4.17a2 2 0 0 1-.066-.23c0-.013.084-.124.186-.247l.184-.224.914-.463 1.576-.802c.364-.186.672-.338.685-.34.013 0 .055.016.094.034M6.717 4.335c.146.011.27.026.277.03.011.006.065.167.214.639.039.125.106.332.147.458.04.127.075.249.075.272 0 .033-.01.05-.05.086-.028.023-.161.148-.297.276l-.247.233-.568.276a179 179 0 0 0-2.117 1.04 10 10 0 0 0-.326.463l-.057.087v2.21c0 1.486.005 2.558.017 3.27.01.584.018 1.179.017 1.32l-.002.26-.12.21-.218.374-.098.164-.513.215a10 10 0 0 0-.59.262l-.216.135-.14.087-.051-.057-.16-.181-.108-.125-.007-1.023c-.005-.562-.009-1.93-.009-3.04a354 354 0 0 0-.011-2.842L1.54 7.916l-.007-.691.274-.368.274-.37 2.173-1.086A337 337 0 0 1 6.44 4.314zm8.336 2.055 3.181 1.599.44.22.184.27.184.269.001 3.218v3.217l-.186.283-.188.283-3.19 1.597-3.192 1.596h-.762l-1.084-.542-3.193-1.602-2.11-1.06-.183-.279-.185-.277V11.97l.002-3.211.183-.276.184-.275 3.193-1.603 3.193-1.602.393.003.393.005zm4.688-.913.423.121.626.323 1.03.529c.222.114.413.214.425.226.011.01.02.027.02.038s.03.107.065.218c.116.356.108.304.066.4a1 1 0 0 0-.037.092c0 .005-.015.04-.032.08a6 6 0 0 0-.101.236c-.037.09-.076.175-.087.189-.01.013-.315.17-.676.348l-.656.323-.257.06c-.14.033-.257.059-.259.056a2 2 0 0 1-.041-.126c-.05-.17-.143-.463-.217-.686l-.06-.187-.398-.205a150 150 0 0 1-2.139-1.122.7.7 0 0 1 .101-.161l.11-.153.094-.043c.052-.025.198-.09.326-.144.128-.057.259-.114.29-.13.231-.11.909-.404.932-.404.016 0 .22.056.452.122m2.566 3.346.14.114-.003.574c-.001.315-.008.671-.013.792l-.01.22-.083.143c-.045.08-.103.18-.127.227-.043.075-.05.082-.098.094a94 94 0 0 1-1.312.315c-.378.092-.328.092-.446-.004l-.138-.114-.038-.034-.023-.234-.035-.352a3 3 0 0 1-.015-.27l-.002-.151.109-.24c.103-.23.11-.243.168-.288.033-.026.155-.125.271-.221.243-.2.172-.165.858-.437l.539-.215a1 1 0 0 1 .1-.034c.009 0 .08.052.158.115m-.249 2.936c.066.04.168.102.226.134l.108.061.008.495c.012.717.013 3.55.003 3.643-.01.078-.01.08-.052.09-.023.007-.08.02-.129.027l-.086.014-.912-.912-.913-.915-.055-.79c-.03-.435-.059-.842-.061-.904l-.007-.113.085-.133c.048-.074.143-.22.213-.324l.126-.188.062-.014c.074-.017.56-.115.777-.159.085-.016.205-.043.27-.058.185-.043.199-.042.337.046m-1.68 3.764c.088.022.174.05.193.063.06.037 1.495 1.432 1.495 1.452 0 .01-.07.123-.154.25l-.156.233-4.125 2.091c-2.269 1.15-4.13 2.09-4.137 2.086a.3.3 0 0 1-.039-.106c-.025-.097-.025-.103-.007-.133.012-.017.588-.747 1.28-1.623l1.26-1.59.415-.284.416-.282 1.133-.539 1.132-.54.264-.17.516-.335.254-.167.007-.08c.015-.156.042-.357.049-.369q.009-.01.028-.005c.01.004.09.025.177.048m-15.11 1.352.889.434.093.043.103.32.103.32.013.27c.014.313.016 1.086.002 1.086-.005 0-.08.016-.166.036a1 1 0 0 1-.194.03c-.029-.005-3.836-1.89-3.856-1.91-.01-.01.01-.042.127-.22l.107-.16.598-.265.861-.381.264-.116.129.062zm2.52 1.234c.894.458 1.737.887 2.577 1.311l.914.462.123.015.264.03c.077.011.274.034.438.053l.298.034.786-.398.787-.398.199-.053c.184-.048.252-.06.252-.046 0 .002-.292.381-.647.842l-1.123 1.453c-.261.338-.483.62-.492.624s-.131.035-.27.07l-.251.063-2.092-1.05-2.096-1.051-.073-.214c-.087-.256-.084-.227-.14-1.165l-.023-.335c-.021-.233-.021-.227.056-.3.095-.092.136-.125.149-.126.007 0 .17.08.363.179m.378-9.156a.24.24 0 0 0-.09.038c-.146.114-.812.7-.822.724a.4.4 0 0 0-.02.105c-.005.065-.001.084.022.126.026.047.601.556 1.658 1.468.3.259.393.346.413.384a.28.28 0 0 1 .008.206c-.017.04-.193.219-.276.28-.03.02-.298.252-.598.513l-.875.76c-.307.265-.33.289-.343.336a.28.28 0 0 0 .01.192c.024.047.164.174.696.637.153.134.288.243.299.243.057-.001.177-.082.207-.142.01-.018.722-.643 1.583-1.389a77 77 0 0 0 1.595-1.4.26.26 0 0 0 .027-.204c-.014-.05-.054-.087-.819-.753-1.951-1.7-2.395-2.08-2.462-2.109a.35.35 0 0 0-.213-.015m4.607 5.029c-.177.004-.423.008-.547.009l-.225.001-.06.056c-.058.053-.063.063-.071.127a5 5 0 0 0 .002.67.33.33 0 0 0 .122.13c.033.018.206.02 2.21.023 2.386.003 2.222.008 2.309-.065.069-.058.071-.072.078-.431.006-.316.005-.33-.018-.376a.3.3 0 0 0-.061-.08c-.08-.066-.018-.063-1.787-.068-.896-.002-1.775 0-1.952.004"/></svg>
