<?xml version="1.0" encoding="utf-8"?>
<!DOCTYPE svg PUBLIC "-//W3C//DTD SVG 1.0//EN" "http://www.w3.org/TR/2001/REC-SVG-20010904/DTD/svg10.dtd">
<svg version="1.0" xmlns="http://www.w3.org/2000/svg" width="1200px" height="600px" viewBox="0 13.5 1200 600" preserveAspectRatio="xMidYMid meet">
 <g fill="#114145">
  <path d="M244.60 534.29 c-3.49 -1.88 -9.29 -5.63 -12.78 -8.27 l-6.39 -4.86 -18.41 -18.32 c-20.45 -20.37 -30.77 -31.79 -37.84 -41.76 l-4.77 -6.73 -1.53 -0.51 -1.53 -0.43 -1.19 0.43 c-0.68 0.26 -3.32 3.24 -5.88 6.56 -2.56 3.32 -6.31 7.84 -8.27 9.97 l-3.58 3.92 -10.74 0.26 -10.82 0.34 -6.05 -1.36 -6.14 -1.36 -5.71 -2.90 -5.63 -2.81 -5.03 -3.92 -4.94 -3.92 -3.15 -4.18 -3.15 -4.09 -2.47 -5.63 -2.56 -5.54 -4.43 -5.45 -4.35 -5.45 -2.81 -5.97 c-1.53 -3.24 -3.41 -8.10 -4.01 -10.65 l-1.19 -4.69 0 -11.08 0 -11.08 1.62 -4.52 1.53 -4.52 4.18 -6.31 4.26 -6.31 3.15 -2.47 c1.70 -1.36 4.77 -3.32 6.82 -4.35 l3.66 -1.88 7.84 -1.02 7.84 -1.11 0.26 -2.64 0.26 -2.73 -2.13 -8.78 c-2.81 -11.16 -4.52 -20.97 -5.71 -31.79 l-0.94 -8.52 0.43 -17.05 0.43 -17.05 1.79 -7.67 c2.73 -11.51 5.80 -20.37 10.31 -29.83 l4.09 -8.52 5.11 -7.84 5.20 -7.76 5.54 -6.14 5.63 -6.14 0 -2.13 0 -2.05 -2.22 -6.56 -2.13 -6.56 0 -4.35 0 -4.43 1.88 -3.66 c6.14 -12.19 30.51 -35.37 51.22 -48.84 l7.41 -4.86 10.48 -5.03 c12.02 -5.80 20.20 -8.61 30.51 -10.74 l7.16 -1.45 15.43 0.51 15.34 0.43 4.69 1.45 c6.22 1.96 11.93 4.86 14.23 7.41 3.41 3.66 13.13 25.65 18.75 42.44 0.68 2.13 1.62 4.26 2.13 4.86 l0.77 0.94 8.27 0.60 8.27 0.60 5.28 1.19 c2.98 0.60 7.76 2.13 10.65 3.41 l5.37 2.22 5.63 3.75 5.71 3.75 4.94 5.37 5.03 5.45 2.98 4.94 2.90 4.94 1.53 5.63 1.45 5.63 0 9.38 0.09 9.46 -1.28 4.86 c-1.62 6.22 -3.49 9.97 -8.61 16.70 l-4.01 5.37 0.34 4.77 c0.17 2.73 0.34 8.69 0.26 13.38 l0 8.52 -1.70 3.41 c-0.94 1.88 -3.07 5.88 -4.77 8.95 l-3.07 5.54 -0.60 3.58 -0.60 3.58 1.11 1.96 c0.60 1.11 2.73 3.92 4.69 6.31 l3.66 4.26 2.56 5.54 2.64 5.45 0.85 4.60 0.85 4.60 0 7.67 0 7.67 -1.36 7.93 -1.36 8.01 1.28 1.96 c0.68 1.02 3.75 4.77 6.73 8.35 6.39 7.59 12.87 17.56 14.74 22.84 l1.28 3.75 0 6.05 0 6.05 -2.05 4.35 -2.05 4.35 -3.15 3.24 c-1.79 1.70 -5.88 4.86 -9.03 6.90 l-5.80 3.75 -1.88 3.41 -1.88 3.41 -3.07 1.96 c-1.70 1.11 -4.77 2.64 -6.82 3.49 l-3.84 1.45 -5.28 0 -5.37 0 -2.47 -1.28 -2.47 -1.28 -1.53 -3.15 -1.45 -3.15 0.34 -4.94 0.34 -5.03 1.70 -2.39 1.79 -2.30 4.43 -2.47 4.52 -2.39 5.45 -0.51 5.45 -0.43 5.03 1.11 5.11 1.02 2.22 -0.51 2.22 -0.60 3.41 -3.07 c1.88 -1.70 4.01 -4.18 4.69 -5.45 l1.19 -2.39 0 -3.15 0 -3.07 -2.56 -5.28 -2.47 -5.20 -4.94 -6.56 -4.86 -6.48 -2.30 -1.36 -2.30 -1.36 -1.62 0.60 c-2.05 0.77 -5.03 3.07 -9.63 7.50 l-3.92 3.66 -12.36 21.65 c-6.90 11.85 -14.91 25.91 -17.90 31.28 l-5.45 9.72 -3.84 4.01 -3.84 4.09 -5.54 2.73 -5.45 2.73 -10.48 1.02 c-5.71 0.60 -10.65 1.28 -10.91 1.53 -0.77 0.68 -5.11 19.18 -6.82 28.38 -2.30 13.04 -4.01 24.46 -5.71 39.20 l-1.11 9.38 -1.28 0.17 -1.28 0.26 -6.39 -3.49z"/>
  <path d="M438.92 424.09 c-5.63 -1.62 -11.85 -4.94 -17.22 -9.38 l-4.77 -3.92 -5.20 -6.82 c-10.91 -14.49 -15.77 -26.25 -19.86 -48.15 l-1.11 -5.97 0 -19.18 0 -19.18 1.19 -7.67 c2.81 -19.26 9.38 -36.65 18.92 -50.97 l3.58 -5.28 5.45 -5.28 5.45 -5.28 5.71 -2.81 5.71 -2.81 6.65 -0.34 6.73 -0.26 5.28 5.37 5.28 5.45 2.13 3.84 2.05 3.84 5.54 2.98 5.54 2.98 6.05 5.97 6.05 5.97 3.15 5.71 3.15 5.71 1.70 0.51 1.79 0.60 0.51 -0.51 c0.26 -0.34 0.77 -2.98 1.11 -6.05 l0.68 -5.45 1.70 -3.32 c0.94 -1.79 2.90 -4.52 4.52 -6.05 l2.81 -2.90 6.14 -2.81 6.05 -2.90 5.45 -1.28 5.37 -1.28 8.18 0 8.27 0 5.63 1.70 5.54 1.79 4.09 2.98 c2.22 1.70 6.65 5.71 9.80 9.03 l5.63 5.97 1.11 -0.34 1.19 -0.43 1.79 -6.99 1.79 -6.99 2.90 -2.98 2.90 -3.07 3.07 -1.62 c4.26 -2.13 13.72 -4.69 24.97 -6.73 l9.29 -1.70 5.88 0 5.88 0 1.88 0.94 c1.02 0.60 3.49 2.47 5.45 4.26 l3.66 3.32 1.96 0 1.96 0 2.98 -3.07 c1.53 -1.62 4.69 -4.18 6.90 -5.54 l4.09 -2.64 6.14 -2.13 6.22 -2.13 10.48 -0.43 10.57 -0.51 4.77 1.11 4.86 1.02 4.94 2.56 4.94 2.47 4.86 4.94 4.86 4.94 2.73 4.60 2.73 4.60 1.36 5.11 1.28 5.03 0 8.18 0 8.18 -1.36 4.69 -1.36 4.60 -2.64 4.69 -2.64 4.69 -7.59 7.84 -7.59 7.84 2.47 4.43 2.39 4.52 4.69 4.94 4.77 4.94 1.79 0 1.79 0 0.77 -1.02 c0.43 -0.60 1.36 -3.84 1.96 -7.16 l1.02 -5.97 -0.43 -3.41 c-0.26 -1.79 -0.77 -5.11 -1.11 -7.33 l-0.60 -4.09 2.13 -2.73 c1.19 -1.53 3.66 -4.43 5.54 -6.48 l3.32 -3.58 1.11 -4.09 c1.62 -5.71 9.80 -31.19 13.81 -42.70 l3.32 -9.72 2.13 -3.66 2.13 -3.66 2.81 -2.13 c1.53 -1.19 4.26 -2.73 5.97 -3.49 l3.07 -1.28 3.92 0 3.92 0 2.98 1.28 3.07 1.28 6.14 5.97 6.22 5.97 1.70 0 1.70 0 2.39 -4.77 2.39 -4.77 3.07 -1.96 3.07 -2.05 3.41 -0.85 3.41 -0.85 19.01 -1.36 18.92 -1.28 12.87 0 12.78 0 2.39 1.19 c2.73 1.45 8.35 7.33 10.99 11.68 l1.88 3.15 1.88 0.43 1.79 0.51 6.48 -3.92 c3.49 -2.13 7.67 -4.43 9.20 -5.03 l2.73 -1.19 9.72 0 9.72 0 5.45 2.73 5.37 2.81 5.45 5.11 c6.48 5.97 11.76 12.70 15.09 19.18 2.90 5.54 4.60 7.67 5.97 7.67 l1.11 0 0.43 -1.19 0.51 -1.19 -1.28 -5.45 -1.28 -5.37 0.26 -6.05 0.26 -6.05 2.13 -3.07 2.13 -3.15 3.49 -2.47 3.41 -2.56 5.54 -1.88 5.45 -1.96 14.49 -0.34 14.49 -0.34 5.54 1.88 5.54 1.88 5.71 3.84 5.71 3.75 3.75 4.43 c2.05 2.47 5.11 6.73 6.82 9.55 l3.07 5.11 2.05 7.24 2.13 7.24 1.45 0.26 1.45 0.34 0.85 -0.85 0.85 -0.85 0.77 -16.53 0.77 -16.45 0.85 -5.11 0.85 -5.03 2.39 -3.84 2.30 -3.84 3.75 -2.64 3.66 -2.56 7.76 0 7.84 0.09 2.90 1.53 2.90 1.53 3.58 3.75 3.66 3.66 1.88 3.66 1.96 3.66 0.43 6.73 0.43 6.73 -1.11 6.05 c-0.51 3.32 -1.36 7.41 -1.70 9.03 -2.98 11.68 -10.40 44.74 -13.98 61.79 -2.22 10.23 -4.77 20.20 -5.80 22.16 -0.51 0.94 -2.56 3.49 -4.60 5.71 -4.01 4.26 -4.43 5.28 -2.64 6.39 1.96 1.28 6.56 7.76 8.44 11.85 l1.79 4.09 0 6.39 0 6.48 -1.45 3.32 c-0.77 1.88 -2.39 4.60 -3.49 6.14 l-2.05 2.73 -4.52 2.22 -4.43 2.22 -4.01 0 -3.92 0 -3.32 -2.22 c-5.11 -3.41 -8.61 -6.99 -12.44 -12.95 l-3.49 -5.37 -1.28 0.51 c-0.77 0.26 -4.86 0.68 -9.12 1.02 l-7.76 0.51 -4.01 -1.79 -3.92 -1.79 -4.01 -4.09 c-2.22 -2.22 -6.14 -7.07 -8.69 -10.74 l-4.60 -6.65 -2.22 0.26 -2.13 0.26 -1.11 4.52 c-0.68 2.47 -1.79 5.63 -2.47 6.99 l-1.36 2.56 -3.32 2.22 -3.32 2.22 -5.03 0.43 -5.11 0.51 -3.92 -1.96 -3.92 -1.88 -2.98 -3.49 -3.07 -3.49 -2.13 -4.43 -2.13 -4.35 -0.26 -6.05 c-0.09 -3.41 -0.43 -6.31 -0.68 -6.65 l-0.51 -0.51 -1.79 0.60 -1.70 0.51 -3.84 5.45 -3.92 5.37 -4.77 4.26 -4.77 4.26 -4.86 2.56 -4.77 2.56 -4.60 1.02 -4.52 1.11 -5.80 -0.43 -5.80 -0.43 -5.45 -2.56 -5.45 -2.56 -5.80 -5.45 -5.80 -5.37 -3.66 -5.20 c-4.94 -6.90 -7.67 -12.53 -10.40 -21.48 l-2.30 -7.50 0 -18.32 0 -18.32 2.73 -10.06 2.81 -10.06 -0.51 -0.85 -0.51 -0.77 -6.22 0 -6.14 0 -1.45 1.11 -1.45 1.02 -0.94 11.08 c-1.62 20.88 -2.56 37.50 -3.15 58.89 l-0.68 21.48 -2.39 3.58 -2.30 3.58 -3.58 1.62 -3.58 1.62 -4.77 0 -4.77 0 -3.75 -2.47 -3.75 -2.56 -4.94 -5.97 c-2.64 -3.32 -5.20 -6.05 -5.63 -6.05 -0.34 0 -2.64 1.53 -4.94 3.41 -2.39 1.88 -5.28 3.75 -6.56 4.26 l-2.30 0.85 -5.11 0 -5.11 0 -2.73 -1.19 -2.81 -1.11 -3.92 -4.43 -3.92 -4.35 -2.22 -4.43 -2.22 -4.43 0 -1.88 0 -1.88 -1.36 -0.51 c-0.77 -0.26 -3.75 -0.51 -6.65 -0.51 l-5.28 0 -1.79 1.28 -1.79 1.28 -0.60 3.15 -0.51 3.24 -2.98 6.14 -2.98 6.22 -2.39 1.19 -2.30 1.28 -7.50 0.60 -7.41 0.60 -2.47 3.58 c-2.98 4.26 -6.65 7.50 -11.16 9.80 l-3.24 1.70 -4.77 0 -4.77 0 -2.90 -1.19 c-1.62 -0.68 -4.43 -2.39 -6.14 -3.66 l-3.15 -2.39 -6.39 -7.67 -6.39 -7.67 -2.13 0 -2.22 0 -0.51 6.14 -0.60 6.05 -1.79 3.32 -1.88 3.24 -2.98 2.13 -3.07 2.05 -5.03 0.34 -5.03 0.34 -3.24 -2.22 c-1.79 -1.19 -4.69 -3.75 -6.56 -5.63 l-3.32 -3.41 -1.45 0 -1.45 0 -3.75 3.15 -3.66 3.07 -4.26 1.88 c-2.39 1.11 -6.99 2.81 -10.23 3.84 l-5.97 1.88 -13.21 0.43 -13.21 0.43 -4.26 -2.81 -4.18 -2.90 -4.09 -5.03 -4.01 -5.03 -1.45 -3.92 -1.45 -3.92 -0.34 -13.64 c-0.17 -7.50 -0.51 -14.49 -0.68 -15.43 l-0.43 -1.88 -1.28 -0.51 -1.36 -0.51 -8.35 7.93 -8.35 7.84 -4.77 2.90 c-2.64 1.53 -7.24 3.75 -10.14 4.86 -2.98 1.19 -5.97 2.39 -6.65 2.81 l-1.28 0.68 0.09 5.03 c0 2.81 0.34 10.57 0.68 17.39 l0.68 12.36 -2.05 2.98 -2.05 2.98 -3.58 1.96 -3.66 2.05 -4.18 0 -4.18 -0.09 -3.24 -1.70 c-4.09 -2.13 -7.07 -5.20 -10.82 -11.51 l-3.07 -5.11 0 -1.45 0 -1.53 -1.79 -0.51 -1.79 -0.60 -0.85 0.85 c-0.43 0.43 -2.13 4.77 -3.75 9.63 l-2.98 8.86 -3.07 5.54 c-1.62 3.07 -4.94 7.93 -7.24 10.91 l-4.26 5.37 -4.86 3.92 -4.77 3.92 -5.11 2.39 -5.11 2.47 -4.60 0.85 c-5.80 1.11 -9.72 1.02 -14.57 -0.34z m7.93 -47.30 c4.43 -1.70 10.40 -11.08 11.93 -18.84 0.26 -1.19 1.11 -4.77 1.79 -8.10 l1.36 -5.97 0.60 -9.97 0.51 -10.06 -7.24 0 -7.24 0 -3.32 -2.47 c-1.88 -1.28 -4.35 -3.58 -5.63 -5.03 l-2.13 -2.64 -1.19 -0.09 c-0.68 -0.17 -1.79 -0.17 -2.56 -0.09 l-1.45 0.09 -1.02 2.56 -1.02 2.56 0.51 14.23 0.43 14.32 0.85 4.69 c0.51 2.56 1.11 6.05 1.36 7.67 0.34 1.62 0.85 3.75 1.28 4.69 0.34 0.94 1.19 3.07 1.79 4.69 0.60 1.62 1.62 3.92 2.39 4.94 l1.28 2.05 1.70 0.68 c2.39 1.02 2.64 1.02 5.03 0.09z m635.88 -28.89 l4.18 -1.45 0.34 -0.94 0.34 -0.94 -2.64 -2.81 c-1.45 -1.62 -3.49 -4.43 -4.43 -6.31 l-1.79 -3.49 0.60 -19.18 0.60 -19.18 0.77 -4.26 0.68 -4.26 -0.85 -1.53 -0.77 -1.53 -1.45 0.26 -1.45 0.26 -1.28 2.56 c-0.68 1.45 -2.05 4.35 -2.98 6.65 -0.85 2.22 -1.96 4.01 -2.30 4.01 -0.34 0 -0.68 0.43 -0.68 0.94 0 1.19 -5.11 8.35 -8.78 12.44 -1.45 1.62 -5.11 4.69 -8.01 6.73 l-5.37 3.84 0 1.19 c0 2.81 5.37 11.93 9.03 15.51 1.11 1.02 4.52 3.07 7.67 4.60 l5.63 2.81 2.30 2.81 2.22 2.81 2.13 0 c1.19 0 4.01 -0.68 6.31 -1.53z m-428.35 -12.36 l0.85 -1.02 0.26 -31.45 0.26 -31.53 -1.02 -0.34 -0.94 -0.26 -3.75 2.13 -3.66 2.22 -11.42 1.70 -11.42 1.70 -1.96 1.28 -1.96 1.28 0 2.39 0 2.39 1.02 1.02 1.02 1.02 6.05 0 6.14 0 3.41 2.47 3.41 2.47 2.64 4.26 c1.45 2.39 3.07 5.80 3.66 7.76 l1.02 3.41 -1.11 3.92 -1.11 3.92 -2.81 2.90 -2.81 2.90 -3.66 0.94 c-2.05 0.60 -6.31 1.62 -9.63 2.30 -6.31 1.28 -7.67 2.05 -8.27 4.35 l-0.43 1.53 0.68 1.88 0.68 1.88 1.96 0 c1.11 0 4.94 -0.94 8.61 -2.13 l6.65 -2.13 3.41 0 3.41 0 1.79 0.94 c1.02 0.51 2.73 1.88 3.84 2.98 l2.05 2.05 1.11 0 c0.68 0 1.53 -0.51 2.05 -1.11z m180.68 -11.85 l1.02 -1.02 0 -6.39 c0 -5.88 1.88 -31.53 3.15 -43.72 l0.43 -4.94 -1.02 -1.28 -1.02 -1.28 -4.94 0 -4.86 0 -2.90 -1.96 c-1.62 -1.11 -3.92 -2.98 -5.20 -4.26 -2.47 -2.47 -3.07 -2.64 -4.86 -1.53 l-1.28 0.77 1.11 4.18 c0.51 2.22 1.19 5.03 1.45 6.22 0.26 1.19 0.77 2.90 1.19 3.84 0.43 0.94 0.94 2.90 1.28 4.26 0.51 2.73 0.68 3.49 4.26 17.47 1.28 4.94 2.47 10.23 2.73 11.76 0.26 1.53 0.77 2.98 1.19 3.24 l0.77 0.43 0 2.90 0 2.90 0.85 0.51 0.85 0.51 0 2.13 0 2.13 1.36 2.05 1.36 2.13 1.02 0 c0.60 0 1.45 -0.43 2.05 -1.02z m103.47 -1.70 c1.11 -1.53 2.47 -3.75 2.98 -4.94 0.51 -1.19 1.28 -3.07 1.79 -4.26 1.70 -4.09 3.24 -13.38 4.09 -24.29 l0.60 -7.67 -1.02 -4.94 -1.02 -4.86 -1.70 -0.94 -1.70 -0.85 -2.73 1.53 -2.73 1.62 -2.30 4.18 -2.22 4.26 -0.09 1.79 c-0.09 0.94 -0.43 2.05 -0.85 2.56 -1.19 1.28 -1.96 7.59 -2.39 21.14 l-0.34 12.70 0.85 0.85 c0.51 0.51 0.94 1.62 0.94 2.39 l0 1.45 1.11 0.43 c0.51 0.26 1.88 0.51 2.90 0.51 l1.88 0.09 1.96 -2.73z m-393.32 -24.97 l1.96 -3.41 0 -3.58 0 -3.66 -2.22 -0.51 -2.13 -0.60 -2.13 1.02 -2.05 0.94 0 6.82 0 6.90 2.30 -0.26 2.30 -0.26 1.96 -3.41z m153.32 -15.94 c0.94 -1.11 2.47 -3.66 3.32 -5.63 l1.62 -3.75 -0.94 -1.36 -0.85 -1.45 -1.79 -0.26 -1.79 -0.26 -1.70 0.94 -1.79 0.94 0 5.80 0 5.80 0.60 0.51 c0.94 0.94 1.53 0.68 3.32 -1.28z m332.64 0.51 l2.05 -1.45 2.39 -5.37 2.47 -5.45 0 -2.39 0 -2.39 -1.02 -1.02 -1.02 -1.02 -2.64 0 -2.64 0 -1.28 1.11 -1.36 1.02 -0.94 4.52 c-0.60 2.56 -1.02 6.39 -1.02 8.61 l0 4.09 0.60 0.51 c0.85 0.94 2.30 0.68 4.43 -0.77z"/>
 </g>
 <g fill="#448479">
  <path d="M155.71 370.65 l4.43 -4.60 2.22 -4.94 2.30 -4.94 1.28 -7.41 1.28 -7.41 -0.43 -9.38 -0.43 -9.38 -1.88 -5.88 c-1.02 -3.24 -2.98 -8.27 -4.35 -11.08 l-2.47 -5.20 -2.81 -2.81 -2.73 -2.90 -3.24 -1.70 -3.32 -1.62 1.53 -1.70 1.45 -1.62 2.22 0 2.22 0 4.43 2.56 4.43 2.56 3.15 3.75 3.15 3.75 2.39 5.37 2.39 5.45 0.09 2.39 0 2.39 1.19 1.88 c1.70 2.73 2.30 7.33 2.39 17.64 l0 9.20 -1.02 4.94 c-1.36 6.48 -3.75 11.76 -7.41 16.62 l-2.98 4.01 -3.15 1.70 -3.15 1.79 -3.84 0.60 -3.75 0.51 4.43 -4.52z"/>
  <path d="M349.94 360.34 l0.51 -5.71 -1.96 -15.68 -1.88 -15.68 2.30 -3.07 2.39 -3.15 -0.51 -1.28 -0.43 -1.28 -1.45 0 -1.36 0 0.60 -3.92 c1.11 -7.50 1.70 -7.84 5.45 -2.73 l2.64 3.58 1.88 4.77 1.96 4.69 -0.09 11.51 0 11.51 -1.53 5.11 c-1.70 5.63 -4.69 11.68 -7.33 14.91 l-1.79 2.13 0.60 -5.71z"/>
  <path d="M107.64 265.06 l0.43 -9.80 1.45 -6.82 1.45 -6.82 2.73 -7.41 2.81 -7.41 2.90 -4.86 2.90 -4.86 4.69 -4.94 4.77 -5.03 1.53 0 1.53 0 -0.60 3.15 c-0.94 4.94 -8.61 26.42 -11.85 33.07 -1.62 3.32 -3.41 7.59 -4.01 9.63 l-1.02 3.58 -0.68 0 -0.60 0 0.34 -3.41 c0.17 -1.88 0.51 -4.94 0.68 -6.82 l0.34 -3.41 -1.02 0 -1.11 0 -2.22 7.50 c-1.28 4.09 -2.90 11.08 -3.66 15.51 -0.77 4.43 -1.53 8.27 -1.79 8.52 l-0.51 0.43 0.51 -9.80z"/>
  <path d="M137.05 184.09 l-2.13 -5.97 1.36 -0.85 1.36 -0.77 -1.45 -0.09 -1.53 0 -1.28 -3.15 -1.36 -3.15 0.60 -2.39 0.51 -2.47 5.03 -6.73 c6.14 -8.27 15.09 -17.81 22.07 -23.44 2.90 -2.30 6.99 -5.63 9.03 -7.41 5.45 -4.60 16.79 -11.93 25.91 -16.70 l8.10 -4.26 10.23 -3.41 10.23 -3.41 8.01 -1.36 8.10 -1.36 7.67 0 7.76 0 8.10 1.28 c4.43 0.77 9.29 1.70 10.74 2.13 l2.64 0.85 2.22 2.39 2.22 2.30 3.84 9.38 c4.52 11.25 11.59 30.51 11.59 31.88 l0 0.94 -2.30 0.43 c-1.36 0.34 -2.98 0.68 -3.66 0.85 -3.75 0.85 -16.28 5.97 -20.71 8.44 l-5.11 2.81 -5.03 -2.05 c-2.73 -1.11 -7.67 -2.56 -10.99 -3.24 l-5.97 -1.28 -6.22 0 -6.14 0 -5.03 1.28 c-2.81 0.77 -7.41 2.39 -10.23 3.75 l-5.11 2.39 -5.97 4.43 c-3.24 2.39 -6.31 4.35 -6.82 4.43 -1.45 0 -11.51 1.45 -17.13 2.39 l-5.11 0.85 -7.67 2.73 c-8.18 2.90 -15.09 6.14 -22.59 10.65 -2.64 1.62 -5.03 2.90 -5.20 2.90 -0.26 0 -1.45 -2.73 -2.56 -5.97z"/>
 </g>
 <g fill="#d46048">
  <path d="M243.32 526.19 c-1.88 -1.19 -6.05 -4.43 -9.38 -7.07 l-5.88 -4.77 -20.63 -20.45 c-20.97 -20.80 -29.49 -30.09 -33.75 -36.48 l-2.39 -3.58 0 -1.96 c0 -1.02 0.94 -7.07 2.13 -13.38 l2.05 -11.42 0.60 -7.93 0.51 -7.93 -0.94 -8.10 c-0.51 -4.43 -1.62 -11.68 -2.30 -16.11 l-1.36 -7.93 3.41 -3.58 3.49 -3.49 2.05 -4.26 2.13 -4.26 1.79 -7.16 1.79 -7.24 0 -10.40 0 -10.40 -1.36 -6.99 -1.28 -7.07 -2.56 -6.90 -2.47 -6.82 0 -4.52 0 -4.60 1.36 -2.73 1.36 -2.73 8.27 -8.10 8.27 -8.10 2.30 -4.69 2.22 -4.69 1.79 -8.78 c0.94 -4.77 2.47 -10.74 3.41 -13.30 l1.70 -4.52 1.96 -1.70 1.88 -1.70 2.56 -0.68 c1.45 -0.34 4.09 -0.77 6.05 -1.02 l3.41 -0.43 5.97 3.32 5.88 3.24 11.08 0.43 11.08 0.43 4.69 3.07 c2.56 1.62 7.16 4.01 10.23 5.28 l5.54 2.22 5.03 0.94 5.11 0.85 6.99 0 7.07 0 0.51 -0.85 0.51 -0.85 1.88 0 1.88 0 7.16 -2.90 7.16 -2.98 3.41 2.90 3.41 2.90 3.58 1.45 3.66 1.36 1.79 8.61 1.88 8.69 0.51 8.35 0.51 8.27 -0.77 0 c-0.43 0 -1.53 -0.60 -2.39 -1.28 l-1.70 -1.28 -4.86 0 -4.86 0 -3.24 1.36 c-1.88 0.77 -4.94 2.56 -6.99 4.01 l-3.66 2.64 -1.62 2.73 -1.70 2.64 0 1.88 0 1.79 1.79 0 1.79 0 8.10 -3.92 8.10 -3.92 2.73 -0.43 2.81 -0.43 2.64 1.36 c1.45 0.77 2.90 1.70 3.15 2.22 l0.51 0.85 -0.94 6.14 -0.94 6.14 -1.36 1.53 -1.36 1.53 -1.62 0 -1.62 0 -3.15 -2.56 -3.15 -2.56 -2.81 -0.51 -2.73 -0.51 -1.36 1.02 -1.28 1.11 2.39 1.11 2.39 1.02 -2.90 0.09 -2.90 0.09 -4.77 2.73 c-2.64 1.45 -5.54 3.24 -6.39 4.01 l-1.62 1.36 -1.96 4.26 -2.05 4.26 0.09 2.13 0.09 2.13 0.43 -1.02 c0.17 -0.60 0.85 -1.11 1.36 -1.11 l1.02 0 1.02 1.70 1.11 1.62 2.56 1.36 2.56 1.36 3.41 -0.94 3.32 -0.94 1.70 -2.30 c0.94 -1.36 1.96 -3.41 2.30 -4.77 l0.51 -2.30 -2.90 0.26 -2.90 0.17 -1.11 -0.77 -1.19 -0.68 1.53 -1.19 1.62 -1.11 1.96 0 1.96 0 0 -1.70 0 -1.70 0.94 0 c0.51 0 2.13 0.60 3.66 1.28 l2.73 1.28 1.53 2.64 1.53 2.64 -0.51 2.47 -0.51 2.47 3.41 -0.51 3.41 -0.60 0 3.75 c0 2.05 0.60 6.82 1.36 10.57 l1.28 6.82 0.09 8.10 0 8.10 -2.22 6.73 c-2.98 8.78 -7.07 16.88 -16.45 32.47 -4.26 7.07 -10.31 17.98 -13.47 24.29 -3.15 6.31 -6.65 12.78 -7.84 14.32 l-2.13 2.90 -4.43 2.73 -4.35 2.81 -4.09 1.11 -4.09 1.11 -7.41 -0.43 -7.50 -0.43 -13.04 -4.43 -13.04 -4.43 -9.46 -4.77 c-17.56 -8.78 -33.24 -21.14 -42.70 -33.66 -2.64 -3.49 -3.66 -3.92 -4.43 -1.96 l-0.51 1.28 2.47 5.28 2.56 5.37 5.37 6.82 5.45 6.82 8.52 8.35 c10.31 10.06 18.24 16.62 27.27 22.76 l6.73 4.52 7.16 3.32 7.16 3.24 -0.51 0.85 c-0.26 0.43 -1.62 6.99 -2.98 14.66 l-2.56 13.89 -1.36 13.64 c-0.77 7.50 -1.62 14.32 -1.96 15.17 l-0.51 1.53 -3.41 -2.30z m50.88 -121.96 c4.94 -1.88 6.05 -2.90 9.12 -8.69 3.07 -5.88 3.15 -6.05 1.02 -6.05 l-1.62 0 -1.88 4.60 -1.79 4.60 -2.05 1.88 -2.05 1.88 -10.06 -0.34 -10.06 -0.34 -4.86 -1.79 c-2.64 -1.02 -7.07 -2.90 -9.80 -4.26 l-4.94 -2.47 0.26 -2.22 0.26 -2.22 -4.77 -1.02 c-2.56 -0.51 -5.54 -0.85 -6.56 -0.68 l-1.79 0.26 -0.43 1.11 -0.34 1.02 1.62 0 1.62 0 6.90 4.60 6.90 4.52 6.56 2.73 c7.84 3.24 11.68 4.09 19.35 4.26 l5.80 0.09 3.58 -1.45z m14.15 -38.61 l1.96 -2.90 -0.26 -4.77 -0.26 -4.69 -1.36 -0.26 -1.36 -0.26 -3.15 6.48 -3.15 6.39 -0.77 0 c-0.43 0 -1.19 0.77 -1.70 1.79 l-0.94 1.70 4.52 -0.26 4.43 -0.26 2.05 -2.98z m-64.35 -39.55 l3.15 -2.90 0 -2.30 0 -2.30 -2.47 0.43 -2.47 0.51 -1.45 -1.11 -1.53 -1.11 0.51 -1.45 0.51 -1.36 3.41 0 3.41 0 -0.43 -1.28 -0.51 -1.28 1.36 -0.51 1.36 -0.51 2.64 1.02 2.56 1.11 5.37 5.88 5.45 5.97 0.51 -0.85 0.43 -0.77 -2.56 -5.03 -2.64 -5.03 -3.07 -3.24 -3.15 -3.32 -4.09 -2.39 -4.18 -2.39 0.85 -0.51 0.77 -0.43 2.73 0.77 c1.45 0.43 4.09 1.62 5.71 2.64 4.35 2.64 4.52 1.45 0.26 -1.70 l-3.66 -2.64 -2.81 -0.51 -2.90 -0.51 -5.03 0.34 -5.03 0.34 -1.70 1.53 -1.70 1.53 -3.24 -0.34 c-1.79 -0.26 -4.01 -0.68 -4.86 -1.11 l-1.62 -0.68 0.43 2.05 c0.26 1.11 0.77 2.73 1.11 3.58 l0.68 1.53 -3.32 -0.60 c-1.88 -0.34 -4.26 -0.68 -5.45 -0.68 l-2.13 -0.09 0.26 2.81 0.17 2.73 -3.41 0 -3.49 0 -0.51 1.45 -0.60 1.45 3.24 2.73 3.24 2.81 5.20 1.70 c2.81 1.02 5.80 1.79 6.48 1.79 l1.28 0 1.88 1.79 1.96 1.79 2.81 0.68 c1.53 0.34 3.75 0.68 5.03 0.77 l2.13 0.09 3.15 -2.90z m25.48 -32.64 l1.53 -1.36 0 -1.96 0 -1.96 -3.15 -3.07 -3.24 -3.07 -5.97 -2.90 c-3.24 -1.62 -7.84 -3.32 -10.06 -3.92 l-4.09 -1.02 -7.84 0.51 -7.84 0.43 -4.26 2.30 c-5.97 3.24 -12.70 8.44 -15.26 11.76 -2.56 3.32 -2.73 4.01 -0.94 4.01 l1.36 0 4.52 -3.41 4.52 -3.41 2.13 0 2.13 0 1.53 -1.70 1.53 -1.70 6.73 0 6.73 0 6.56 3.15 c10.23 4.86 19.26 8.69 20.54 8.78 0.68 0 1.96 -0.60 2.81 -1.45z"/>
  <path d="M433.04 412.84 l-4.60 -1.19 -4.26 -2.30 -4.18 -2.30 -4.94 -5.45 -4.94 -5.37 -3.41 -6.56 c-6.39 -12.44 -10.31 -25.74 -12.19 -41.93 l-1.02 -8.95 0.51 -14.49 0.51 -14.49 1.28 -6.82 c5.37 -29.91 17.05 -52.24 32.64 -62.56 l4.01 -2.64 4.26 -1.28 4.26 -1.28 4.18 0 4.18 0 2.47 2.47 2.47 2.47 0 2.98 0 3.07 -4.86 2.22 -4.94 2.22 -2.81 2.73 -2.90 2.73 -3.24 5.54 -3.24 5.54 -2.13 6.05 -2.22 6.05 -2.13 10.57 c-1.11 5.80 -2.56 14.57 -3.15 19.52 l-1.02 8.95 0.51 13.64 0.51 13.64 1.79 8.35 1.79 8.35 2.13 4.86 c1.19 2.64 3.15 6.31 4.35 8.10 l2.30 3.32 3.15 1.62 3.24 1.62 3.24 0 3.24 0 2.56 -1.62 2.56 -1.53 3.15 -4.60 3.15 -4.60 2.13 -6.39 c1.11 -3.49 2.81 -9.63 3.66 -13.64 l1.53 -7.24 -0.09 -20.03 -0.09 -20.03 -1.79 -6.73 -1.88 -6.82 -1.88 -1.96 -1.79 -1.96 -2.47 0 -2.39 0 -1.70 2.81 -1.70 2.73 0 3.84 0 3.84 1.62 6.14 1.62 6.14 -1.36 1.88 -1.28 1.79 -3.75 -0.43 -3.84 -0.43 -3.24 -3.15 -3.32 -3.24 -1.88 -4.35 -1.96 -4.35 -0.34 -7.84 -0.34 -7.93 2.22 -6.99 2.22 -7.07 3.15 -4.18 3.24 -4.26 4.26 -2.56 4.26 -2.64 5.80 -0.26 5.80 -0.34 5.37 2.64 5.37 2.64 3.92 4.18 3.92 4.18 3.07 6.22 3.15 6.22 1.96 7.67 1.96 7.76 1.02 8.35 1.11 8.44 -0.51 17.13 -0.51 17.22 -1.62 7.76 c-0.94 4.26 -2.73 11.16 -4.01 15.34 l-2.30 7.59 -3.41 6.82 -3.41 6.82 -3.49 4.69 c-4.35 5.80 -10.82 12.78 -11.85 12.78 -0.43 0 -1.79 0.68 -2.98 1.45 -1.19 0.85 -4.18 2.13 -6.56 2.98 l-4.26 1.53 -6.05 -0.09 -5.97 0 -4.60 -1.28z"/>
  <path d="M1081.45 386.68 l-3.75 -2.05 -2.39 -3.84 -2.47 -3.92 0.09 -5.88 0 -5.88 1.28 -3.07 c0.77 -1.70 2.30 -4.18 3.49 -5.63 l2.22 -2.64 4.52 -1.02 4.60 -1.02 3.24 0.60 3.24 0.68 3.15 3.15 3.15 3.07 0.94 3.41 c0.51 1.88 0.94 5.03 0.94 6.90 l0 3.49 -1.19 3.49 c-0.68 1.96 -2.13 4.69 -3.15 6.14 l-1.96 2.56 -2.90 1.70 -2.81 1.70 -3.24 0 -3.24 0 -3.75 -1.96z"/>
  <path d="M514.35 380.63 c-1.36 -0.60 -3.32 -1.96 -4.18 -2.98 l-1.62 -1.79 -1.19 -4.43 -1.19 -4.52 -1.28 -43.04 c-0.68 -23.69 -1.28 -45.51 -1.36 -48.58 l-0.09 -5.63 1.53 -2.81 c2.90 -5.71 8.78 -9.80 18.66 -12.95 l5.20 -1.70 8.52 -0.51 8.52 -0.43 5.54 1.45 5.54 1.45 4.01 2.47 4.01 2.56 3.15 3.49 3.07 3.41 1.96 4.43 1.96 4.43 1.02 6.39 1.02 6.39 -0.94 6.39 -0.94 6.31 -3.66 7.24 -3.58 7.24 -6.56 6.56 -6.65 6.65 -1.02 0 c-0.51 0 -1.70 0.68 -2.56 1.45 l-1.62 1.45 -6.99 2.47 c-3.84 1.36 -8.27 2.73 -9.89 2.98 l-2.90 0.34 0.60 8.69 c0.26 4.69 0.77 13.04 1.02 18.58 l0.60 9.89 -1.88 2.64 -1.96 2.64 -2.39 1.28 -2.47 1.28 -3.24 0 -3.24 -0.09 -2.56 -1.11z m24.72 -69.63 l3.75 -2.56 2.64 -3.15 2.56 -3.15 1.79 -4.69 1.79 -4.69 -0.09 -4.86 0 -4.86 -1.28 -2.56 -1.36 -2.56 -1.88 -1.28 -1.88 -1.36 -5.11 0 -5.03 0 -2.81 1.79 -2.90 1.79 0 17.90 0 17.90 2.98 -0.51 2.98 -0.60 3.84 -2.56z"/>
  <path d="M132.61 370.31 l-3.32 -1.19 -2.81 -2.73 -2.90 -2.81 -3.41 -5.63 -3.41 -5.63 0 -1.45 c0 -0.85 -0.51 -2.39 -1.19 -3.41 l-1.19 -1.88 -0.94 -5.03 -0.94 -5.11 0 -7.16 0 -7.16 1.36 -5.28 1.28 -5.20 2.13 -3.58 2.05 -3.58 4.69 -4.01 4.69 -4.09 0 -9.80 c0 -5.45 0.26 -12.44 0.51 -15.60 l0.60 -5.80 2.81 -0.51 2.81 -0.51 2.64 1.11 2.56 1.19 0.09 1.70 c0.09 0.94 0 2.13 -0.09 2.56 -0.09 0.51 -0.34 6.22 -0.60 12.87 l-0.51 11.93 1.02 1.88 0.94 1.79 2.47 -0.43 2.47 -0.51 3.84 3.75 3.75 3.75 2.22 4.77 2.30 4.86 1.36 8.69 1.36 8.69 -0.43 7.76 -0.34 7.76 -1.02 4.35 -1.02 4.43 -2.73 4.52 -2.73 4.60 -4.69 3.15 -4.69 3.15 -3.84 0 -3.84 0 -3.32 -1.19z m8.01 -11.93 l3.32 -3.24 1.79 -4.26 1.88 -4.26 0.68 -7.50 0.68 -7.50 -1.19 -5.71 -1.19 -5.71 -1.79 -3.84 -1.88 -3.84 -3.24 -3.24 -3.24 -3.24 -3.58 -0.94 -3.58 -0.94 -3.92 1.62 -3.92 1.70 -1.96 2.73 -1.88 2.81 -0.94 3.41 c-1.19 4.43 -0.51 4.77 1.79 1.02 1.11 -1.70 2.90 -4.01 4.09 -5.11 l2.22 -2.05 2.30 -0.51 2.39 -0.51 2.39 1.28 2.47 1.28 2.39 3.32 c1.28 1.88 3.07 5.28 3.92 7.67 l1.62 4.26 0.60 5.45 0.51 5.45 -0.94 4.77 -1.02 4.77 -2.30 2.98 c-1.28 1.62 -3.32 3.58 -4.60 4.35 l-2.22 1.36 -3.84 0 -3.84 0 -1.11 1.36 -1.11 1.36 1.62 0.94 c0.94 0.60 2.47 1.28 3.41 1.62 l1.70 0.60 4.09 -0.26 4.09 -0.26 3.32 -3.24z"/>
  <path d="M1044.03 368.78 l-2.98 -0.94 -4.09 -4.09 -4.01 -4.01 -4.09 -8.35 -4.09 -8.35 -3.75 -11.68 -3.75 -11.76 -1.53 0 -1.45 0 -0.77 1.53 -0.85 1.45 -0.60 15.77 -0.60 15.77 -1.53 3.58 -1.53 3.58 -3.66 1.79 -3.58 1.88 -3.92 -0.60 c-4.43 -0.68 -7.50 -2.05 -9.72 -4.43 l-1.45 -1.70 -0.77 -4.01 -0.77 -4.01 2.90 -30.94 c1.53 -17.05 3.41 -36.05 4.18 -42.27 0.68 -6.14 1.28 -12.87 1.28 -14.83 l0 -3.58 -1.70 -4.86 -1.70 -4.86 0 -2.56 0 -2.64 1.62 -3.15 c2.81 -5.37 7.41 -8.61 15.85 -10.99 l4.26 -1.19 11.51 -0.51 11.51 -0.43 5.45 1.45 5.45 1.36 4.86 2.47 4.77 2.39 4.77 5.20 4.77 5.11 1.88 4.94 1.88 4.94 0.43 7.76 0.51 7.67 -1.53 5.11 -1.45 5.03 -2.98 5.80 -3.07 5.80 -5.54 5.97 -5.54 5.97 -4.94 3.41 c-2.73 1.79 -5.11 3.66 -5.45 4.18 l-0.51 0.85 2.47 5.71 c1.28 3.24 4.01 8.52 5.88 11.76 l3.49 5.97 3.66 3.66 3.66 3.58 4.77 1.79 c2.56 0.94 5.37 2.39 6.22 3.15 l1.62 1.45 -0.51 3.24 c-0.34 1.79 -1.28 4.69 -2.13 6.39 l-1.62 3.15 -3.49 3.41 -3.49 3.32 -5.80 0.26 -5.71 0.17 -2.98 -1.02z m-19.52 -75.26 c1.28 -0.60 4.43 -3.07 7.07 -5.45 l4.77 -4.43 2.73 -5.54 2.73 -5.54 0.34 -4.94 0.34 -4.86 -1.45 -3.15 -1.45 -3.07 -2.47 -1.79 -2.39 -1.70 -6.56 0.26 -6.56 0.26 -1.53 2.13 -1.45 2.13 -1.79 18.15 -1.79 18.24 0.43 0.68 0.43 0.77 3.24 -0.51 c1.70 -0.26 4.18 -1.02 5.37 -1.62z"/>
  <path d="M597.87 365.28 l-3.41 -1.28 -3.07 -3.41 -2.98 -3.32 -1.11 -3.32 -1.11 -3.24 -0.68 -17.05 -0.77 -17.05 0.85 -27.27 0.77 -27.27 0.60 -1.70 c0.26 -0.94 1.45 -3.15 2.47 -4.86 l2.05 -3.24 3.49 -1.70 c4.26 -2.22 13.72 -4.69 24.29 -6.39 l8.01 -1.28 6.73 0 6.73 0 2.64 2.22 2.64 2.13 0.85 3.41 0.94 3.32 -0.85 3.24 -0.94 3.24 -2.30 2.22 -2.39 2.30 -8.95 1.70 c-4.94 0.94 -10.57 1.96 -12.61 2.22 l-3.66 0.60 -2.22 1.88 -2.30 1.96 -0.77 9.80 -0.85 9.80 0.43 1.28 0.51 1.28 5.45 -1.11 5.37 -1.19 6.14 0 6.05 0 2.22 2.64 2.22 2.64 0 4.09 0 4.09 -2.13 2.64 c-1.19 1.36 -3.49 3.32 -5.11 4.35 l-2.90 1.79 -8.27 1.19 -8.35 1.28 -0.77 0.77 -0.77 0.77 -0.26 5.88 -0.26 5.80 0.68 4.18 0.60 4.09 1.19 0.85 1.19 0.77 5.11 -0.43 5.11 -0.51 6.65 -2.13 6.65 -2.13 3.41 0 3.41 0 2.05 2.05 2.05 2.05 0.85 3.24 0.85 3.32 -0.77 3.41 -0.77 3.41 -2.98 2.73 -2.90 2.73 -11.42 3.58 -11.34 3.58 -8.95 0.34 -8.95 0.26 -3.41 -1.19z"/>
  <path d="M665.88 360.60 l-3.58 -1.62 -1.70 -3.49 -1.79 -3.41 0 -15.17 c0.09 -8.35 0.43 -27.02 0.85 -41.59 l0.77 -26.42 -1.70 -6.65 -1.70 -6.65 0.60 -3.07 0.60 -3.15 3.92 -3.75 3.92 -3.84 4.69 -2.13 c2.56 -1.11 6.73 -2.56 9.20 -3.24 l4.52 -1.19 8.27 -0.51 8.27 -0.51 5.80 1.36 c6.90 1.62 10.91 3.58 15.68 7.76 l3.58 3.07 2.81 5.63 2.73 5.63 0.34 7.93 0.34 8.01 -0.94 4.01 c-0.60 2.22 -2.05 6.05 -3.24 8.61 l-2.13 4.60 -5.28 5.54 c-2.81 3.07 -7.24 7.07 -9.63 8.95 l-4.52 3.32 3.07 6.14 c4.52 8.86 8.35 14.66 13.38 20.03 l4.43 4.69 5.28 2.39 5.28 2.47 0.85 1.53 0.85 1.62 -0.85 3.07 -0.77 2.98 -3.49 3.07 c-4.01 3.66 -6.56 4.77 -10.82 4.77 -4.43 0 -8.44 -1.28 -12.19 -3.92 l-3.24 -2.22 -4.26 -5.45 -4.26 -5.54 -4.18 -8.27 c-2.30 -4.52 -4.86 -10.14 -5.71 -12.36 l-1.53 -4.09 -2.22 0.26 -2.22 0.26 0.26 17.13 0.34 17.05 -2.30 2.81 c-1.28 1.45 -3.41 3.24 -4.77 3.92 l-2.39 1.28 -2.81 0 -2.81 0 -3.58 -1.62z m25.99 -66.82 c2.05 -1.02 5.20 -3.07 6.99 -4.69 l3.32 -2.81 2.64 -5.37 2.73 -5.45 0.43 -3.41 0.43 -3.49 -0.51 -2.98 -0.60 -2.98 -2.22 -2.73 -2.30 -2.73 -7.59 0.51 -7.59 0.43 -1.36 1.36 -1.45 1.45 -0.51 17.22 c-0.34 9.46 -0.34 17.56 -0.17 17.90 l0.43 0.68 1.79 -0.60 c1.02 -0.26 3.49 -1.36 5.54 -2.30z"/>
  <path d="M921.56 357.10 c-4.94 -1.70 -8.61 -4.01 -12.87 -8.01 l-2.81 -2.64 -2.98 -4.77 c-3.49 -5.88 -6.73 -14.23 -8.61 -22.41 l-1.36 -6.05 0 -11.93 0.09 -11.93 1.88 -8.95 1.88 -8.95 3.41 -8.69 3.32 -8.78 3.66 -4.94 3.66 -4.94 4.35 -3.75 c2.39 -2.13 5.63 -4.43 7.16 -5.20 1.53 -0.77 3.92 -1.88 5.28 -2.56 l2.47 -1.19 9.46 0 9.46 0 4.77 2.39 4.77 2.30 4.09 3.58 4.09 3.58 2.73 4.35 c5.54 8.78 8.35 18.84 9.38 33.66 l0.60 8.10 -0.94 9.55 -0.94 9.46 -1.70 6.48 c-2.05 8.10 -4.94 15.34 -8.61 21.65 l-2.90 4.86 -8.10 8.18 -8.10 8.18 -2.90 0.51 c-1.53 0.34 -6.56 0.60 -11.08 0.60 l-8.18 -0.09 -4.43 -1.62z m16.70 -27.78 l2.30 -1.36 2.73 -4.01 2.64 -3.92 1.70 -5.28 c1.02 -2.90 2.39 -8.86 3.15 -13.21 l1.36 -7.93 -0.43 -10.65 -0.43 -10.65 -1.36 -4.43 -1.36 -4.35 -2.56 -2.73 -2.56 -2.73 -4.69 0.34 -4.69 0.43 -2.64 2.47 -2.56 2.47 -2.56 5.11 -2.47 5.11 -1.88 8.10 -1.79 8.10 0 11.08 0 11.08 1.79 5.37 1.70 5.37 2.30 2.98 2.30 2.98 1.88 0.77 c0.94 0.43 2.73 0.77 3.75 0.77 l2.05 0.09 2.30 -1.36z"/>
  <path d="M847.24 352.67 l-3.84 -1.96 -1.70 -2.39 -1.79 -2.39 -0.26 -8.69 -0.34 -8.69 1.45 -17.05 c1.62 -19.94 2.81 -35.45 3.58 -48.84 l0.51 -9.63 -9.72 0.60 -9.72 0.60 -3.24 -1.36 -3.24 -1.36 -1.62 -3.66 -1.70 -3.66 0 -2.56 c0 -1.45 0.34 -3.84 0.85 -5.45 l0.85 -2.90 1.88 -2.05 1.79 -1.96 3.07 0 c1.70 0 5.20 -0.60 7.76 -1.28 l4.69 -1.28 12.44 0 12.36 0 0.85 -0.77 0.77 -0.68 14.49 -0.51 14.49 -0.60 2.73 1.70 2.73 1.62 1.45 2.73 1.36 2.73 -0.34 3.92 -0.43 3.92 -1.19 2.56 -1.19 2.47 -2.73 1.88 -2.64 1.79 -9.29 0.60 -9.20 0.60 -1.45 1.45 -1.45 1.45 -0.94 7.67 c-0.43 4.26 -1.45 17.30 -2.13 28.98 l-1.28 21.31 0 16.45 0 16.53 -1.36 2.81 c-0.68 1.53 -2.13 3.58 -3.24 4.60 l-1.96 1.88 -4.18 0.43 -4.18 0.43 -3.75 -1.96z"/>
  <path d="M803.10 344.32 l-2.73 -1.62 -1.45 -2.81 -1.45 -2.73 -1.11 -7.76 c-0.68 -4.18 -1.19 -8.18 -1.19 -8.78 l0 -1.11 -11.68 0.60 -11.76 0.51 -1.88 1.19 -1.79 1.11 -1.45 6.14 c-1.70 7.50 -3.32 11.68 -5.71 14.15 l-1.79 1.96 -4.77 0 -4.77 0 -2.81 -1.70 -2.73 -1.70 -1.70 -2.73 -1.70 -2.81 0 -1.70 c0 -0.94 0.60 -5.11 1.45 -9.20 l1.45 -7.50 -1.45 -2.47 -1.45 -2.39 0 -2.90 0 -2.90 2.39 -2.22 c1.28 -1.19 2.98 -2.39 3.84 -2.64 l1.45 -0.51 1.28 -2.81 c0.68 -1.53 4.69 -13.81 8.95 -27.27 4.18 -13.38 8.78 -27.10 10.14 -30.51 l2.56 -6.14 1.53 -1.70 c0.85 -0.94 2.47 -2.22 3.66 -2.81 l2.13 -1.11 5.54 -0.60 5.54 -0.51 3.84 1.96 3.84 1.96 1.79 2.73 1.79 2.64 3.58 12.78 c1.96 7.07 6.56 25.23 10.31 40.40 3.75 15.09 7.84 31.11 9.03 35.45 l2.22 7.84 -0.94 2.81 -1.02 2.73 -3.07 3.15 -3.15 3.24 -6.05 0 -5.97 0 -2.73 -1.70z m-11.68 -46.19 c0.34 -0.43 -3.41 -20.97 -4.86 -26.51 l-0.85 -3.24 -1.88 0.26 -1.88 0.26 -4.01 13.21 c-2.22 7.24 -4.01 14.15 -4.09 15.26 l0 2.05 8.61 -0.51 c4.69 -0.26 8.69 -0.60 8.95 -0.77z"/>
  <path d="M1087.67 336.99 c-1.02 -0.68 -2.47 -2.39 -3.15 -3.75 l-1.28 -2.47 0 -6.65 c0 -3.66 0.60 -14.49 1.28 -24.12 2.73 -38.18 3.75 -53.69 4.26 -62.64 l0.60 -9.38 2.05 -4.26 2.05 -4.26 2.22 -1.53 2.13 -1.62 7.84 -0.43 7.84 -0.43 2.98 2.05 2.98 1.96 1.96 3.84 1.88 3.75 0 3.49 0 3.41 -5.11 22.59 c-2.73 12.44 -7.50 33.92 -10.57 47.73 -3.07 13.81 -6.22 26.76 -6.99 28.81 l-1.36 3.58 -1.53 0.85 -1.62 0.85 -3.24 0 -3.32 0 -1.88 -1.36z"/>
  <path d="M133.38 173.35 c-0.68 -1.70 -1.28 -3.58 -1.28 -4.18 l0 -1.11 3.24 -2.81 c4.60 -4.26 17.39 -14.15 25.14 -19.60 l6.73 -4.69 0.26 -5.71 0.17 -5.71 1.53 -1.70 c2.39 -2.64 17.13 -12.19 25.99 -16.88 l8.10 -4.26 10.23 -3.41 10.23 -3.41 8.01 -1.36 8.10 -1.36 7.67 0 7.76 0 8.10 1.28 c4.43 0.77 9.29 1.70 10.74 2.13 l2.64 0.85 2.22 2.39 2.22 2.30 3.84 9.38 c4.52 11.25 11.59 30.51 11.59 31.88 l0 0.94 -2.30 0.43 c-1.36 0.34 -2.98 0.68 -3.66 0.85 -3.75 0.85 -16.28 5.97 -20.71 8.44 l-5.11 2.81 -5.03 -2.05 c-2.73 -1.11 -7.67 -2.56 -10.99 -3.24 l-5.97 -1.28 -6.22 0 -6.14 0 -5.03 1.28 c-2.81 0.77 -7.41 2.39 -10.23 3.75 l-5.11 2.39 -5.97 4.43 c-3.24 2.39 -6.31 4.35 -6.82 4.43 -0.43 0 -3.49 0.34 -6.82 0.68 l-5.97 0.68 -2.56 -1.02 -2.56 -1.02 -2.39 -3.07 c-1.28 -1.70 -3.32 -4.94 -4.43 -7.33 l-2.13 -4.18 0 -1.79 0 -1.79 -0.77 0 c-2.05 0 -5.97 2.13 -9.89 5.37 -2.30 1.96 -6.39 5.20 -8.95 7.16 -2.56 1.96 -6.56 5.54 -8.95 7.84 l-4.18 4.35 -1.53 0 -1.53 0 -1.28 -3.07z"/>
 </g>
 <g fill="#cc6c55">
  <path d="M228.84 514.69 c-9.72 -8.78 -35.88 -34.60 -41.42 -40.99 l-4.35 -4.86 1.28 -1.79 c0.60 -0.94 1.36 -1.53 1.53 -1.36 0.17 0.17 0.34 -1.02 0.34 -2.73 -0.09 -3.49 1.53 -12.19 2.90 -15.77 l0.94 -2.30 1.28 0 1.28 0 0 -1.19 c0 -0.68 0.43 -1.53 0.94 -1.79 l0.85 -0.60 1.53 1.36 1.53 1.36 1.45 -0.51 1.36 -0.51 1.28 1.02 1.28 1.02 0 1.62 0 1.53 -1.02 0.60 -0.94 0.60 0.68 -1.11 0.68 -1.11 -0.94 0.60 -0.94 0.51 5.03 7.50 c6.65 9.97 14.83 25.23 21.56 40.23 5.45 12.27 10.74 23.69 11.42 24.97 l0.34 0.60 -1.11 0 -1.11 0 -7.67 -6.90z"/>
  <path d="M264.63 449.15 c-3.24 -0.85 -10.48 -3.24 -16.11 -5.28 l-10.06 -3.66 0 -0.85 0.09 -0.85 1.96 -0.51 c1.11 -0.26 2.47 -0.34 2.98 -0.09 l1.11 0.34 -0.51 0.77 -0.43 0.77 1.36 -0.51 1.45 -0.60 -7.41 -4.09 c-4.01 -2.22 -10.99 -6.65 -15.60 -9.89 l-8.27 -5.71 -7.07 -6.82 -7.07 -6.73 -4.09 -6.90 c-2.30 -3.84 -5.37 -9.63 -6.82 -13.04 l-2.64 -6.05 0 -2.39 0 -2.30 2.47 -7.76 2.47 -7.76 1.02 -8.86 1.11 -8.95 -0.60 -6.65 -0.51 -6.56 -2.22 -10.48 -2.22 -10.48 0.43 -4.69 0.43 -4.69 1.79 -4.01 c0.94 -2.30 3.49 -6.82 5.63 -10.14 2.22 -3.24 5.45 -8.78 7.24 -12.10 l3.24 -6.14 2.64 -8.61 2.64 -8.52 2.56 -3.92 2.64 -3.92 2.30 -1.53 2.30 -1.62 6.82 -0.09 6.82 -0.09 1.19 1.19 1.11 1.19 1.19 -1.02 c0.68 -0.51 1.19 -1.28 1.19 -1.70 l0 -0.68 -2.98 0.09 -2.98 0.09 -1.70 -1.53 c-2.47 -2.22 -1.62 -2.47 2.90 -0.94 l4.01 1.36 9.63 0 9.72 0 0.94 1.11 0.94 1.19 -0.68 0.68 -0.60 0.68 1.02 -0.60 0.94 -0.51 3.24 1.88 3.15 1.88 -0.77 0.26 c-0.43 0.09 -2.64 -0.68 -4.94 -1.79 l-4.26 -2.05 -2.05 0.77 -1.96 0.77 -4.09 0 -4.18 0 -1.11 1.45 -1.19 1.45 1.11 -0.68 1.02 -0.60 0 0.85 0 0.77 8.78 3.41 c11.59 4.52 18.49 6.73 25.99 8.27 l6.22 1.28 10.82 0 10.82 0 2.47 -1.28 c1.28 -0.68 3.15 -1.28 4.01 -1.28 0.85 0 1.70 -0.34 1.96 -0.77 0.26 -0.34 2.13 -1.19 4.18 -1.79 l3.75 -1.02 4.35 2.22 4.35 2.22 2.13 0 2.22 0 0.43 1.96 c0.26 1.02 0.77 3.58 1.28 5.71 0.43 2.13 1.11 7.76 1.36 12.61 l0.60 8.69 -0.77 0 c-0.43 0 -1.53 -0.60 -2.39 -1.28 l-1.70 -1.28 -4.86 0 -4.86 0 -3.24 1.36 c-1.88 0.77 -4.94 2.56 -6.99 4.01 l-3.66 2.64 -1.62 2.73 -1.70 2.64 0 1.88 0 1.88 -6.14 6.82 -6.22 6.82 -1.45 4.01 -1.45 4.01 0 5.97 -0.09 5.97 2.13 4.52 c1.11 2.39 2.30 4.43 2.64 4.43 l0.51 0 -0.60 -3.15 c-0.34 -1.79 -0.85 -6.99 -1.19 -11.51 l-0.51 -8.35 0.85 0 0.94 0 0.17 -3.15 0.26 -3.24 0.77 -0.77 0.85 -0.85 0 0.94 0 1.02 2.56 -0.77 c1.45 -0.43 2.56 -0.60 2.56 -0.34 0 0.26 -1.02 2.39 -2.22 4.77 l-2.22 4.35 -0.26 4.35 -0.34 4.35 0.43 -1.02 c0.26 -0.60 0.94 -1.11 1.45 -1.11 l1.02 0 1.02 1.70 1.11 1.62 2.56 1.36 2.56 1.36 3.41 -0.94 3.32 -0.94 1.70 -2.30 c0.94 -1.36 1.96 -3.41 2.30 -4.77 l0.51 -2.30 -2.90 0.26 -2.90 0.17 -1.11 -0.77 -1.19 -0.68 1.53 -1.19 1.62 -1.11 1.96 0 1.96 0 0 -1.70 0 -1.70 0.94 0 c0.51 0 2.13 0.60 3.66 1.28 l2.73 1.28 1.53 2.64 1.53 2.64 -0.51 2.47 -0.51 2.47 3.41 -0.51 3.41 -0.60 0 3.75 c0 2.05 0.60 6.82 1.36 10.57 l1.28 6.82 0.09 8.10 0 8.10 -2.22 6.73 c-2.98 8.78 -7.07 16.88 -16.45 32.47 -4.26 7.07 -10.31 17.98 -13.47 24.29 -3.15 6.31 -6.65 12.78 -7.84 14.32 l-2.13 2.90 -4.43 2.73 -4.35 2.73 -3.49 1.02 -3.49 1.02 -6.31 -0.09 -6.31 0 -5.97 -1.62z m17.47 -28.55 l4.18 -2.13 3.92 0 3.84 0 3.58 -3.15 3.49 -3.24 1.53 -3.41 1.53 -3.41 -1.02 -0.60 -1.02 -0.68 -3.75 0.51 -3.75 0.60 0.60 -1.02 c0.34 -0.51 1.11 -0.94 1.79 -0.94 l1.11 0 2.47 -2.98 2.39 -2.98 2.13 -0.34 c1.19 -0.26 2.39 -0.43 2.64 -0.43 0.60 -0.09 1.96 -4.26 1.79 -5.28 -0.09 -0.34 0.85 -1.45 1.96 -2.47 1.19 -1.11 2.13 -2.30 2.13 -2.64 l0 -0.60 -2.73 -0.68 c-1.53 -0.34 -4.60 -0.60 -6.82 -0.51 l-4.09 0.09 0 -0.85 0 -0.77 1.53 -0.09 1.45 -0.09 -1.19 -0.43 -1.19 -0.51 -4.43 1.11 -4.35 1.02 -2.73 -1.36 -2.64 -1.36 -8.78 0 -8.78 0.09 -5.54 1.19 c-3.07 0.68 -7.07 1.19 -8.86 1.28 l-3.32 0 1.96 2.13 1.96 2.13 1.19 0 1.11 0 0 0.85 0 0.85 11.08 0 11.08 0 10.82 0.94 c6.05 0.51 11.08 1.11 11.16 1.19 0.17 0.17 -0.43 1.96 -1.36 4.01 l-1.62 3.66 -1.79 1.62 -1.79 1.53 -10.06 -0.34 -10.06 -0.34 -4.86 -1.79 c-2.64 -1.02 -7.07 -2.90 -9.80 -4.26 l-4.94 -2.47 0.26 -2.22 0.26 -2.22 -4.77 -1.02 c-2.56 -0.51 -5.54 -0.85 -6.56 -0.68 l-1.79 0.26 -0.34 0.94 -0.34 0.94 2.47 0.51 2.39 0.51 2.13 1.70 2.05 1.70 -2.30 0.09 -2.30 0 -0.43 0.77 -0.51 0.77 3.07 4.18 c4.35 5.71 7.67 9.20 12.87 13.21 l4.43 3.41 4.94 1.96 4.94 2.05 0.09 0.85 c0.09 0.51 0.17 1.11 0.26 1.36 0.17 0.85 1.96 0.34 6.05 -1.70z m-48.75 -33.84 c0.77 -1.53 2.47 -3.84 3.75 -5.11 l2.22 -2.39 -2.22 0 -2.22 0 2.98 -3.15 c1.70 -1.79 4.09 -4.60 5.28 -6.22 l2.22 -3.07 1.62 -5.03 1.53 -5.11 -0.77 -2.90 c-0.43 -1.62 -1.28 -3.75 -1.96 -4.69 -0.68 -0.94 -1.19 -2.13 -1.19 -2.56 l0 -0.77 1.96 1.62 c1.11 0.85 0.60 0.34 -1.02 -1.19 l-2.98 -2.73 -4.26 -2.05 c-2.39 -1.11 -6.82 -2.73 -9.89 -3.49 l-5.54 -1.45 -7.33 0.34 -7.24 0.34 -3.15 1.96 -3.15 1.96 -2.39 3.07 -2.30 2.98 0 5.20 0 5.20 1.62 3.15 1.53 3.24 0.77 -0.51 0.85 -0.51 3.15 3.49 3.15 3.41 4.35 2.13 4.43 2.22 1.70 0 1.70 0 0.51 1.28 0.43 1.28 3.49 0 3.41 0 0 0.85 c0 0.51 -0.43 1.53 -0.94 2.39 l-1.02 1.53 1.79 4.01 1.79 4.01 0.94 0 0.94 0 1.45 -2.73z m88.38 -2.73 l1.36 -2.05 -0.34 -2.30 -0.26 -2.39 -1.62 -1.11 -1.62 -1.19 1.45 0 1.36 0 1.11 1.53 c0.60 0.77 2.05 2.13 3.32 2.90 l2.13 1.36 1.11 -2.73 c0.60 -1.45 1.45 -3.41 1.88 -4.35 0.43 -0.94 0.94 -2.90 1.11 -4.43 0.26 -1.45 0.77 -3.49 1.36 -4.43 l0.94 -1.88 0.77 0.51 0.77 0.43 0.60 -3.92 0.60 -4.01 -0.51 -6.73 -0.51 -6.65 -0.94 -1.70 -0.94 -1.70 -4.01 0 -4.09 0 -3.84 2.39 -3.75 2.47 -2.30 2.73 -2.30 2.73 -1.02 3.58 -0.94 3.58 0.43 4.35 0.43 4.35 2.22 4.26 2.13 4.35 -0.51 0.51 -0.51 0.51 1.53 1.70 1.53 1.70 -0.51 3.84 -0.60 3.84 0.85 0 c0.43 0 1.45 -0.94 2.13 -2.05z m-42.87 -16.36 l1.53 -1.45 2.73 -0.26 c1.53 -0.09 4.43 -0.43 6.48 -0.77 l3.66 -0.60 -0.26 1.11 -0.26 1.11 1.11 0.17 c0.51 0.09 1.45 0.17 1.96 0.26 l0.85 0.09 -0.51 0.94 -0.60 0.85 5.37 -0.26 5.37 -0.26 2.05 -2.98 1.96 -2.90 -0.26 -4.77 -0.26 -4.69 -1.53 -0.26 -1.53 -0.34 -0.51 1.70 -0.43 1.70 -7.93 0.34 -8.01 0.26 -2.56 2.47 -2.47 2.39 -5.88 -0.26 -5.80 -0.34 -0.26 1.79 -0.26 1.70 1.79 2.30 c2.13 2.73 2.39 2.73 4.43 0.94z m-34.86 -41.59 l3.15 -2.90 0 -2.30 0 -2.30 -2.47 0.43 -2.47 0.51 -1.45 -1.11 -1.53 -1.11 0.51 -1.45 0.51 -1.36 3.41 0 3.41 0 -0.43 -1.28 -0.51 -1.28 1.36 -0.51 1.36 -0.51 2.64 1.02 2.56 1.11 5.37 5.88 5.45 5.97 0.51 -0.85 0.43 -0.77 -2.56 -5.03 -2.64 -5.03 -3.07 -3.24 -3.15 -3.32 -4.09 -2.39 -4.18 -2.39 0.85 -0.51 0.77 -0.43 2.47 0.68 c1.36 0.43 4.52 1.79 7.07 3.15 l4.52 2.39 0.51 1.28 0.51 1.28 -1.02 0.34 c-1.62 0.51 -1.19 1.79 1.45 5.20 l2.39 3.07 -0.34 1.02 -0.34 1.02 2.81 0.77 2.81 0.68 0.85 2.73 c0.94 3.32 1.53 3.41 3.75 0.51 l1.79 -2.30 0 -4.94 0 -4.94 -1.02 -2.39 c-0.60 -1.28 -2.90 -5.20 -5.20 -8.61 l-4.26 -6.14 2.30 -1.79 2.22 -1.70 0 -2.05 0 -2.05 -3.15 -3.07 -3.24 -3.07 -5.97 -2.90 c-3.24 -1.62 -7.84 -3.32 -10.06 -3.92 l-4.09 -1.02 -7.84 0.51 -7.84 0.43 -4.26 2.30 c-5.97 3.24 -12.70 8.44 -15.26 11.76 -2.56 3.32 -2.73 4.01 -0.94 4.01 l1.36 0 4.52 -3.41 4.52 -3.41 2.13 0 2.13 0 1.53 -1.70 1.53 -1.70 6.73 0 6.73 0 6.56 3.15 6.56 3.15 -2.56 0.26 c-1.36 0.17 -4.69 0.94 -7.24 1.62 l-4.69 1.36 -2.13 1.53 c-1.19 0.85 -3.66 1.96 -5.63 2.47 l-3.41 0.94 -2.39 2.47 -2.39 2.47 1.79 1.79 c1.02 1.02 1.79 2.22 1.79 2.64 l0 0.94 -3.15 -0.60 c-1.79 -0.43 -4.18 -0.68 -5.37 -0.68 l-2.13 -0.09 0.26 2.81 0.17 2.73 -3.41 0 -3.49 0 -0.51 1.45 -0.60 1.45 3.24 2.73 3.24 2.81 5.20 1.70 c2.81 1.02 5.80 1.79 6.48 1.79 l1.28 0 1.88 1.79 1.96 1.79 2.81 0.68 c1.53 0.34 3.75 0.68 5.03 0.77 l2.13 0.09 3.15 -2.90z"/>
  <path d="M266.93 408.92 l-5.37 -2.73 0.43 -1.62 0.43 -1.70 -0.94 -1.70 -0.85 -1.70 1.53 0.68 c0.94 0.34 4.09 1.53 7.07 2.73 l5.54 2.05 7.24 0.60 7.33 0.51 -4.26 0.77 -4.26 0.68 -2.22 2.13 -2.13 2.05 -2.13 0 -2.05 0 -5.37 -2.73z"/>
  <path d="M423.75 409.01 l-4.18 -2.39 -4.86 -5.28 -4.77 -5.28 -3.58 -7.07 -3.66 -7.07 0.60 -0.60 0.68 -0.60 1.11 0.94 1.19 1.02 1.02 3.49 c0.60 1.96 2.05 5.03 3.15 6.82 1.11 1.79 2.05 3.66 2.05 4.09 0 0.43 1.79 2.39 3.92 4.26 l4.01 3.49 1.45 0 1.45 0 3.92 2.64 c2.22 1.45 4.01 2.73 4.01 2.90 0 0.09 -0.77 0.43 -1.62 0.68 l-1.62 0.43 -4.26 -2.47z"/>
  <path d="M467.64 403.55 c0.51 -0.94 1.79 -2.47 2.73 -3.32 l1.79 -1.62 0 -1.11 0 -1.11 2.56 -2.98 2.56 -2.90 1.79 -4.09 c0.94 -2.30 2.39 -5.54 3.15 -7.16 0.77 -1.62 1.45 -3.15 1.45 -3.41 0 -0.26 0.51 -1.19 1.02 -2.13 1.62 -3.07 3.58 -10.14 4.86 -17.39 l1.19 -7.07 1.02 -1.02 1.02 -0.94 -0.51 4.52 c-0.34 2.56 -1.88 9.12 -3.49 14.74 l-2.98 10.14 -3.49 7.07 -3.41 6.99 -4.69 6.14 c-2.56 3.32 -5.28 6.56 -6.05 7.24 l-1.36 1.11 0.85 -1.70z"/>
  <path d="M1074.20 379.18 l-1.36 -2.64 0.09 -5.80 0 -5.80 1.11 -2.39 c0.51 -1.36 1.79 -3.32 2.73 -4.35 l1.62 -1.96 1.19 0 1.11 0 -1.02 1.70 -1.11 1.79 1.19 0.68 1.11 0.77 -0.94 0.51 c-0.51 0.34 -0.94 0.94 -0.94 1.36 0 0.34 1.28 -0.60 2.90 -2.22 l2.90 -2.90 2.56 0 2.56 0 1.96 1.53 1.88 1.62 -3.49 0.51 -3.49 0.60 -1.70 2.22 c-1.79 2.30 -3.07 5.63 -3.92 10.82 l-0.51 3.15 -0.60 0 c-0.43 0 -1.11 -0.43 -1.70 -1.02 l-1.02 -1.02 0 2.73 0 2.73 -0.85 0 -0.77 0 -1.45 -2.64z"/>
  <path d="M407.47 376.62 c-0.94 -2.05 -2.47 -6.82 -3.41 -10.48 l-1.79 -6.73 -1.36 -10.74 -1.45 -10.74 0.51 -12.36 0.51 -12.36 1.36 -8.78 1.36 -8.78 2.22 -7.41 c1.19 -4.09 2.47 -8.69 2.81 -10.14 l0.68 -2.81 -0.68 0 c-0.34 0 -0.94 1.28 -1.36 2.81 l-0.85 2.73 -1.19 0 c-0.68 0 -1.79 0.34 -2.30 0.68 l-1.11 0.68 0 -1.19 c0 -1.11 2.98 -8.95 5.11 -13.55 l1.11 -2.39 1.11 0 c0.60 0 1.62 0.60 2.39 1.28 0.68 0.68 1.45 1.28 1.62 1.28 0.26 0 2.56 -3.15 5.11 -7.07 l4.77 -7.07 4.26 -4.01 4.35 -4.09 4.52 -2.05 c2.39 -1.19 5.11 -2.13 5.88 -2.13 0.77 0 1.62 -0.34 1.88 -0.77 l0.51 -0.77 -0.85 -2.22 -0.85 -2.22 3.49 0 3.49 0 2.47 2.47 2.47 2.47 0 2.98 0 2.98 -2.56 -0.94 -2.56 -0.94 0 -1.11 0 -1.11 -0.68 0 c-0.43 0 -1.02 0.26 -1.36 0.60 -0.26 0.34 -1.36 0.68 -2.39 0.85 l-1.88 0.34 -5.37 3.41 -5.37 3.49 -4.60 5.03 -4.60 4.94 -3.07 5.03 -3.07 5.11 1.45 2.56 1.45 2.56 -1.70 2.30 c-3.15 4.52 -4.60 6.82 -5.63 8.95 -0.60 1.19 -1.28 2.30 -1.53 2.56 -0.26 0.26 -0.51 1.02 -0.51 1.70 -0.09 0.68 -0.77 3.58 -1.62 6.39 -0.77 2.81 -2.22 9.38 -3.24 14.49 l-1.79 9.38 -0.09 14.91 0 14.91 1.53 8.52 c0.85 4.69 2.22 10.99 3.15 14.06 1.96 6.48 1.53 7.76 -0.77 2.47z"/>
  <path d="M430.74 376.02 c-1.36 -0.85 -5.45 -9.20 -5.45 -10.99 l0 -1.62 -1.36 -1.88 -1.36 -1.96 -0.68 -7.84 c-0.43 -4.35 -1.02 -13.55 -1.36 -20.63 l-0.60 -12.78 1.02 -9.38 c0.60 -5.11 1.79 -13.72 2.73 -19.01 l1.62 -9.55 1.28 -2.56 c0.77 -1.45 1.62 -2.56 1.96 -2.56 l0.68 0 -1.53 6.22 c-0.85 3.32 -2.39 10.74 -3.49 16.36 l-1.88 10.23 0.09 18.32 0 18.32 1.96 8.86 1.88 8.95 3.15 6.39 c1.70 3.58 3.24 6.73 3.41 7.16 l0.34 0.60 -0.77 0 c-0.34 0 -1.11 -0.34 -1.62 -0.68z"/>
  <path d="M513.49 372.44 c-0.34 -0.51 -0.94 -4.86 -1.36 -9.63 l-0.68 -8.69 -0.94 -42.10 -0.85 -42.02 1.45 -2.64 1.53 -2.56 4.18 -2.30 c2.39 -1.19 4.35 -2.64 4.52 -3.15 l0.34 -0.94 -4.86 1.62 c-2.64 0.94 -5.45 1.62 -6.14 1.62 l-1.19 0 1.11 -1.36 c1.28 -1.53 6.90 -4.52 10.40 -5.54 l2.47 -0.68 2.39 0.51 2.47 0.43 -1.19 1.28 c-0.68 0.68 -1.28 1.70 -1.28 2.22 l0 1.02 0.68 -0.94 0.60 -0.94 7.24 -0.60 7.24 -0.60 1.11 -1.45 1.11 -1.45 -2.39 -0.26 c-1.28 -0.17 -2.73 -0.68 -3.15 -1.11 l-0.85 -0.77 4.52 0 4.52 0 5.28 1.36 5.20 1.36 4.01 2.47 4.01 2.56 3.15 3.49 3.07 3.41 1.96 4.52 2.05 4.43 1.02 6.99 1.02 6.90 -0.60 0.60 -0.60 0.60 -0.68 -1.02 -0.68 -1.11 -0.17 -5.71 -0.17 -5.71 -2.64 -5.54 -2.64 -5.54 -4.43 -4.26 -4.43 -4.26 -3.49 -0.17 -3.49 -0.17 -0.51 0.68 -0.43 0.77 2.98 1.88 2.98 1.88 -0.43 0.68 -0.51 0.77 -1.45 -0.51 c-0.77 -0.26 -1.96 -0.94 -2.64 -1.45 l-1.19 -0.94 -8.69 0 -8.69 0 -1.19 0.94 -1.19 1.02 -3.84 0.60 -3.84 0.60 -4.09 2.22 -4.18 2.22 -1.28 2.56 -1.36 2.64 0.51 23.86 c0.34 13.13 0.85 35.63 1.19 50.11 l0.51 26.16 -0.94 0 c-0.51 0 -1.19 -0.43 -1.45 -0.85z"/>
  <path d="M132.53 370.23 l-3.41 -1.28 -2.73 -2.64 -2.81 -2.73 -3.41 -5.63 -3.41 -5.63 0 -1.45 c0 -0.85 -0.51 -2.39 -1.19 -3.41 l-1.19 -1.88 -0.94 -5.03 -0.94 -5.11 0 -7.16 0 -7.16 1.36 -5.28 1.28 -5.20 2.13 -3.58 2.05 -3.58 4.69 -4.01 4.69 -4.09 0 -9.80 c0 -5.45 0.26 -12.44 0.51 -15.60 l0.60 -5.80 2.81 -0.51 2.81 -0.51 2.64 1.11 2.56 1.19 0.09 1.70 c0.09 0.94 0 2.13 -0.09 2.56 -0.09 0.51 -0.34 6.22 -0.60 12.87 l-0.51 11.93 1.02 1.88 0.94 1.79 2.47 -0.43 2.47 -0.51 3.84 3.75 3.75 3.75 2.22 4.69 2.22 4.69 0.94 5.97 c0.51 3.24 1.11 6.82 1.36 7.84 l0.43 2.05 -3.49 -0.60 -3.41 -0.60 0 1.45 0 1.36 -0.85 -0.51 -0.85 -0.51 0 0.85 0 0.94 -1.70 0 -1.70 0 -0.43 -2.30 c-0.26 -1.36 -1.11 -4.69 -1.79 -7.50 l-1.28 -5.11 -2.64 -4.09 -2.64 -4.18 -3.07 -1.96 c-1.70 -1.11 -4.26 -2.22 -5.63 -2.47 l-2.64 -0.60 -4.09 1.79 -4.01 1.79 -1.70 2.73 c-1.70 2.90 -3.66 9.03 -3.07 9.72 0.26 0.17 1.28 -1.02 2.30 -2.73 1.11 -1.70 2.90 -4.01 4.09 -5.11 l2.22 -2.05 2.30 -0.51 2.39 -0.51 2.39 1.28 2.47 1.28 2.39 3.32 c1.28 1.88 3.07 5.28 3.92 7.67 l1.62 4.26 0.60 5.45 0.51 5.45 -0.94 4.77 -1.02 4.77 -2.30 2.98 c-1.28 1.62 -3.32 3.58 -4.60 4.35 l-2.22 1.36 -3.84 0 -3.84 0 -1.02 1.28 -1.11 1.36 1.62 1.19 1.62 1.19 3.24 0.51 3.15 0.60 3.32 -0.60 3.41 -0.60 -0.43 1.62 -0.43 1.53 -3.49 0.17 c-1.96 0.17 -3.66 0.43 -3.92 0.60 -0.17 0.26 0.34 1.36 1.28 2.56 l1.53 2.13 5.80 0.09 5.80 0 -0.51 0.85 -0.51 0.85 -4.01 -0.09 -4.01 0 -3.41 -1.28z"/>
  <path d="M1059.89 365.45 l4.26 -4.52 1.62 -4.01 1.53 -4.09 -1.28 -1.88 -1.28 -1.96 -4.18 -1.53 -4.18 -1.45 -5.11 -5.03 -5.11 -5.03 -1.79 -3.66 c-1.02 -2.05 -2.98 -6.39 -4.43 -9.72 l-2.73 -5.97 1.02 -0.34 1.02 -0.34 0.43 1.19 c0.94 3.07 8.10 16.02 10.40 18.92 l2.56 3.15 -0.60 1.02 -0.60 0.94 1.02 -0.60 0.94 -0.60 2.56 2.05 2.47 2.13 4.26 1.45 4.18 1.36 1.45 1.62 1.45 1.62 -0.60 3.24 c-0.34 1.70 -1.28 4.52 -2.13 6.22 l-1.53 2.98 -3.32 3.07 c-1.79 1.70 -4.01 3.32 -4.86 3.66 l-1.70 0.60 4.26 -4.52z"/>
  <path d="M591.48 360.85 c-1.45 -1.70 -3.07 -4.09 -3.58 -5.37 l-0.94 -2.22 -0.17 -4.26 c-0.09 -2.30 -0.26 -10.40 -0.34 -17.90 l-0.26 -13.64 -0.68 2.56 -0.68 2.56 0 -4.69 c-0.09 -2.56 0.26 -14.49 0.68 -26.42 l0.77 -21.73 0.94 -5.28 1.02 -5.37 0.77 0 c0.43 0 0.77 0.34 0.77 0.77 0 0.43 0.60 0.94 1.28 1.28 l1.36 0.51 1.45 -1.79 c0.77 -1.02 2.56 -2.90 3.92 -4.18 l2.39 -2.30 -2.64 -0.51 -2.64 -0.51 0.51 -1.28 0.51 -1.28 3.92 -1.28 c5.03 -1.62 10.57 -2.90 19.77 -4.43 l7.24 -1.19 6.99 0 6.90 0 2.64 2.22 2.64 2.13 0.85 3.24 0.85 3.24 -0.51 2.73 -0.51 2.64 -0.77 0 -0.77 0 -0.09 -1.28 c-0.09 -0.68 -0.17 -1.79 -0.26 -2.30 l-0.09 -1.11 -1.88 -0.85 -1.96 -0.85 0 -1.88 0 -1.88 -1.62 -0.94 -1.70 -0.85 -0.60 1.02 -0.60 0.94 0.85 -0.51 0.94 -0.60 0.51 1.28 0.43 1.19 -0.77 0.51 c-0.43 0.26 -5.11 1.02 -10.40 1.62 -5.28 0.68 -12.53 1.88 -16.02 2.73 l-6.31 1.45 -3.24 1.62 -3.15 1.62 -1.36 4.09 -1.36 4.09 -0.68 8.44 -0.77 8.44 0.68 34.09 c0.34 18.75 0.51 34.26 0.34 34.43 -0.26 0.26 -0.85 -0.09 -1.36 -0.60 -1.45 -1.45 -1.96 -1.28 -3.07 1.02 l-0.94 2.05 0.51 1.96 c0.26 1.11 1.28 2.90 2.22 4.01 0.94 1.02 1.53 1.88 1.28 1.88 -0.26 0 -1.70 -1.36 -3.24 -3.07z"/>
  <path d="M643.81 354.97 l2.98 -3.92 -0.09 -3.15 -0.09 -3.15 -1.28 -1.45 -1.28 -1.53 -1.19 0 -1.11 0 0 -1.02 0 -1.02 -1.19 1.70 -1.19 1.70 -7.07 3.32 -7.16 3.32 -4.77 0.34 -4.86 0.34 -1.53 -0.85 -1.62 -0.94 2.39 -0.85 c1.36 -0.51 3.24 -0.94 4.26 -0.94 2.56 0 8.44 -1.70 9.72 -2.73 l1.11 -0.85 -0.43 -0.77 -0.43 -0.68 -4.60 1.62 -4.52 1.53 -2.22 -0.43 -2.22 -0.43 -1.28 -1.45 -1.28 -1.36 3.84 0.26 3.75 0.34 0 -0.94 0 -0.94 1.53 0 c0.77 0 4.43 -0.94 8.10 -2.13 l6.65 -2.13 3.41 0 3.41 0 2.05 2.05 2.05 2.05 0.85 3.24 0.85 3.32 -0.77 3.24 -0.68 3.32 -2.05 2.13 c-1.02 1.19 -2.64 2.47 -3.49 2.90 l-1.53 0.85 2.98 -3.92z"/>
  <path d="M953.27 351.05 c3.75 -4.01 8.52 -9.29 10.48 -11.68 l3.75 -4.43 -0.94 0 -1.02 0 0.94 -1.70 c0.51 -0.85 1.02 -2.81 1.19 -4.18 l0.26 -2.56 1.45 -1.36 c0.77 -0.77 1.36 -1.53 1.36 -1.62 0 -0.17 1.19 -4.26 2.73 -9.12 l2.73 -8.86 0 -17.05 0.09 -17.05 -2.05 -6.39 c-1.02 -3.49 -2.30 -6.73 -2.64 -7.24 -0.34 -0.43 -0.94 -1.79 -1.28 -2.98 -0.34 -1.19 -2.64 -5.11 -5.03 -8.69 l-4.43 -6.56 -4.18 -3.07 -4.26 -2.98 -0.26 1.28 c-0.17 0.68 -0.34 1.28 -0.43 1.28 -0.09 -0.09 -2.56 -0.68 -5.54 -1.53 l-5.37 -1.45 0.26 -0.85 0.26 -0.85 3.84 0 3.92 0.09 4.77 2.30 4.69 2.30 4.09 3.58 4.09 3.58 2.73 4.35 c5.54 8.78 8.35 18.84 9.38 33.66 l0.60 8.10 -0.94 9.55 -0.94 9.46 -1.70 6.48 c-2.05 8.18 -5.03 15.43 -8.61 21.48 l-2.90 4.77 -5.37 5.88 c-2.98 3.15 -6.99 7.07 -8.95 8.61 l-3.58 2.73 6.82 -7.24z"/>
  <path d="M659.66 353.78 l-0.85 -1.70 0 -15.17 c0.09 -8.35 0.43 -27.02 0.85 -41.59 l0.77 -26.42 -1.70 -6.65 -1.70 -6.65 0.60 -3.07 0.60 -3.15 3.92 -3.75 3.92 -3.84 4.69 -2.13 c2.56 -1.11 6.73 -2.56 9.20 -3.24 l4.52 -1.19 8.27 -0.51 8.27 -0.51 5.80 1.36 c6.90 1.62 10.91 3.58 15.68 7.76 l3.58 3.07 2.81 5.71 2.81 5.71 0 10.23 0 10.23 -3.58 7.24 -3.58 7.24 -6.22 5.97 -6.22 5.97 3.92 -4.26 c2.13 -2.30 5.45 -6.48 7.41 -9.12 l3.58 -4.86 1.62 -4.18 1.62 -4.09 0.60 -6.82 0.60 -6.82 -1.53 -4.86 -1.53 -4.86 -0.68 0 -0.68 0 0 -1.28 c0 -2.22 -5.63 -9.20 -10.57 -13.21 l-1.53 -1.19 -5.71 -0.26 c-7.41 -0.43 -7.76 -0.43 -7.76 -1.11 l0 -0.51 -7.59 0 -7.59 0.09 -0.68 0.68 c-1.11 1.02 -0.17 1.28 9.89 2.13 l9.80 0.77 2.56 1.19 2.56 1.19 -6.82 0.17 c-3.75 0.09 -10.48 0.60 -14.91 1.19 l-8.10 1.02 -2.30 1.11 c-1.28 0.68 -4.01 2.30 -6.05 3.75 l-3.75 2.56 -1.11 2.56 -1.02 2.56 0.60 3.15 c0.34 1.79 1.11 4.43 1.79 5.80 l1.19 2.56 -0.34 30.26 c-0.17 16.62 -0.43 35.20 -0.43 41.16 l-0.09 10.91 -1.45 -0.26 -1.53 -0.26 -0.94 -2.98 c-0.51 -1.62 -1.28 -2.98 -1.70 -3.15 l-0.77 -0.26 -0.09 3.41 -0.09 3.41 -1.02 1.11 -0.94 1.19 0.60 0.51 0.51 0.60 -0.51 0 c-0.26 0 -0.94 -0.77 -1.45 -1.62z"/>
  <path d="M1035.17 350.20 l-3.84 -5.20 -0.60 4.43 -0.60 4.52 -2.13 -4.18 c-1.19 -2.30 -3.49 -8.01 -5.11 -12.70 l-2.90 -8.52 -0.34 -3.32 -0.34 -3.41 0.85 0.85 c0.51 0.51 1.45 3.15 2.13 5.88 1.53 5.80 1.62 5.88 3.32 5.28 l1.28 -0.51 -1.53 -4.60 c-0.85 -2.47 -1.88 -6.22 -2.22 -8.18 l-0.60 -3.66 1.02 0.34 1.11 0.34 2.73 8.01 c4.35 12.61 8.86 23.95 10.74 27.02 2.81 4.52 1.28 3.24 -2.98 -2.39z"/>
  <path d="M991.96 349.69 c-0.09 -0.85 -0.09 -1.88 0 -2.22 l0.09 -0.68 -1.45 0.68 c-0.85 0.43 -2.30 0.68 -3.24 0.68 l-1.70 0 -0.26 -2.22 c-0.34 -2.81 4.43 -54.63 6.31 -68.69 0.77 -5.54 1.53 -12.44 1.79 -15.26 l0.43 -5.28 -1.28 -2.39 c-1.28 -2.39 -1.70 -5.11 -1.53 -8.35 l0.09 -1.70 1.53 1.70 c0.77 0.85 1.96 2.56 2.47 3.75 l1.02 2.13 -0.43 -2.30 -0.51 -2.39 0.51 -2.13 0.51 -2.05 2.39 -2.22 2.30 -2.30 4.52 -2.05 4.52 -2.05 -0.43 -0.68 -0.43 -0.77 -4.43 0.43 -4.43 0.43 0.43 -1.19 0.43 -1.19 3.15 -1.02 c1.70 -0.60 5.45 -1.45 8.44 -1.96 l5.28 -0.85 8.44 0 8.35 0 5.20 1.36 5.11 1.28 4.86 2.47 4.77 2.39 4.77 5.20 4.77 5.11 1.88 4.94 1.88 4.94 0.43 7.76 0.51 7.67 -1.53 5.11 -1.45 5.03 -2.98 5.80 -3.07 5.80 -5.54 5.97 -5.54 5.97 -3.92 2.64 -3.92 2.73 9.03 -9.55 9.03 -9.46 2.64 -5.37 c1.36 -2.98 3.07 -6.65 3.58 -8.18 l1.11 -2.73 -0.09 -7.16 -0.09 -7.16 -1.19 -4.26 c-0.77 -2.30 -1.88 -5.37 -2.64 -6.82 -0.77 -1.45 -1.36 -3.41 -1.36 -4.35 l0 -1.62 -2.64 -2.73 -2.73 -2.64 -3.49 -1.45 c-1.96 -0.77 -3.84 -1.28 -4.35 -1.11 -0.43 0.17 -1.36 0.34 -1.96 0.34 l-1.11 0 0.51 1.36 c0.34 0.77 0.60 1.79 0.68 2.22 l0.17 0.85 -1.28 -0.34 c-0.68 -0.17 -6.22 -0.26 -12.36 -0.26 l-11.08 0.09 -4.69 0.85 -4.69 0.77 -1.28 -0.68 -1.28 -0.68 -4.43 2.05 -4.35 2.13 -0.43 1.19 -0.51 1.19 1.28 0.94 1.19 1.02 0 2.47 0 2.47 -0.85 0 -0.85 0 1.36 2.13 1.36 2.05 -0.43 4.94 c-0.26 2.73 -0.85 7.41 -1.28 10.48 -0.51 3.07 -1.53 13.64 -2.30 23.44 -1.62 20.97 -3.41 39.12 -4.86 48.41 l-0.94 6.56 -0.77 0 -0.68 0 -0.09 -1.45z"/>
  <path d="M803.10 344.32 l-2.73 -1.62 -1.45 -2.81 -1.45 -2.73 -1.11 -7.76 c-0.68 -4.18 -1.19 -8.18 -1.19 -8.78 l0 -1.11 -4.86 0.09 c-2.73 0.09 -5.28 0.09 -5.71 0.09 l-0.68 -0.09 1.02 -1.28 1.02 -1.28 3.58 0 3.58 0 1.70 1.28 1.79 1.19 0.68 4.52 c0.34 2.47 0.85 6.73 1.19 9.55 l0.60 4.94 1.45 1.11 c0.77 0.60 1.45 1.45 1.45 1.88 0 0.43 0.85 1.28 1.96 1.79 l1.88 1.02 5.11 0.77 5.11 0.77 -5.11 0.09 -5.11 0.09 -2.73 -1.70z"/>
  <path d="M932.39 339.20 l-1.19 -0.77 1.62 -0.51 c0.94 -0.34 2.64 -1.02 3.84 -1.53 l2.13 -0.94 -2.13 -0.26 c-1.19 -0.17 -3.75 -1.11 -5.71 -2.13 l-3.66 -1.96 0 -0.85 c0 -1.11 -4.18 -5.63 -6.39 -6.90 l-1.62 -0.85 0 -20.03 0 -19.94 1.96 -6.39 c2.90 -9.72 5.03 -13.64 7.41 -13.64 l1.02 0 -2.90 5.80 -2.90 5.71 -1.88 8.10 -1.79 8.10 -0.09 10.65 0 10.65 1.79 5.97 1.88 5.97 2.64 3.15 2.64 3.15 2.90 0.60 2.81 0.51 1.70 -0.51 c2.47 -0.85 6.48 -5.11 8.95 -9.72 l2.13 -4.01 1.70 -7.67 c0.94 -4.18 2.13 -10.40 2.73 -13.81 l1.11 -6.14 -0.51 -9.89 -0.51 -9.89 0.77 0.51 0.85 0.51 0 -0.85 0 -0.94 1.11 0.26 1.02 0.17 -0.26 -2.05 -0.34 -1.96 1.19 0.34 1.11 0.34 2.05 5.97 1.96 5.88 0.43 8.95 0.51 8.95 -1.02 7.50 -1.02 7.50 -1.62 5.28 c-0.94 2.81 -1.45 5.37 -1.28 5.54 0.17 0.17 0.77 -1.28 1.36 -3.15 0.60 -1.96 1.45 -3.84 1.96 -4.26 l0.94 -0.77 -0.17 3.07 -0.09 3.15 -1.28 2.39 c-0.68 1.36 -2.39 3.58 -3.66 5.11 -1.36 1.45 -3.58 4.18 -4.86 5.97 l-2.39 3.24 -4.43 2.13 -4.43 2.05 -3.41 0 -3.41 0 -1.28 -0.85z"/>
  <path d="M1087.67 336.99 c-1.02 -0.68 -2.47 -2.39 -3.15 -3.75 l-1.28 -2.47 0 -7.07 c0 -3.92 0.60 -14.57 1.28 -23.69 0.60 -9.12 1.79 -25.65 2.56 -36.65 0.77 -10.99 1.62 -23.95 2.05 -28.81 l0.68 -8.78 1.36 -1.45 1.45 -1.36 0.51 2.64 0.51 2.73 1.02 -0.77 c0.51 -0.43 2.56 -2.13 4.52 -3.92 l3.66 -3.07 -0.51 -0.77 -0.43 -0.77 -2.56 0 -2.47 0 0 -1.19 0 -1.11 3.92 -0.60 c2.22 -0.26 5.97 -0.51 8.44 -0.51 l4.43 0 2.81 1.96 2.81 1.88 1.62 2.90 c0.85 1.53 1.45 3.07 1.19 3.24 -0.17 0.26 -1.02 -0.77 -1.70 -2.22 l-1.36 -2.56 -3.15 -0.85 -3.15 -0.94 -0.85 0.85 c-0.43 0.43 -0.85 1.70 -0.94 2.73 l-0.17 1.96 -2.90 0.26 -2.90 0.26 -1.88 1.79 -1.88 1.79 -0.85 4.35 c-0.51 2.39 -1.53 11.25 -2.22 19.69 -2.39 27.61 -5.71 60.09 -6.82 66.73 l-1.11 6.56 -0.09 -9.38 -0.09 -9.29 -0.77 0.77 c-0.43 0.51 -1.02 2.05 -1.19 3.41 -0.26 1.45 -0.85 4.43 -1.36 6.65 -0.51 2.22 -1.02 6.14 -1.19 8.52 l-0.17 4.52 1.45 2.22 1.45 2.13 2.64 0.51 2.64 0.60 1.28 -1.11 c0.68 -0.51 2.05 -1.79 2.90 -2.64 l1.62 -1.62 2.22 -9.89 c1.19 -5.45 2.56 -11.25 2.98 -12.87 1.11 -4.18 3.15 -13.47 3.84 -17.05 0.51 -3.15 3.24 -14.91 6.82 -29.91 1.19 -4.94 2.47 -11.34 2.90 -14.06 0.68 -4.43 2.05 -12.02 3.15 -17.98 l0.34 -1.96 0.85 0 0.85 0 0 3.24 0 3.15 -5.11 22.59 c-2.73 12.44 -7.50 33.92 -10.57 47.73 -3.07 13.81 -6.22 26.76 -6.99 28.81 l-1.36 3.58 -1.53 0.85 -1.62 0.85 -3.24 0 -3.32 0 -1.88 -1.36z"/>
  <path d="M747.27 330.51 l-0.26 -3.66 -2.13 0 -2.13 -0.09 -0.68 0.94 -0.68 0.85 0.51 -2.98 c0.34 -1.62 1.19 -4.18 1.88 -5.71 l1.19 -2.64 3.07 0.34 c1.70 0.26 3.41 0.60 3.92 0.94 l0.77 0.51 -0.34 3.58 c-0.26 1.96 -1.11 5.37 -1.96 7.59 l-1.53 3.92 -0.68 0 -0.68 0 -0.26 -3.58z"/>
  <path d="M903.58 326.25 l-2.56 -6.22 -0.85 -5.54 c-0.51 -3.07 -1.11 -10.06 -1.36 -15.68 -0.26 -5.54 -0.68 -10.31 -0.85 -10.57 -0.26 -0.17 -1.02 0.26 -1.79 0.94 l-1.28 1.36 0 3.32 0 3.32 -1.11 0 -1.11 0 0.60 -6.22 c0.68 -6.65 3.15 -19.09 4.09 -20.11 l0.51 -0.60 1.96 0.43 1.88 0.51 0.09 2.30 0 2.22 2.64 -6.39 c1.36 -3.49 2.73 -7.33 2.98 -8.52 l0.34 -2.13 -0.60 0.68 -0.60 0.60 -1.19 -0.94 -1.11 -0.94 0 -1.70 0 -1.70 1.88 -2.64 c1.02 -1.53 1.88 -2.73 1.88 -2.81 0.09 -0.09 1.19 -0.34 2.56 -0.68 l2.47 -0.60 -0.51 1.28 -0.51 1.36 0.94 0 c0.60 0 2.22 -1.19 3.75 -2.64 l2.73 -2.64 -0.43 -1.62 c-0.51 -1.88 -0.68 -1.88 -2.81 -0.77 l-1.53 0.85 -0.51 -1.28 -0.43 -1.19 3.15 -2.47 c1.70 -1.28 4.18 -3.07 5.45 -3.84 l2.30 -1.45 2.81 0.34 2.73 0.34 0.34 0.94 0.34 0.94 5.37 0 5.45 0 0.43 0.77 c0.26 0.43 1.79 1.02 3.32 1.28 1.62 0.26 3.58 1.02 4.43 1.70 l1.62 1.19 -6.14 -0.51 -6.14 -0.43 0 0.85 0 0.94 -1.45 0.51 c-0.85 0.26 -3.24 1.45 -5.28 2.64 l-3.75 2.13 -1.88 -0.51 -1.88 -0.43 -3.66 4.09 -3.58 4.09 -3.75 6.39 -3.75 6.39 -2.47 7.67 c-1.36 4.26 -2.98 10.14 -3.58 13.21 l-1.11 5.54 0.09 11.08 0 11.08 1.79 8.01 c1.02 4.43 1.70 8.18 1.53 8.35 -0.17 0.17 -1.45 -2.47 -2.90 -5.88z"/>
  <path d="M821.93 323.52 l-0.51 -2.22 -1.02 0.60 -0.94 0.51 0.51 -0.60 0.60 -0.60 -1.28 -5.28 c-0.68 -2.90 -1.79 -7.41 -2.39 -9.97 -1.53 -6.48 -4.52 -18.24 -5.97 -23.86 -0.68 -2.56 -1.88 -7.50 -2.56 -10.91 l-1.19 -6.22 -2.22 -4.60 -2.13 -4.60 0.09 -3.66 0.17 -3.66 -1.02 -3.41 -0.94 -3.49 -1.70 -1.88 -1.70 -1.79 0 -1.62 0 -1.62 -1.45 -1.36 -1.53 -1.28 -7.24 -0.34 -7.24 -0.26 0 1.28 0 1.28 3.84 0.26 3.84 0.26 0.60 1.02 c0.94 1.53 0.85 2.30 -0.43 2.30 l-1.19 0 0 1.11 c0 0.60 -0.85 2.39 -1.96 3.84 l-2.05 2.73 -1.02 0 -1.11 0 -1.70 2.47 -1.70 2.39 -4.60 13.55 -4.60 13.55 0.34 1.11 0.43 1.02 -1.19 0 -1.28 0 -4.35 13.98 -4.43 13.89 -1.53 1.45 -1.62 1.36 -4.35 0 -4.43 0 0 -0.85 c0 -0.94 0.60 -1.19 4.43 -2.05 l2.30 -0.51 0.85 -1.53 c0.43 -0.77 1.02 -2.81 1.28 -4.43 l0.60 -2.98 -0.77 1.11 -0.77 1.11 -1.45 -1.45 -1.53 -1.45 0.51 -2.64 c0.34 -1.45 0.85 -2.90 1.19 -3.24 l0.77 -0.77 2.30 1.88 c1.19 0.94 2.22 1.45 2.13 1.02 -0.09 -0.34 0.09 -1.36 0.51 -2.22 0.34 -0.85 2.64 -7.76 5.11 -15.34 l4.52 -13.81 -0.43 -1.11 -0.43 -1.11 -1.11 0.94 -1.19 0.94 -0.94 -1.79 -0.94 -1.79 1.28 -4.01 1.36 -4.09 1.70 0 1.70 0 0 1.96 0 1.88 0.85 0.51 0.85 0.51 -0.09 -0.68 c-0.09 -0.34 0.26 -1.79 0.85 -3.24 0.60 -1.36 1.28 -3.92 1.53 -5.71 l0.43 -3.07 -2.13 -1.19 -2.22 -1.11 1.88 -3.41 1.88 -3.32 2.73 -1.88 2.73 -1.88 5.63 -0.60 5.63 -0.60 4.01 2.05 4.01 1.96 1.79 2.73 1.79 2.64 2.30 8.44 c6.99 24.80 20.28 78.75 19.69 79.35 -0.17 0.26 -0.60 -0.60 -0.94 -1.88z"/>
  <path d="M534.72 321.39 c0.34 -0.51 2.81 -2.47 5.45 -4.26 4.94 -3.41 9.12 -7.50 11.08 -10.91 1.36 -2.56 1.28 -2.81 -0.60 -2.81 l-1.62 0 -0.34 -1.02 -0.34 -1.02 1.62 -4.52 1.70 -4.52 1.53 0 1.45 0 0.34 1.02 0.34 1.02 1.02 -0.68 1.02 -0.60 0 -5.11 0 -5.11 1.53 0.26 1.45 0.26 0 7.67 0 7.67 -2.39 4.86 -2.39 4.86 -3.66 4.09 -3.75 4.18 -4.18 2.22 c-2.22 1.19 -5.37 2.47 -6.99 2.81 l-2.90 0.60 0.60 -0.94z"/>
  <path d="M634.86 309.80 l2.64 -3.41 0 -2.56 0 -2.64 -0.94 -0.94 -0.85 -0.85 -7.76 1.96 -7.67 2.05 -4.18 0 -4.09 0 -0.51 -0.85 -0.51 -0.85 1.53 -0.51 c0.85 -0.26 2.47 -0.94 3.66 -1.45 l2.13 -0.94 -2.05 -0.34 c-1.88 -0.26 -4.35 -2.05 -4.35 -2.98 0 -0.26 2.39 -0.85 5.37 -1.36 l5.45 -0.94 5.54 0 5.63 0 2.22 2.64 2.22 2.64 0 4.18 0 4.18 -3.07 3.24 -3.07 3.15 2.64 -3.41z"/>
  <path d="M332.22 307.07 l-1.19 -1.53 0.26 -1.45 0.34 -1.36 2.13 -1.36 2.05 -1.36 0 -5.11 0 -5.11 1.19 0 c0.68 0 2.05 0.68 3.07 1.53 l1.88 1.53 -0.94 6.31 -1.02 6.31 -1.36 1.53 -1.36 1.53 -1.88 0 -1.88 0 -1.28 -1.45z"/>
  <path d="M767.98 307.84 l-1.11 -0.77 0.68 -0.51 c1.70 -0.94 10.82 -2.22 20.20 -2.73 l9.97 -0.60 0 -0.51 c0 -0.34 -1.36 -6.82 -3.15 -14.40 l-3.07 -13.81 -0.85 0.51 -0.77 0.43 0.60 5.28 0.60 5.20 -0.94 -0.85 -0.94 -0.94 -1.28 -6.73 c-0.68 -3.75 -1.62 -8.44 -1.96 -10.40 l-0.77 -3.49 1.88 -1.02 1.88 -1.02 1.62 0.34 1.62 0.26 0.85 1.96 0.85 1.88 1.28 0 1.28 0 -1.11 0.77 -1.11 0.68 2.05 8.44 c1.19 4.60 2.73 11.51 3.58 15.26 0.77 3.75 1.79 8.10 2.30 9.55 l0.77 2.81 -0.51 1.70 c-0.26 0.94 -0.77 1.70 -1.11 1.79 -0.34 0 -1.70 0.17 -3.15 0.34 -1.36 0.17 -8.52 0.51 -15.77 0.85 l-13.21 0.51 -1.19 -0.77z"/>
  <path d="M690.26 301.36 l2.05 -2.22 -0.77 -0.17 c-0.43 0 -1.11 -0.17 -1.62 -0.26 -0.43 -0.17 -1.45 -0.26 -2.22 -0.34 l-1.36 -0.09 0 -1.19 0 -1.28 2.05 -0.51 c1.19 -0.26 3.49 -1.36 5.20 -2.47 1.70 -1.11 3.58 -2.05 4.01 -2.22 0.51 -0.09 1.28 -0.43 1.88 -0.60 0.60 -0.26 1.53 -0.26 2.05 -0.09 l1.02 0.34 -1.45 1.36 -1.36 1.45 0 1.45 0 1.53 3.92 -3.75 c2.13 -2.13 4.43 -4.86 5.11 -6.14 l1.28 -2.39 -1.70 0 -1.62 0 -0.51 1.36 -0.51 1.36 -1.19 -0.94 -1.19 -1.02 2.13 -4.86 2.22 -4.77 0.43 -4.01 0.34 -4.09 -0.94 -2.73 c-1.11 -3.24 -0.77 -3.92 1.02 -2.05 l1.36 1.36 1.79 -1.11 1.70 -1.11 1.53 0.94 1.45 0.94 1.11 4.18 1.11 4.18 -0.51 4.26 c-0.26 2.39 -0.51 5.11 -0.68 6.14 l-0.17 1.79 -0.51 -0.34 -0.60 -0.34 -0.43 1.11 c-0.26 0.60 -2.81 4.09 -5.71 7.67 l-5.28 6.56 -1.70 0.94 -1.70 0.94 0.60 -1.02 0.60 -1.02 -3.32 2.13 -3.32 2.13 -3.75 0.60 -3.84 0.60 2.05 -2.22z"/>
  <path d="M1021.70 302.90 l-0.68 -0.60 0.94 -1.11 c0.43 -0.51 2.98 -2.13 5.63 -3.41 l4.86 -2.30 4.69 -4.60 4.69 -4.52 -0.60 -0.60 -0.60 -0.60 -2.39 2.22 c-1.28 1.11 -3.58 2.64 -5.11 3.24 l-2.81 1.11 -0.51 -0.51 -0.51 -0.60 3.84 -4.09 c2.13 -2.30 4.60 -5.45 5.37 -7.07 0.85 -1.62 1.79 -3.07 2.05 -3.32 0.26 -0.26 1.19 -1.70 2.05 -3.24 l1.45 -2.90 0 -2.64 c0 -1.53 -0.26 -3.58 -0.51 -4.60 l-0.51 -1.96 -0.94 0.60 -0.85 0.51 0.60 -1.02 0.60 -0.94 -3.41 -3.32 -3.41 -3.32 0.51 -0.51 0.51 -0.43 2.39 1.36 2.47 1.45 0 1.45 0 1.45 1.28 1.02 1.28 1.02 0.09 -0.68 c0.26 -2.22 1.45 4.18 1.53 8.18 l0.09 4.69 0.77 1.11 0.68 1.19 0.51 -3.32 c0.34 -1.79 0.60 -4.26 0.60 -5.54 l0 -2.39 1.19 0 1.19 0 0.60 3.92 0.51 3.92 -0.51 3.49 -0.60 3.58 -2.22 4.26 c-1.11 2.39 -3.24 5.71 -4.69 7.50 l-2.56 3.24 -5.97 4.77 -5.88 4.77 -3.58 0.34 -3.49 0.43 -0.60 -0.68z"/>
  <path d="M439.94 297.27 l-1.88 -3.66 -0.68 -5.11 -0.77 -5.11 -1.02 2.56 c-0.51 1.45 -1.28 3.15 -1.62 3.84 l-0.51 1.28 -0.34 -4.18 c-0.17 -2.30 -0.09 -5.11 0.26 -6.22 l0.43 -1.96 1.19 0 1.19 0 0.51 1.28 c0.26 0.68 0.85 1.28 1.28 1.28 l0.77 0 1.53 -4.77 1.53 -4.86 3.15 -4.09 3.24 -4.01 1.79 -0.60 1.70 -0.51 0 -0.94 0 -0.85 -1.45 0.60 c-0.85 0.34 -2.64 0.94 -4.01 1.36 l-2.56 0.77 -0.60 -0.94 -0.60 -0.94 -2.81 4.69 c-1.53 2.64 -2.98 4.60 -3.15 4.43 -0.60 -0.51 4.60 -8.35 6.82 -10.40 1.11 -1.02 3.84 -2.81 6.14 -4.01 l4.18 -2.22 5.28 0 5.28 0 5.11 2.56 5.20 2.56 3.92 4.26 4.01 4.26 3.32 6.99 c1.88 3.84 3.41 7.50 3.41 8.10 l0 1.11 -0.85 0 -0.85 0 -0.17 -1.45 c-0.17 -2.90 -0.34 -3.24 -1.62 -5.37 -0.77 -1.19 -2.64 -4.18 -4.26 -6.73 -1.62 -2.47 -2.90 -4.94 -2.90 -5.45 0 -0.43 -0.77 -1.28 -1.70 -1.79 -0.85 -0.51 -2.39 -1.79 -3.24 -2.81 l-1.53 -1.96 -1.62 0 c-0.85 0 -1.79 0.34 -2.05 0.77 l-0.51 0.68 -2.22 -0.43 -2.30 -0.43 0.60 1.02 c0.34 0.51 1.02 0.94 1.45 0.94 0.43 0 1.62 0.68 2.56 1.53 l1.70 1.62 -6.05 0.09 -5.97 0.17 -3.32 1.62 -3.32 1.70 -2.64 3.32 c-1.45 1.88 -3.49 5.20 -4.52 7.50 l-1.88 4.18 -0.09 9.12 c0 5.11 0 9.20 0 9.20 0 0 -0.85 -1.62 -1.96 -3.58z"/>
  <path d="M505.14 300.17 l-0.77 -1.11 -0.60 -12.53 -0.60 -12.53 0.51 -1.96 0.51 -2.05 1.19 1.62 1.28 1.53 -0.43 14.06 -0.43 14.06 -0.68 -1.11z"/>
  <path d="M135.34 255.09 l-4.09 -0.34 0 -1.88 c0 -3.41 3.32 -15.85 6.31 -23.44 3.84 -10.06 7.59 -17.30 12.61 -24.55 l4.09 -6.05 6.31 -6.05 6.31 -6.14 5.37 -2.56 5.45 -2.56 4.52 0 4.43 0 -10.14 10.06 -10.14 9.97 -4.69 7.24 c-5.11 7.93 -9.38 16.19 -12.70 24.72 l-2.22 5.54 -1.88 8.35 -1.88 8.27 -1.88 -0.17 c-0.94 -0.09 -3.58 -0.26 -5.80 -0.43z"/>
  <path d="M823.04 244.09 l-0.60 -0.60 0 -3.15 0 -3.24 -1.28 -1.02 -1.28 -1.02 -1.28 0.43 -1.19 0.51 -0.51 -0.77 -0.43 -0.68 2.22 -2.64 2.22 -2.64 4.35 0.09 4.43 0.09 -2.30 0.77 -2.22 0.85 -0.51 1.36 c-0.34 0.77 -0.43 1.53 -0.26 1.70 0.17 0.17 6.65 -0.34 14.32 -1.02 7.67 -0.77 21.31 -1.70 30.17 -2.13 8.95 -0.43 17.90 -1.02 19.86 -1.36 l3.75 -0.60 -0.43 -1.96 -0.34 -2.05 0.94 0 c1.70 0 4.77 2.56 6.05 5.11 l1.28 2.47 0 2.30 0 2.30 -2.13 -2.30 -2.13 -2.30 -0.85 0.51 -0.94 0.60 -1.28 -1.11 -1.28 -1.02 0.26 1.11 0.26 1.11 -4.69 0.26 c-2.56 0.17 -8.86 0.51 -14.06 0.77 -5.11 0.26 -16.11 0.85 -24.29 1.19 l-14.91 0.77 -3.58 1.45 c-2.05 0.77 -3.66 1.70 -3.66 2.05 0 0.26 -0.68 1.36 -1.53 2.47 l-1.53 1.96 -0.60 -0.60z"/>
  <path d="M167.47 139.86 c-0.17 -0.43 -0.26 -2.90 -0.09 -5.63 l0.34 -4.77 1.53 -1.70 c2.30 -2.56 17.13 -12.19 25.91 -16.79 l8.10 -4.26 10.23 -3.41 10.23 -3.41 8.01 -1.36 8.10 -1.36 7.67 0 7.76 0 8.10 1.28 c4.43 0.77 9.29 1.70 10.74 2.13 l2.64 0.85 2.13 2.39 2.22 2.30 2.64 6.22 2.64 6.31 -0.51 0.77 -0.43 0.77 -2.47 0 c-1.36 0 -3.49 -0.43 -4.86 -0.94 l-2.39 -0.85 1.62 -1.19 1.53 -1.19 -2.90 -0.51 -2.90 -0.60 -5.45 -3.75 -5.45 -3.75 -4.69 0 c-2.64 0.09 -6.48 0.43 -8.52 0.77 l-3.66 0.77 -4.43 4.26 -4.35 4.26 -5.11 0.43 c-2.81 0.26 -8.35 0.94 -12.27 1.45 l-7.24 0.94 -5.11 1.70 -5.20 1.79 -1.79 1.62 -1.70 1.62 -1.96 0 -1.96 0 -8.78 4.18 c-4.77 2.30 -10.65 5.37 -13.04 6.82 l-4.35 2.56 -0.51 -0.68z"/>
 </g>
 <g fill="#65a594">
  <path d="M114.63 448.55 c-0.94 -0.17 -3.32 -0.94 -5.37 -1.70 l-3.58 -1.36 0.94 -1.11 0.94 -1.11 2.05 0.85 c1.19 0.43 2.90 0.77 3.84 0.77 l1.62 0 0 -0.77 0 -0.85 -1.79 -0.51 -1.88 -0.60 -3.75 -3.49 c-2.13 -1.96 -4.35 -4.52 -5.03 -5.80 l-1.19 -2.39 0.77 -0.43 0.68 -0.51 4.86 2.64 4.86 2.64 5.11 0.43 5.11 0.51 -1.53 1.70 -1.53 1.70 6.39 -0.43 6.39 -0.43 4.01 -1.88 4.01 -1.96 3.84 -3.32 c3.58 -3.15 5.63 -4.09 5.63 -2.64 0 0.34 -1.28 2.90 -2.81 5.71 l-2.90 5.11 -4.09 3.15 c-2.22 1.70 -5.11 3.58 -6.31 4.09 -1.19 0.60 -2.90 1.36 -3.66 1.79 l-1.53 0.77 -6.14 -0.09 c-3.41 -0.09 -6.99 -0.26 -7.93 -0.51z"/>
  <path d="M116.25 432.10 c-1.45 -0.34 -4.18 -1.45 -6.14 -2.56 l-3.49 -1.96 0.43 -0.77 0.43 -0.68 4.43 0 4.43 0 4.26 -2.05 4.26 -1.96 3.24 -3.58 3.24 -3.66 1.79 -3.92 1.70 -4.01 0.43 -5.37 0.51 -5.37 0.94 0.34 0.94 0.34 1.02 3.32 0.94 3.32 0.09 3.92 0.09 3.92 -1.19 3.84 -1.11 3.84 -2.73 4.01 -2.73 4.01 -3.41 2.22 -3.32 2.22 -3.24 0.51 -3.15 0.60 -2.64 -0.51z"/>
  <path d="M338.35 422.30 l0 -2.05 1.53 -0.77 c0.77 -0.43 4.01 -1.28 7.16 -1.88 l5.71 -1.19 2.22 1.02 2.13 1.02 0 1.19 0 1.19 -1.36 0.51 c-0.77 0.26 -3.32 0.51 -5.80 0.51 l-4.43 0 -1.70 1.28 -1.62 1.19 -1.88 0.09 -1.96 0 0 -2.13z"/>
  <path d="M83.10 411.65 c-0.26 -0.43 -1.28 -3.07 -2.22 -5.71 l-1.70 -4.94 -0.51 -6.56 -0.51 -6.65 -0.60 0 c-0.34 0 -1.36 1.62 -2.13 3.66 l-1.53 3.58 -0.51 7.24 -0.60 7.24 -1.11 -2.56 -1.11 -2.56 -0.43 -6.48 -0.51 -6.56 1.88 -5.97 1.79 -6.05 4.77 -5.11 4.69 -5.11 3.66 -1.36 3.58 -1.36 3.84 0.26 3.75 0.26 -4.09 2.05 -4.18 2.05 -1.62 2.64 -1.62 2.64 0 3.24 0 3.15 0.68 0 c0.34 0 1.36 -0.60 2.22 -1.28 l1.70 -1.28 3.41 0 3.49 0 1.28 0.85 1.28 0.77 -2.64 2.81 c-3.32 3.49 -5.11 6.90 -5.80 11.34 l-0.51 3.41 0.77 4.52 0.68 4.60 -1.02 -1.19 c-1.19 -1.19 -3.84 -8.52 -3.84 -10.48 l0 -1.28 -1.28 0 -1.28 0 -0.60 2.39 -0.68 2.30 0 6.22 c0 3.32 -0.09 6.14 -0.17 6.14 -0.09 0 -0.43 -0.34 -0.68 -0.85z"/>
  <path d="M109.01 403.47 l-1.36 -1.28 -3.41 -0.26 c-1.96 -0.17 -3.92 -0.60 -4.43 -0.85 l-0.94 -0.60 0 -2.73 0 -2.73 1.53 -1.79 c0.77 -1.02 2.30 -2.30 3.32 -2.81 l1.88 -0.94 2.39 0 2.39 0 2.30 1.96 2.30 1.88 0.60 2.30 0.51 2.39 -2.64 -0.51 -2.64 -0.51 0.51 3.92 0.60 3.92 -0.77 0 c-0.51 0 -1.45 -0.60 -2.13 -1.36z"/>
  <path d="M358.38 336.73 l-1.70 -0.68 -1.96 -6.73 c-1.11 -3.66 -2.39 -8.44 -2.98 -10.48 l-0.94 -3.75 -1.62 -0.43 -1.62 -0.43 0.60 -3.84 c1.11 -7.33 1.70 -7.67 5.45 -2.56 l2.64 3.58 1.79 4.77 1.79 4.69 0.09 8.35 c0.09 4.52 0.17 8.27 0.17 8.18 0 0 -0.77 -0.34 -1.70 -0.68z"/>
  <path d="M170.97 328.81 c-0.26 -1.11 -0.51 -2.81 -0.51 -3.92 l0 -1.96 -0.85 0.51 -0.85 0.51 -1.53 -1.53 -1.62 -1.53 -0.51 -1.96 -0.51 -2.05 0.51 -1.11 0.43 -1.19 1.28 0.51 1.28 0.51 -0.60 -2.05 c-0.34 -1.11 -2.05 -4.69 -3.66 -8.01 l-3.07 -5.97 -0.34 1.53 c-0.43 2.13 -0.85 1.88 -4.60 -2.39 l-3.41 -3.92 -3.41 -1.70 -3.41 -1.70 1.53 -1.70 1.45 -1.62 2.22 0 2.22 0 4.43 2.56 4.43 2.56 3.15 3.75 3.15 3.75 2.47 5.71 2.56 5.71 -0.09 8.61 -0.09 8.61 -0.77 0.77 -0.68 0.68 -0.60 -1.96z"/>
  <path d="M107.98 264.12 l-0.43 -2.90 1.19 -7.67 1.11 -7.67 1.88 -5.97 c0.94 -3.24 2.90 -8.44 4.26 -11.34 l2.47 -5.45 3.75 -5.28 c2.13 -2.98 5.20 -6.56 6.90 -8.01 l3.07 -2.73 1.28 0 1.36 0 -0.60 3.15 c-0.94 4.94 -8.61 26.42 -11.85 33.07 -1.62 3.32 -3.41 7.59 -4.01 9.63 l-1.02 3.58 -0.68 0 -0.60 0 0.34 -3.41 c0.17 -1.88 0.51 -4.94 0.68 -6.82 l0.34 -3.41 -1.02 0 -1.11 0 -2.22 7.50 c-1.28 4.09 -2.47 8.95 -2.81 10.82 -0.34 1.88 -0.85 3.92 -1.19 4.60 l-0.60 1.19 -0.51 -2.90z"/>
  <path d="M175.74 248.69 l-2.73 -0.94 -3.15 -2.73 -3.07 -2.64 0.60 -1.11 0.68 -1.02 3.07 0.17 c1.79 0.09 3.66 0.09 4.35 0 l1.28 -0.09 -2.22 -2.30 c-2.81 -3.07 -5.28 -6.99 -4.77 -7.59 0.26 -0.17 1.62 0.26 3.07 1.11 l2.64 1.53 0.51 -0.60 0.60 -0.51 -1.79 -2.47 c-0.94 -1.28 -1.96 -3.41 -2.30 -4.69 l-0.51 -2.39 0.68 0 c0.43 0 3.07 1.53 5.88 3.41 l5.11 3.41 4.60 1.36 4.60 1.36 -1.19 0.77 -1.19 0.77 -3.58 0 -3.66 0 0 1.11 c0 2.81 3.92 6.73 9.20 9.20 1.96 0.94 3.58 1.88 3.58 2.13 0 0.26 -1.62 1.19 -3.58 2.05 l-3.66 1.70 -5.11 -0.09 -5.11 -0.09 -2.81 -0.85z"/>
  <path d="M307.16 227.98 c1.28 -1.62 3.24 -5.03 4.35 -7.50 l1.96 -4.43 0.60 -4.43 0.60 -4.43 -0.60 -1.70 -0.51 -1.79 -0.77 0 -0.85 0 -1.70 3.41 -1.70 3.32 -2.98 3.07 -3.07 2.98 -3.32 1.70 c-1.88 0.94 -3.75 1.70 -4.18 1.70 l-0.85 0 0.09 -5.37 0.09 -5.45 -2.05 -3.75 -2.05 -3.75 -1.88 -0.26 -1.79 -0.26 -0.94 4.35 c-0.77 3.58 -3.84 11.08 -4.60 11.08 -0.09 0 -0.09 -3.92 0.09 -8.69 l0.26 -8.78 -1.96 -3.84 -1.96 -3.75 -0.94 -0.26 -0.94 -0.34 -0.60 5.45 -0.51 5.45 -1.36 4.01 -1.36 3.92 -0.68 -0.43 -0.60 -0.43 -0.43 -6.14 -0.43 -6.22 -1.79 -3.84 c-1.79 -3.84 -5.88 -9.03 -6.56 -8.35 -0.26 0.17 0 1.88 0.51 3.75 l0.94 3.32 -0.51 5.88 c-0.34 3.24 -0.85 6.39 -1.19 7.07 l-0.68 1.19 -1.45 -6.22 -1.53 -6.22 -2.47 -4.35 -2.47 -4.43 -3.24 -2.47 c-1.79 -1.36 -4.94 -3.24 -7.07 -4.09 l-3.84 -1.53 -4.69 0.09 -4.69 0 -4.43 1.70 -4.43 1.70 -3.41 2.64 -3.32 2.64 -2.73 4.26 -2.73 4.26 -0.51 5.71 -0.43 5.63 -1.28 -2.47 -1.36 -2.47 0 -5.11 0 -5.11 2.22 -4.69 2.13 -4.69 3.66 -3.58 3.66 -3.58 3.92 -1.88 c2.13 -1.02 5.88 -2.39 8.18 -2.98 l4.26 -1.19 6.82 0 6.90 0 5.03 1.28 c2.81 0.77 7.67 2.56 10.82 4.01 l5.63 2.56 2.39 2.47 c1.28 1.36 2.64 2.47 3.07 2.47 l0.68 0 0 -2.56 0 -2.56 1.11 0 c0.60 0 2.47 1.19 4.26 2.64 l3.24 2.64 2.56 4.43 2.64 4.35 -0.51 -3.58 -0.51 -3.66 0.51 0 c0.34 0 2.05 1.28 3.84 2.90 l3.24 2.98 3.15 0.60 3.15 0.60 1.62 -1.96 c0.85 -1.02 1.53 -2.39 1.53 -3.07 l0 -1.19 1.11 0 c0.60 0 1.53 0.43 2.05 0.94 l1.02 1.02 1.36 -0.60 1.36 -0.51 -0.60 -2.98 -0.51 -2.98 1.11 0 1.11 0 4.94 5.11 4.94 5.03 0 -4.35 0 -4.26 -2.30 -4.18 -2.22 -4.18 0.43 -0.43 0.43 -0.43 3.58 1.19 c1.88 0.77 5.20 2.47 7.33 3.92 l3.84 2.64 0 -0.77 c0 -1.11 -4.69 -8.10 -6.56 -9.80 l-1.70 -1.53 -4.60 -1.53 c-2.56 -0.94 -6.05 -1.88 -7.76 -2.22 l-3.24 -0.60 0.51 -0.77 0.43 -0.77 5.28 0 5.28 0 5.45 1.28 5.45 1.28 6.73 3.58 6.73 3.49 5.11 5.11 5.11 5.20 2.90 5.97 2.98 6.05 0.94 5.11 0.94 5.11 -0.51 5.11 -0.51 5.03 -2.47 5.20 -2.39 5.11 -4.52 4.43 c-2.47 2.47 -4.69 4.35 -4.86 4.26 -0.17 -0.17 0.68 -2.05 1.88 -4.09 l2.05 -3.84 1.45 -5.45 1.36 -5.45 -0.34 -7.33 -0.43 -7.24 -1.96 -4.43 -1.88 -4.52 -1.11 0 -1.11 0 -0.34 5.97 -0.34 5.97 -0.94 0.94 -0.94 0.94 -1.53 -5.37 -1.62 -5.28 -0.94 -0.34 -1.02 -0.34 -0.51 4.09 c-0.34 2.22 -1.02 5.45 -1.53 7.07 -1.28 4.43 -5.97 14.49 -6.73 14.49 l-0.60 0 0.43 -6.82 0.51 -6.82 -0.77 0 c-1.53 0 -2.56 1.45 -5.71 7.93 l-3.32 6.56 -3.84 4.26 c-3.58 4.01 -10.40 9.38 -11.76 9.38 -0.34 0 0.43 -1.36 1.62 -2.98z"/>
  <path d="M181.96 170.97 l-2.56 -1.11 -2.30 -2.98 c-3.07 -4.01 -5.80 -9.46 -6.65 -13.04 l-0.68 -2.90 1.53 -1.36 c3.41 -3.07 22.59 -12.53 30.51 -15 3.15 -1.02 8.61 -2.98 12.10 -4.35 l6.39 -2.56 8.35 -0.43 8.27 -0.51 0 2.39 0 2.39 1.88 3.84 1.96 3.84 3.66 3.24 3.75 3.24 4.26 1.45 4.26 1.36 3.75 -0.51 3.75 -0.51 2.47 -1.28 2.47 -1.19 2.47 -3.24 c2.90 -3.66 4.52 -7.84 4.52 -11.51 l0 -2.39 2.22 -0.85 c1.19 -0.51 3.41 -0.85 4.86 -0.85 l2.73 0 2.05 1.11 2.05 1.02 3.24 8.95 c1.79 4.94 3.32 9.46 3.32 9.97 l0 1.11 -2.30 0.43 c-1.36 0.34 -2.98 0.68 -3.66 0.85 -3.75 0.85 -16.28 5.97 -20.71 8.44 l-5.11 2.81 -5.03 -2.05 c-2.73 -1.11 -7.67 -2.56 -10.99 -3.24 l-5.97 -1.28 -6.22 0 -6.14 0 -5.03 1.28 c-2.81 0.77 -7.41 2.39 -10.23 3.75 l-5.11 2.39 -5.88 4.35 -5.88 4.35 -4.77 0.51 c-2.64 0.26 -5.71 0.60 -6.90 0.85 l-2.13 0.26 -2.56 -1.02z"/>
  <path d="M167.47 139.86 c-0.17 -0.43 -0.26 -2.90 -0.09 -5.63 l0.34 -4.77 1.53 -1.70 c2.30 -2.56 17.13 -12.19 25.91 -16.79 l8.10 -4.26 10.23 -3.41 10.23 -3.41 8.01 -1.36 8.10 -1.36 7.67 0 7.76 0 8.10 1.28 c4.43 0.77 9.29 1.70 10.74 2.13 l2.64 0.85 2.13 2.39 2.22 2.30 2.22 5.28 c1.19 2.90 2.22 5.54 2.22 5.80 0 0.85 -2.98 0.43 -8.18 -1.19 l-5.20 -1.70 -4.94 -3.41 -4.94 -3.49 -4.77 0 c-2.64 0.09 -6.48 0.43 -8.52 0.77 l-3.66 0.77 -4.43 4.26 -4.35 4.26 -5.11 0.43 c-2.81 0.26 -8.35 0.94 -12.27 1.45 l-7.24 0.94 -5.11 1.70 -5.20 1.79 -1.79 1.62 -1.70 1.62 -1.96 0 -1.96 0 -8.78 4.18 c-4.77 2.30 -10.65 5.37 -13.04 6.82 l-4.35 2.56 -0.51 -0.68z"/>
 </g>
 <g fill="#f4dbb7">
  <path d="M442.76 390.43 l-0.43 -0.85 0.60 -0.34 c0.43 -0.17 2.73 -0.85 5.20 -1.45 l4.43 -1.02 4.26 -3.84 4.26 -3.84 2.98 -6.14 2.90 -6.05 1.70 -6.39 c0.94 -3.49 2.39 -9.80 3.07 -14.06 l1.36 -7.67 0 -14.91 0 -14.91 -0.85 -5.45 c-0.94 -5.71 -0.68 -6.99 0.85 -5.45 l0.94 0.94 1.70 9.63 1.62 9.72 -0.34 13.64 -0.43 13.64 -1.70 8.27 c-1.02 4.52 -2.64 10.65 -3.58 13.64 l-1.79 5.37 -3.41 5.80 -3.41 5.71 -4.60 3.41 -4.60 3.41 -5.11 0 -5.11 0 -0.51 -0.77z"/>
  <path d="M407.47 376.62 c-2.56 -5.71 -5.03 -16.28 -6.48 -27.10 l-1.28 -9.80 0 -8.52 0 -8.61 1.36 -11.34 1.28 -11.42 1.96 -7.76 c1.11 -4.35 3.24 -10.91 4.69 -14.66 l2.64 -6.82 4.26 -7.07 4.35 -6.99 4.69 -5.11 4.69 -5.03 5.20 -2.64 5.20 -2.56 2.81 0 2.81 0 0.43 0.77 0.51 0.77 -2.56 0.85 c-1.36 0.51 -4.77 2.47 -7.50 4.35 l-5.03 3.32 -4.35 4.77 c-2.39 2.64 -5.63 6.99 -7.24 9.72 l-2.98 4.86 -3.84 9.80 -3.92 9.80 -2.13 9.80 c-1.19 5.37 -2.56 13.81 -3.15 18.66 l-1.02 8.95 0.51 12.78 0.43 12.87 1.36 7.67 c0.77 4.26 2.13 10.14 3.07 13.21 1.96 6.48 1.53 7.76 -0.77 2.47z"/>
  <path d="M1078.64 374.49 c-0.26 -0.77 -0.51 -2.81 -0.51 -4.69 l0 -3.41 1.28 -2.47 c0.68 -1.28 2.30 -3.24 3.49 -4.18 l2.30 -1.79 2.30 0 2.39 0 1.96 1.53 1.88 1.62 -3.41 0.51 -3.41 0.60 -1.36 1.53 c-1.88 2.05 -4.01 7.33 -4.01 9.97 l0 2.13 -1.19 0 -1.19 0 -0.51 -1.36z"/>
  <path d="M513.49 372.44 c-0.34 -0.51 -0.94 -4.86 -1.36 -9.63 l-0.68 -8.69 -0.94 -42.02 -0.85 -41.93 1.19 -2.47 1.28 -2.39 2.22 -1.45 c1.28 -0.85 4.60 -2.39 7.50 -3.41 l5.28 -1.96 6.39 -1.02 6.39 -1.11 6.39 1.36 6.31 1.36 1.36 1.36 1.28 1.28 -2.56 -0.68 -2.56 -0.68 -7.76 0 -7.76 0 -1.19 0.94 -1.19 1.02 -3.84 0.60 -3.84 0.60 -4.09 2.22 -4.18 2.22 -1.28 2.56 -1.36 2.64 0.51 23.86 c0.34 13.13 0.85 35.63 1.19 50.11 l0.51 26.16 -0.94 0 c-0.51 0 -1.19 -0.43 -1.45 -0.85z"/>
  <path d="M592.93 348.84 l-1.88 -4.09 -0.26 -28.38 -0.26 -28.30 0.85 -12.02 0.94 -12.10 1.70 -3.58 1.79 -3.66 4.94 -2.22 5.03 -2.22 14.40 -2.22 14.32 -2.22 2.47 0.94 2.47 1.02 -0.77 0.77 -0.85 0.85 -9.80 1.19 c-5.28 0.68 -12.61 1.88 -16.11 2.73 l-6.31 1.45 -3.15 1.62 -3.24 1.62 -1.36 4.01 -1.36 4.01 -0.85 10.91 -0.94 10.82 0.26 31.53 c0.17 17.39 0.26 31.53 0.09 31.53 -0.17 0 -1.11 -1.79 -2.13 -4.01z"/>
  <path d="M666.05 351.14 c-0.34 -0.51 -0.94 -2.13 -1.36 -3.66 l-0.85 -2.73 1.02 -38.18 1.02 -38.27 -1.11 -5.88 -1.11 -5.97 0.77 -3.07 0.77 -3.15 3.58 -2.73 3.58 -2.73 4.94 -1.96 4.94 -1.96 11.51 -0.09 11.51 0 2.56 1.28 2.56 1.28 -6.82 0.17 c-3.75 0.09 -10.48 0.60 -14.91 1.19 l-8.10 1.02 -2.30 1.11 c-1.28 0.68 -4.01 2.30 -6.05 3.75 l-3.75 2.56 -1.11 2.56 -1.02 2.56 0.60 3.15 c0.34 1.79 1.19 4.52 1.88 6.05 l1.36 2.81 -1.02 28.72 c-0.51 15.77 -0.94 34.01 -0.94 40.40 l0 11.68 -0.77 0.51 -0.85 0.43 -0.51 -0.85z"/>
  <path d="M992.05 344.49 c0 -7.76 2.56 -41.16 5.20 -67.50 l1.88 -18.32 -1.96 -5.63 -1.96 -5.54 0.60 -2.30 0.51 -2.22 2.39 -2.30 2.30 -2.22 3.41 -1.53 c1.88 -0.77 5.45 -1.88 7.93 -2.47 l4.52 -0.94 9.29 0 9.29 0 4.69 1.70 4.60 1.79 1.02 1.19 0.94 1.11 -4.09 -1.19 -4.09 -1.28 -7.07 -0.51 -7.07 -0.51 -1.88 0.94 -1.88 0.94 -4.26 0.34 -4.26 0.34 -5.63 2.64 -5.63 2.73 -0.94 2.13 c-0.60 1.19 -1.02 3.07 -1.02 4.09 l0 1.96 1.70 3.32 1.70 3.32 0 3.49 c0 1.88 -0.34 6.48 -0.85 10.23 -0.43 3.75 -1.36 14.66 -2.13 24.29 -1.62 20.54 -3.41 38.69 -4.86 47.98 l-0.94 6.56 -0.77 0 -0.68 0 0 -6.65z"/>
  <path d="M613.64 349.52 l-1.19 -0.85 2.30 -0.85 c1.36 -0.51 3.41 -0.94 4.69 -0.94 l2.30 0 7.24 -2.64 c4.01 -1.45 8.10 -2.81 9.20 -3.07 l1.88 -0.43 0 0.94 0 1.02 -7.41 3.58 -7.41 3.49 -5.11 0.34 -5.20 0.26 -1.28 -0.85z"/>
  <path d="M846.90 342.02 l-0.60 -0.51 0 -11.34 0 -11.34 1.70 -25.82 c1.02 -14.23 2.05 -28.89 2.39 -32.64 l0.60 -6.82 1.28 0 1.28 0 -0.26 10.65 c-0.43 18.24 -4.60 77.22 -5.54 78.15 -0.17 0.17 -0.60 0 -0.85 -0.34z"/>
  <path d="M932.47 339.29 l-1.11 -0.68 0.68 -0.51 c0.43 -0.17 2.13 -0.68 3.75 -1.02 4.09 -0.85 7.16 -2.56 9.89 -5.37 l2.22 -2.30 3.24 -6.82 3.32 -6.82 1.70 -8.69 1.79 -8.61 0 -9.72 -0.09 -9.63 -1.19 -6.82 c-1.19 -6.90 -1.19 -7.84 0.34 -6.82 l0.94 0.51 1.88 6.14 1.96 6.14 -0.09 13.64 -0.09 13.64 -1.88 6.82 -1.79 6.82 -2.56 5.37 c-1.36 2.98 -3.75 6.99 -5.28 8.86 l-2.73 3.49 -3.41 1.53 -3.49 1.62 -3.41 0 -3.41 0 -1.19 -0.77z"/>
  <path d="M903.58 326.25 l-2.56 -6.22 -1.02 -5.88 -1.11 -5.88 0.51 -12.02 0.51 -12.02 1.28 -5.11 c0.68 -2.81 2.81 -8.95 4.77 -13.64 l3.58 -8.52 2.98 -4.01 c1.53 -2.22 4.86 -5.80 7.33 -8.01 l4.43 -4.01 3.66 -1.62 3.75 -1.70 4.43 -0.43 4.43 -0.43 4.86 1.36 c2.64 0.77 4.94 1.70 5.20 2.05 l0.34 0.60 -7.33 0 -7.41 0.09 -3.84 1.88 c-2.13 1.02 -4.94 2.56 -6.39 3.41 l-2.56 1.53 -4.01 4.94 -4.01 4.94 -3.41 6.99 -3.49 6.90 -2.05 7.24 -2.05 7.33 -1.02 8.44 -1.02 8.52 0.60 6.82 c0.26 3.75 1.28 10.23 2.22 14.40 0.85 4.18 1.45 7.76 1.28 7.93 -0.17 0.17 -1.45 -2.47 -2.90 -5.88z"/>
  <path d="M1090.48 309.80 c0.26 -14.74 3.07 -62.39 4.35 -73.72 0.26 -2.56 0.85 -5.88 1.28 -7.41 l0.85 -2.73 2.56 -2.22 2.64 -2.13 2.90 0 2.98 0 1.70 0.94 1.70 0.85 -0.51 0.85 -0.51 0.77 -2.81 0 -2.81 0 -1.79 1.96 -1.79 1.88 -0.85 3.84 c-0.43 2.13 -1.45 10.91 -2.22 19.60 -2.56 29.74 -5.71 60.68 -6.90 67.16 l-1.11 6.56 0.34 -16.19z"/>
  <path d="M534.72 321.39 c0.34 -0.51 2.81 -2.39 5.45 -4.26 l4.86 -3.24 3.66 -4.01 3.75 -4.01 2.13 -4.86 2.13 -4.86 0.51 -6.65 0.43 -6.65 1.36 0.26 1.36 0.26 0 7.67 0 7.67 -2.39 4.86 -2.39 4.86 -3.66 4.09 -3.75 4.18 -4.18 2.22 c-2.22 1.19 -5.37 2.47 -6.99 2.81 l-2.90 0.60 0.60 -0.94z"/>
  <path d="M745.91 309.20 l0.43 -1.11 3.49 -0.68 3.58 -0.68 0.77 -1.45 c0.34 -0.77 1.19 -3.32 1.70 -5.71 1.70 -6.90 17.22 -54.29 18.92 -57.70 l1.53 -3.07 2.39 -1.88 2.30 -1.79 3.84 0.26 3.75 0.26 0.34 1.02 0.34 0.94 -2.47 0.60 -2.47 0.51 -2.64 2.73 -2.73 2.81 -2.13 5.45 c-1.19 3.07 -6.05 17.22 -10.74 31.53 l-8.52 25.91 -1.36 1.53 -1.36 1.53 -4.60 0 -4.69 0 0.34 -1.02z"/>
  <path d="M689.40 302.22 c0.60 -0.68 2.90 -2.22 5.03 -3.24 l3.92 -1.96 4.77 -4.43 4.86 -4.43 2.47 -5.37 2.39 -5.37 0.34 -5.80 0.34 -5.80 1.45 0.26 1.36 0.26 0.51 3.41 0.60 3.41 -0.77 4.01 -0.68 4.09 -1.70 3.24 c-0.94 1.79 -3.49 5.28 -5.80 7.84 l-4.09 4.52 -4.26 2.73 -4.26 2.73 -3.84 0.68 -3.84 0.68 1.19 -1.45z"/>
  <path d="M1021.70 302.90 l-0.68 -0.60 0.94 -1.11 c0.43 -0.51 2.90 -2.05 5.45 -3.24 l4.60 -2.30 4.09 -3.66 4.09 -3.75 2.73 -4.52 2.73 -4.60 1.36 -5.11 c0.68 -2.73 1.28 -6.31 1.28 -7.84 l0 -2.81 1.19 0 1.19 0 0.60 3.92 0.51 3.92 -0.51 3.49 -0.60 3.58 -2.22 4.26 c-1.11 2.39 -3.24 5.71 -4.69 7.50 l-2.56 3.24 -5.97 4.77 -5.88 4.77 -3.58 0.34 -3.49 0.43 -0.60 -0.68z"/>
  <path d="M440.11 297.27 l-1.62 -3.58 0.09 -6.39 0.09 -6.48 1.79 -4.94 1.79 -4.86 2.73 -3.58 2.81 -3.49 4.26 -1.96 4.35 -2.05 2.73 0 2.64 0 3.92 1.70 c2.13 0.85 3.92 1.79 3.92 1.96 0 0.17 -2.64 0.43 -5.97 0.43 l-5.97 0.17 -3.32 1.62 -3.32 1.70 -2.64 3.32 c-1.45 1.88 -3.49 5.20 -4.52 7.50 l-1.88 4.18 -0.09 9.12 c0 5.11 0 9.20 -0.09 9.20 -0.09 0 -0.77 -1.62 -1.70 -3.58z"/>
 </g>
 <g fill="#eddec3">
  <path d="M268.64 446.59 c-14.57 -3.84 -30 -11.34 -45.26 -21.90 l-8.18 -5.71 -7.07 -6.82 -7.07 -6.73 -4.09 -6.90 c-2.30 -3.84 -5.37 -9.63 -6.82 -13.04 l-2.64 -6.05 0 -2.39 0 -2.30 2.47 -7.76 2.47 -7.76 1.02 -8.86 1.11 -8.95 -0.60 -6.65 -0.51 -6.56 -2.22 -10.48 -2.22 -10.48 0.43 -4.69 0.43 -4.69 1.79 -4.01 c0.94 -2.30 3.49 -6.82 5.63 -10.14 2.22 -3.24 5.45 -8.78 7.24 -12.10 l3.24 -6.14 2.64 -8.61 2.64 -8.52 2.56 -3.92 2.64 -3.92 2.30 -1.62 2.30 -1.53 6.39 0.09 6.39 0 9.46 4.35 c11.59 5.37 24.89 10.06 34.43 12.27 l7.24 1.62 11.08 0 11.08 0 2.47 -1.28 c1.28 -0.68 3.15 -1.28 4.01 -1.28 0.85 0 1.70 -0.34 1.96 -0.77 0.26 -0.34 2.13 -1.19 4.18 -1.79 l3.75 -1.02 4.35 2.22 4.35 2.22 2.13 0 2.22 0 0.43 1.96 c0.26 1.02 0.77 3.58 1.28 5.71 0.43 2.13 1.11 7.76 1.36 12.61 l0.60 8.69 -0.77 0 c-0.43 0 -1.53 -0.60 -2.39 -1.28 l-1.70 -1.28 -4.86 0 -4.86 0 -3.24 1.36 c-1.88 0.77 -4.94 2.56 -6.99 4.01 l-3.66 2.64 -1.62 2.73 -1.70 2.64 0 1.88 0 1.88 -6.14 6.82 -6.22 6.82 -1.45 4.01 -1.45 4.01 0 5.97 -0.09 5.97 2.13 4.52 c1.11 2.39 2.30 4.43 2.56 4.43 l0.60 0 -0.60 -3.58 c-0.26 -2.05 -0.68 -4.69 -0.94 -5.97 l-0.51 -2.39 1.88 0 1.79 0 0.43 -1.28 0.51 -1.28 1.02 0 0.94 0 1.02 1.70 1.11 1.62 2.73 1.45 c1.53 0.77 3.24 2.05 3.84 2.81 l0.94 1.36 5.03 -0.09 4.94 0 2.81 -1.45 2.73 -1.53 0 -0.94 0 -0.94 -5.54 0.60 -5.54 0.60 0 -0.60 c0 -0.26 0.77 -1.53 1.62 -2.81 0.94 -1.28 1.96 -3.32 2.30 -4.69 l0.51 -2.30 -2.90 0.26 -2.90 0.17 -1.11 -0.77 -1.19 -0.68 1.53 -1.19 1.62 -1.11 1.96 0 1.96 0 0 -1.70 0 -1.70 0.94 0 c0.51 0 2.13 0.60 3.66 1.28 l2.73 1.28 1.53 2.64 1.53 2.64 -0.51 2.47 -0.51 2.47 3.41 -0.51 3.41 -0.60 0 3.75 c0 2.05 0.60 6.82 1.36 10.57 l1.28 6.82 0.09 8.10 0 8.10 -2.22 6.73 c-2.98 8.78 -7.07 16.88 -16.45 32.47 -4.26 7.07 -10.31 17.98 -13.47 24.29 -3.15 6.31 -6.65 12.78 -7.84 14.40 l-2.22 2.81 -3.84 2.47 -3.92 2.47 -8.10 -0.09 -8.18 0 -6.22 -1.62z m27.10 -21.31 l0 -0.94 -2.98 -1.70 -3.07 -1.79 0.94 -1.11 c0.51 -0.60 1.96 -1.36 3.24 -1.70 1.28 -0.34 3.58 -1.53 5.11 -2.64 l2.73 -2.13 1.28 -2.39 c0.68 -1.36 2.39 -6.14 3.84 -10.65 l2.64 -8.18 3.41 -3.92 3.41 -4.01 -0.77 -0.77 -0.85 -0.85 -6.90 -0.43 -6.99 -0.51 -4.52 1.11 -4.43 1.02 -2.73 -1.36 -2.64 -1.36 -8.78 0 -8.78 0.09 -5.54 1.19 -5.54 1.19 -5.63 0.09 -5.54 0 -2.30 2.39 -2.39 2.47 0.60 1.62 c2.05 5.54 11.59 17.05 18.58 22.41 l4.69 3.66 4.77 1.96 c2.64 1.02 4.77 2.22 4.77 2.56 0 0.34 -0.85 1.11 -1.88 1.62 -1.02 0.51 -2.05 1.45 -2.30 2.05 l-0.34 1.11 9.72 -0.60 9.63 -0.51 2.13 0.85 c2.81 1.19 3.41 1.19 3.41 0.17z m-61.36 -40.14 l2.22 -3.75 2.22 -1.02 c1.19 -0.60 3.84 -2.64 5.88 -4.43 l3.75 -3.41 -2.47 -0.09 -2.39 0 2.05 -2.73 c1.19 -1.53 2.81 -4.09 3.58 -5.71 l1.53 -2.81 0 -4.60 0.09 -4.60 -2.22 -2.81 -2.22 -2.90 -4.09 -2.64 -4.09 -2.56 -5.54 -1.96 -5.54 -2.05 -9.38 0 -9.38 0 -3.24 1.96 -3.15 2.05 -2.22 2.90 -2.22 2.90 -0.43 3.75 -0.43 3.75 1.02 3.24 c0.60 1.88 2.22 4.94 3.58 6.99 l2.56 3.66 3.92 2.90 4.01 2.98 5.45 1.70 5.37 1.70 2.56 0 2.56 0 -0.51 2.13 -0.60 2.22 1.79 3.84 1.70 3.92 1.02 -0.34 1.11 -0.43 2.13 -3.75z m86.93 -0.34 l1.02 -1.28 1.62 0 1.62 0 0 1.02 0 0.94 1.62 -1.45 c0.85 -0.77 2.81 -3.66 4.26 -6.48 l2.64 -4.94 1.79 -7.16 1.79 -7.07 -0.43 -7.84 -0.43 -7.76 -0.94 -1.79 -1.02 -1.79 -4.01 0 -4.09 0 -3.84 2.39 -3.75 2.47 -2.30 2.73 -2.30 2.73 -1.02 3.58 -0.94 3.58 0.43 4.35 0.43 4.35 2.22 4.26 2.13 4.35 -0.51 0.51 -0.51 0.51 1.53 1.70 1.53 1.70 -0.51 3.84 -0.60 3.84 0.77 0 c0.43 0 1.19 -0.60 1.79 -1.28z m-22.59 -10.57 c4.86 -2.81 8.52 -6.22 10.31 -9.72 l1.28 -2.39 -0.26 -4.43 -0.26 -4.43 -1.53 -0.26 -1.53 -0.34 -0.51 1.70 -0.43 1.70 -7.93 0.34 -8.01 0.26 -2.56 2.47 -2.47 2.39 -5.88 -0.26 -5.80 -0.34 -0.26 1.79 -0.26 1.88 1.96 2.22 1.96 2.22 4.18 0.77 4.18 0.77 1.79 2.13 c2.05 2.39 4.60 3.92 6.48 4.01 0.68 0 3.24 -1.11 5.54 -2.47z m-52.59 -42.53 l1.96 -0.60 0.17 -0.85 0.17 -0.85 -3.75 -0.26 -3.75 -0.26 3.15 -2.81 3.07 -2.90 0 -2.30 0 -2.30 -2.47 0.43 -2.47 0.51 -1.45 -1.11 -1.53 -1.11 0.51 -1.45 0.51 -1.36 3.41 0 3.41 0 -0.43 -1.28 -0.51 -1.28 1.45 -0.51 1.45 -0.60 2.81 1.36 2.73 1.28 5.03 5.63 4.94 5.54 1.11 -0.85 1.02 -0.94 1.96 0.34 1.88 0.26 0.51 2.05 0.51 2.13 0.77 0.26 0.85 0.26 1.96 -2.81 1.88 -2.81 0 -4.86 0 -4.77 -1.02 -2.39 c-0.60 -1.28 -2.90 -5.20 -5.20 -8.61 l-4.26 -6.14 2.30 -1.79 2.22 -1.70 0 -2.05 0 -2.05 -3.15 -3.07 -3.24 -3.07 -5.97 -2.90 c-3.24 -1.62 -7.84 -3.32 -10.06 -3.92 l-4.09 -1.02 -7.84 0.51 -7.84 0.43 -4.26 2.30 c-5.97 3.24 -12.70 8.44 -15.26 11.76 -2.56 3.32 -2.73 4.01 -0.94 4.01 l1.36 0 4.52 -3.41 4.52 -3.41 2.13 0 2.13 0 1.53 -1.70 1.53 -1.70 6.73 0 6.73 0 6.56 3.15 6.56 3.15 -2.56 0.26 c-1.36 0.17 -4.69 0.94 -7.24 1.62 l-4.69 1.36 -2.13 1.53 c-1.19 0.85 -3.66 1.96 -5.54 2.47 l-3.41 0.94 -4.35 4.18 -4.35 4.18 -1.62 0.34 -1.62 0.34 0.26 2.73 0.17 2.73 -3.41 0 -3.49 0 -0.51 1.45 -0.60 1.45 3.32 2.81 3.24 2.81 4.52 1.45 4.52 1.36 -1.62 1.19 c-0.94 0.68 -1.70 1.53 -1.70 1.88 l0 0.77 4.77 1.88 c2.56 1.11 5.88 2.22 7.41 2.56 3.32 0.85 11.42 0.85 14.06 0.17z"/>
  <path d="M442.76 390.43 l-0.43 -0.85 0.60 -0.34 c0.43 -0.17 2.73 -0.85 5.20 -1.45 l4.43 -1.02 4.26 -3.84 4.26 -3.84 3.07 -6.31 c1.62 -3.41 3.41 -6.48 3.92 -6.82 l0.85 -0.51 1.19 1.19 1.19 1.19 -1.02 2.73 -1.02 2.73 -0.77 0 -0.68 0 0.51 0.85 0.51 0.85 -1.28 -0.51 -1.28 -0.51 -1.36 2.22 -1.45 2.22 0.43 1.62 0.34 1.53 -0.77 1.45 c-0.43 0.77 -2.81 2.90 -5.37 4.77 l-4.60 3.41 -5.11 0 -5.11 0 -0.51 -0.77z"/>
  <path d="M513.49 372.44 c-0.34 -0.51 -0.94 -4.86 -1.36 -9.63 l-0.68 -8.69 -0.94 -42.02 -0.85 -41.93 1.19 -2.47 1.28 -2.39 2.22 -1.45 c3.24 -2.13 12.19 -5.28 16.62 -5.97 l3.84 -0.51 1.11 0.77 1.19 0.68 -2.47 1.79 -2.39 1.70 -3.92 0.60 -4.01 0.60 -4.26 2.47 -4.35 2.47 -0.51 1.70 -0.51 1.70 -0.85 0 -0.77 0 0 13.98 0 13.89 0.77 4.18 0.85 4.18 0.60 32.64 0.60 32.56 -0.94 0 c-0.51 0 -1.19 -0.43 -1.45 -0.85z"/>
  <path d="M1036.96 352.59 c-4.77 -6.31 -12.44 -24.12 -13.81 -32.05 l-0.60 -3.66 1.02 0.34 1.11 0.34 2.73 8.01 c4.35 12.61 8.86 23.95 10.74 27.02 2.22 3.58 1.62 3.66 -1.19 0z"/>
  <path d="M593.27 349.26 l-1.62 -3.66 -0.43 -30.68 -0.43 -30.68 0.77 -10.14 0.77 -10.14 1.70 -3.58 1.79 -3.66 4.94 -2.22 5.03 -2.22 14.40 -2.22 14.32 -2.22 2.47 0.94 2.47 1.02 -0.77 0.77 -0.85 0.85 -9.80 1.19 c-5.28 0.68 -12.61 1.88 -16.11 2.73 l-6.31 1.45 -3.15 1.62 -3.24 1.62 -1.36 4.01 -1.36 4.01 -0.85 10.91 -0.94 10.82 0.26 31.53 c0.17 17.39 0.26 31.53 0.09 31.53 -0.17 0 -0.94 -1.62 -1.79 -3.58z"/>
  <path d="M665.45 350.11 l-1.11 -1.96 0.26 -23.86 c0.09 -13.13 0.60 -30.85 1.02 -39.46 l0.85 -15.60 0.68 -1.28 0.77 -1.28 1.11 1.36 1.11 1.28 -1.02 29.23 c-0.51 16.02 -0.94 34.43 -0.94 40.82 l0 11.68 -0.77 0.51 -0.85 0.51 -1.11 -1.96z"/>
  <path d="M767.98 307.84 l-1.11 -0.77 0.68 -0.51 c1.70 -0.94 10.82 -2.22 20.20 -2.73 l9.97 -0.60 0 -0.68 c0 -0.43 -1.70 -8.10 -3.75 -17.22 -2.13 -9.03 -3.92 -17.39 -4.09 -18.58 l-0.26 -2.13 1.28 0 1.28 0 1.11 3.41 c0.60 1.88 2.64 10.40 4.52 19.01 l3.41 15.60 -0.26 1.88 -0.26 1.79 -2.98 0.68 -2.98 0.68 -12.78 0.51 -12.78 0.43 -1.19 -0.77z"/>
  <path d="M756.56 307.07 c-0.17 -0.43 -0.26 -2.98 -0.17 -5.80 l0.17 -5.11 4.94 -15.17 4.94 -15.17 1.45 -0.77 1.36 -0.77 1.02 0.60 0.94 0.68 -6.48 19.94 -6.56 20.03 -0.68 0.26 -0.68 0.34 0.51 0.77 c0.26 0.43 0.26 0.77 0 0.77 -0.26 0 -0.60 -0.26 -0.77 -0.60z"/>
  <path d="M664.52 260.28 l-0.60 -0.60 0 -2.81 c0 -1.53 0.34 -3.75 0.85 -4.94 l0.77 -2.13 3.58 -2.56 3.49 -2.56 4.69 -1.79 4.69 -1.79 2.98 0.60 2.90 0.51 -1.45 1.62 -1.45 1.62 -2.05 0 c-2.30 0 -3.92 0.77 -9.89 4.60 l-4.18 2.64 -1.36 2.56 c-0.77 1.36 -1.62 3.24 -1.88 4.09 l-0.43 1.62 -0.68 -0.68z"/>
  <path d="M775.82 245.11 l-1.96 -1.79 1.70 -2.73 1.62 -2.73 2.13 -1.36 2.05 -1.36 3.66 0.26 3.58 0.26 0.34 1.02 0.34 0.94 -2.47 0.60 -2.47 0.51 -2.56 2.73 c-1.45 1.53 -2.90 3.32 -3.32 4.09 l-0.77 1.36 -1.88 -1.79z"/>
  <path d="M823.04 244.09 c-0.34 -0.34 -0.60 -1.70 -0.60 -2.98 l0 -2.39 1.96 -2.22 1.88 -2.22 12.78 -1.28 c7.07 -0.68 20.80 -1.62 30.60 -2.05 l17.81 -0.85 2.05 0.51 1.96 0.51 0 1.19 0 1.11 -2.73 0.43 c-1.53 0.26 -7.76 0.68 -13.89 0.94 -6.05 0.26 -17.81 0.77 -25.99 1.19 l-14.91 0.77 -3.58 1.45 c-2.05 0.77 -3.66 1.70 -3.66 2.05 0 0.26 -0.68 1.36 -1.53 2.47 l-1.53 1.96 -0.60 -0.60z"/>
 </g>
 <g fill="#f3e7c6">
  <path d="M228.84 514.69 c-9.72 -8.78 -38.10 -36.82 -41.42 -40.99 l-2.56 -3.24 3.92 -13.38 c2.22 -7.41 4.09 -13.98 4.26 -14.49 0.26 -0.60 0.77 -1.11 1.28 -1.11 l0.85 0 4.77 6.48 c9.46 12.78 18.24 28.47 27.10 48.15 5.37 12.19 10.65 23.61 11.34 24.89 l0.34 0.60 -1.11 0 -1.11 0 -7.67 -6.90z"/>
  <path d="M268.64 446.59 c-14.57 -3.84 -30 -11.34 -45.26 -21.90 l-8.18 -5.71 -7.07 -6.82 -7.07 -6.73 -4.09 -6.90 c-2.30 -3.84 -5.37 -9.63 -6.82 -13.04 l-2.64 -6.05 0 -2.39 0 -2.30 2.47 -7.76 2.47 -7.76 1.02 -8.86 1.11 -8.95 -0.60 -6.65 -0.51 -6.56 -2.22 -10.48 -2.22 -10.48 0.43 -4.69 0.43 -4.69 1.79 -4.01 c0.94 -2.30 3.49 -6.82 5.63 -10.14 2.22 -3.24 5.45 -8.78 7.24 -12.10 l3.24 -6.14 2.64 -8.61 2.64 -8.52 2.56 -3.92 2.64 -3.92 2.30 -1.62 2.30 -1.53 6.39 0.09 6.39 0 9.46 4.35 c11.59 5.37 24.89 10.06 34.43 12.27 l7.24 1.62 11.08 0 11.08 0 2.47 -1.28 c1.28 -0.68 3.15 -1.28 4.01 -1.28 0.85 0 1.70 -0.34 1.96 -0.77 0.26 -0.34 2.13 -1.19 4.18 -1.79 l3.75 -1.02 4.35 2.22 4.35 2.22 2.13 0 2.22 0 0.43 1.96 c0.26 1.02 0.77 3.58 1.28 5.71 0.43 2.13 1.11 7.76 1.36 12.61 l0.60 8.69 -0.77 0 c-0.43 0 -1.53 -0.60 -2.39 -1.28 l-1.70 -1.28 -4.86 0 -4.86 0 -3.24 1.36 c-1.88 0.77 -4.94 2.56 -6.99 4.01 l-3.66 2.64 -1.62 2.73 -1.70 2.64 0 1.88 0 1.88 -6.14 6.82 -6.22 6.82 -1.45 4.01 -1.45 4.01 0 5.97 -0.09 5.97 2.13 4.52 c1.11 2.39 2.30 4.43 2.56 4.43 l0.60 0 -0.60 -3.58 c-0.26 -2.05 -0.68 -4.69 -0.94 -5.97 l-0.51 -2.39 1.88 0 1.79 0 0.43 -1.28 0.51 -1.28 1.02 0 0.94 0 1.02 1.70 1.11 1.62 2.73 1.45 c1.53 0.77 3.24 2.05 3.84 2.81 l0.94 1.36 5.03 -0.09 4.94 0 2.81 -1.45 2.73 -1.53 0 -0.94 0 -0.94 -5.54 0.60 -5.54 0.60 0 -0.60 c0 -0.26 0.77 -1.53 1.62 -2.81 0.94 -1.28 1.96 -3.32 2.30 -4.69 l0.51 -2.30 -2.90 0.26 -2.90 0.17 -1.11 -0.77 -1.19 -0.68 1.53 -1.19 1.62 -1.11 1.96 0 1.96 0 0 -1.70 0 -1.70 0.94 0 c0.51 0 2.13 0.60 3.66 1.28 l2.73 1.28 1.53 2.64 1.53 2.64 -0.51 2.47 -0.51 2.47 3.41 -0.51 3.41 -0.60 0 3.75 c0 2.05 0.60 6.82 1.36 10.57 l1.28 6.82 0.09 8.10 0 8.10 -2.22 6.73 c-2.98 8.78 -7.07 16.88 -16.45 32.47 -4.26 7.07 -10.31 17.98 -13.47 24.29 -3.15 6.31 -6.65 12.78 -7.84 14.40 l-2.22 2.81 -3.84 2.47 -3.92 2.47 -8.10 -0.09 -8.18 0 -6.22 -1.62z m27.10 -21.31 l0 -0.94 -2.98 -1.70 -3.07 -1.79 0.94 -1.11 c0.51 -0.60 1.96 -1.36 3.24 -1.70 1.28 -0.34 3.58 -1.53 5.11 -2.64 l2.73 -2.13 1.28 -2.39 c0.68 -1.36 2.39 -6.14 3.84 -10.65 l2.64 -8.18 3.41 -3.92 3.41 -4.01 -0.77 -0.77 -0.85 -0.85 -6.90 -0.43 -6.99 -0.51 -4.52 1.11 -4.43 1.02 -2.73 -1.36 -2.64 -1.36 -8.78 0 -8.78 0.09 -5.54 1.19 -5.54 1.19 -5.63 0.09 -5.54 0 -2.30 2.39 -2.39 2.47 0.60 1.62 c2.05 5.54 11.59 17.05 18.58 22.41 l4.69 3.66 4.77 1.96 c2.64 1.02 4.77 2.22 4.77 2.56 0 0.34 -0.85 1.11 -1.88 1.62 -1.02 0.51 -2.05 1.45 -2.30 2.05 l-0.34 1.11 9.72 -0.60 9.63 -0.51 2.13 0.85 c2.81 1.19 3.41 1.19 3.41 0.17z m-61.36 -40.14 l2.22 -3.75 2.22 -1.02 c1.19 -0.60 3.84 -2.64 5.88 -4.43 l3.75 -3.41 -2.47 -0.09 -2.39 0 2.05 -2.73 c1.19 -1.53 2.81 -4.09 3.58 -5.71 l1.53 -2.81 0 -4.60 0.09 -4.60 -2.22 -2.81 -2.22 -2.90 -4.09 -2.64 -4.09 -2.56 -5.54 -1.96 -5.54 -2.05 -9.38 0 -9.38 0 -3.24 1.96 -3.15 2.05 -2.22 2.90 -2.22 2.90 -0.43 3.75 -0.43 3.75 1.02 3.24 c0.60 1.88 2.22 4.94 3.58 6.99 l2.56 3.66 3.92 2.90 4.01 2.98 5.45 1.70 5.37 1.70 2.56 0 2.56 0 -0.51 2.13 -0.60 2.22 1.79 3.84 1.70 3.92 1.02 -0.34 1.11 -0.43 2.13 -3.75z m86.93 -0.34 l1.02 -1.28 1.62 0 1.62 0 0 1.02 0 0.94 1.62 -1.45 c0.85 -0.77 2.81 -3.66 4.26 -6.48 l2.64 -4.94 1.79 -7.16 1.79 -7.07 -0.43 -7.84 -0.43 -7.76 -0.94 -1.79 -1.02 -1.79 -4.01 0 -4.09 0 -3.84 2.47 c-2.05 1.28 -4.60 3.32 -5.71 4.52 l-1.96 2.13 -1.62 4.60 -1.70 4.60 0 2.73 0 2.81 0.85 0 0.85 0 0 1.28 c0 0.77 0.94 3.15 2.13 5.45 l2.05 4.18 -0.51 0.51 -0.51 0.51 1.53 1.70 1.53 1.70 -0.51 3.84 -0.60 3.84 0.77 0 c0.43 0 1.19 -0.60 1.79 -1.28z m-22.59 -10.57 c4.86 -2.81 8.52 -6.22 10.31 -9.72 l1.28 -2.39 -0.26 -4.43 -0.26 -4.43 -1.53 -0.26 -1.53 -0.34 -0.51 1.70 -0.43 1.70 -7.93 0.34 -8.01 0.26 -2.56 2.47 -2.47 2.39 -5.88 -0.26 -5.80 -0.34 -0.26 1.79 -0.26 1.88 1.96 2.22 1.96 2.22 4.18 0.77 4.18 0.77 1.79 2.13 c2.05 2.39 4.60 3.92 6.48 4.01 0.68 0 3.24 -1.11 5.54 -2.47z m-52.59 -42.53 l1.96 -0.60 0.17 -0.85 0.17 -0.85 -3.75 -0.26 -3.75 -0.26 3.15 -2.81 3.07 -2.90 0 -2.30 0 -2.30 -2.47 0.43 -2.47 0.51 -1.45 -1.11 -1.53 -1.11 0.51 -1.45 0.51 -1.36 3.41 0 3.41 0 -0.43 -1.28 -0.51 -1.28 1.45 -0.51 1.45 -0.60 2.81 1.36 2.73 1.28 5.03 5.63 4.94 5.54 1.11 -0.85 1.02 -0.94 1.96 0.34 1.88 0.26 0.51 2.05 0.51 2.13 0.77 0.26 0.85 0.26 1.96 -2.81 1.88 -2.81 0 -4.86 0 -4.77 -1.02 -2.39 c-0.60 -1.28 -2.90 -5.20 -5.20 -8.61 l-4.26 -6.14 2.30 -1.79 2.22 -1.70 0 -2.05 0 -2.05 -3.15 -3.07 -3.24 -3.07 -5.97 -2.90 c-3.24 -1.62 -7.84 -3.32 -10.06 -3.92 l-4.09 -1.02 -7.84 0.51 -7.84 0.43 -4.26 2.30 c-5.97 3.24 -12.70 8.44 -15.26 11.76 -2.56 3.32 -2.73 4.01 -0.94 4.01 l1.36 0 4.52 -3.41 4.52 -3.41 2.13 0 2.13 0 1.53 -1.70 1.53 -1.70 6.73 0 6.73 0 6.56 3.15 6.56 3.15 -2.56 0.26 c-1.36 0.17 -4.69 0.94 -7.24 1.62 l-4.69 1.36 -2.13 1.53 c-1.19 0.85 -3.66 1.96 -5.54 2.47 l-3.41 0.94 -4.35 4.18 -4.35 4.18 -1.62 0.34 -1.62 0.34 0.26 2.73 0.17 2.73 -3.41 0 -3.49 0 -0.51 1.45 -0.60 1.45 3.32 2.81 3.24 2.81 4.52 1.45 4.52 1.36 -1.62 1.19 c-0.94 0.68 -1.70 1.53 -1.70 1.88 l0 0.77 4.77 1.88 c2.56 1.11 5.88 2.22 7.41 2.56 3.32 0.85 11.42 0.85 14.06 0.17z"/>
  <path d="M273.58 401.08 c-4.69 -1.36 -13.98 -5.28 -16.79 -7.07 l-1.96 -1.36 1.02 -1.28 1.11 -1.28 15.77 0.68 c8.69 0.34 18.75 0.60 22.41 0.60 3.58 0 6.56 0.09 6.56 0.34 0 1.36 -2.90 6.99 -4.43 8.61 l-1.79 1.96 -9.03 -0.09 -9.03 -0.09 -3.84 -1.02z"/>
  <path d="M119.49 356.85 l-2.73 -4.52 0 -1.45 c0 -0.85 -0.51 -2.39 -1.19 -3.41 l-1.19 -1.88 -0.94 -5.03 -0.94 -5.11 0 -7.16 0 -7.16 1.36 -5.28 1.28 -5.20 2.13 -3.58 2.05 -3.58 4.60 -3.92 4.52 -3.92 0.43 -15.34 c0.26 -8.44 0.68 -15.51 0.94 -15.77 0.26 -0.26 2.05 -0.68 4.09 -0.94 l3.58 -0.51 -0.51 2.90 c-0.34 1.62 -0.77 8.27 -1.11 14.83 l-0.51 11.93 0.94 3.49 0.94 3.49 4.18 3.58 4.26 3.49 2.56 5.37 2.64 5.28 0.85 4.60 c0.43 2.47 0.85 5.88 0.85 7.41 l0 2.90 -1.70 0 -1.70 0 -0.43 -2.30 c-0.26 -1.36 -1.11 -4.69 -1.79 -7.50 l-1.28 -5.11 -2.64 -4.09 -2.64 -4.18 -3.07 -1.96 c-1.70 -1.11 -4.26 -2.22 -5.63 -2.47 l-2.64 -0.60 -4.09 1.79 -4.01 1.79 -1.70 2.73 c-1.70 2.90 -3.66 9.03 -3.07 9.72 0.26 0.17 1.28 -1.02 2.30 -2.73 1.11 -1.70 2.90 -4.01 4.09 -5.11 l2.22 -2.05 2.30 -0.51 2.39 -0.51 2.39 1.28 2.47 1.28 2.39 3.32 c1.28 1.88 3.07 5.28 3.92 7.67 l1.62 4.26 0.60 5.45 0.51 5.45 -0.94 4.77 -1.02 4.77 -2.30 2.98 c-1.28 1.62 -3.32 3.58 -4.60 4.35 l-2.22 1.36 -3.84 0 -3.84 0 -1.02 1.28 -1.11 1.36 1.62 1.19 1.62 1.19 -1.70 0.09 -1.79 0 -2.73 -4.52z"/>
  <path d="M951.22 330.94 c0.09 -0.34 -0.09 -1.36 -0.43 -2.13 l-0.68 -1.53 -0.77 0.43 c-0.34 0.26 0.60 -2.30 2.22 -5.71 1.53 -3.41 3.07 -7.59 3.41 -9.38 l0.60 -3.07 1.96 -1.88 1.96 -1.88 0.60 1.79 0.51 1.79 -1.36 4.94 c-0.77 2.64 -2.39 7.07 -3.58 9.80 l-2.22 4.86 -0.77 0 -0.77 0 0.51 0.77 0.43 0.85 -0.85 0.51 -0.85 0.51 0.09 -0.68z"/>
  <path d="M170.88 327.61 c-0.26 -1.88 -1.11 -5.71 -1.88 -8.69 l-1.28 -5.28 -2.90 -6.05 c-1.53 -3.24 -4.09 -7.67 -5.54 -9.80 l-2.64 -3.84 0.51 -0.51 0.43 -0.51 2.56 1.11 2.56 1.02 2.39 3.15 c1.28 1.70 2.56 3.24 2.98 3.49 0.34 0.26 1.62 2.64 2.81 5.37 l2.30 4.86 -0.09 8.69 -0.09 8.69 -0.77 0.77 -0.85 0.85 -0.51 -3.32z"/>
  <path d="M157.33 328.81 c-0.17 -0.60 -1.02 -3.58 -1.79 -6.65 -0.77 -3.07 -2.39 -7.50 -3.58 -9.97 l-2.05 -4.43 -3.32 -4.09 c-1.88 -2.22 -3.41 -4.52 -3.41 -5.11 l0 -1.11 1.70 0 1.79 0 3.66 3.66 3.66 3.66 2.22 4.69 2.22 4.69 0.94 5.97 c0.51 3.24 1.11 6.73 1.36 7.84 l0.34 1.88 -1.70 0 -1.79 0 -0.26 -1.02z"/>
  <path d="M334.60 306.22 l1.19 -2.39 0 -6.99 0 -7.07 1.19 0 c0.68 0 2.05 0.68 3.07 1.53 l1.88 1.53 -0.94 6.31 -1.02 6.31 -1.36 1.53 -1.36 1.53 -1.96 0 -1.96 0 1.28 -2.30z"/>
  <path d="M797.73 305.97 l-2.13 -0.51 1.96 -0.51 1.88 -0.51 0 -1.02 0 -1.02 -1.28 1.02 -1.28 1.11 0.43 -1.28 0.51 -1.19 -3.84 -16.53 c-2.13 -9.12 -3.92 -17.56 -4.09 -18.75 l-0.26 -2.13 1.28 0 1.28 0 1.11 3.41 c1.53 4.60 7.84 33.66 7.84 35.97 0 2.30 -0.68 2.73 -3.41 1.96z"/>
  <path d="M553.64 305.28 l-0.51 -0.85 1.79 -4.18 1.79 -4.09 0.43 -6.65 0.51 -6.65 1.36 0.26 1.36 0.26 0.26 5.97 0.26 5.97 -1.02 3.66 -1.02 3.58 -1.11 0 -1.11 0 -1.19 1.79 -1.28 1.70 -0.51 -0.77z"/>
  <path d="M756.56 297.44 c0.17 -1.19 2.47 -8.78 5.11 -16.88 l4.77 -14.74 1.45 -0.77 1.36 -0.77 1.02 0.68 1.02 0.60 -4.94 14.66 -4.86 14.66 -1.45 0 -1.53 0 0 1.28 0 1.28 -0.77 0 c-0.43 0 -0.94 0.51 -1.19 1.11 -0.17 0.51 -0.17 0.09 0 -1.11z"/>
  <path d="M408.49 285.77 c-0.09 -2.30 -0.17 -4.77 -0.26 -5.63 l-0.09 -1.53 3.49 -7.24 3.49 -7.24 0.68 0.43 0.68 0.43 -0.17 1.96 -0.17 1.96 0.60 0.43 0.60 0.43 -3.92 9.97 c-2.13 5.54 -4.09 10.06 -4.35 10.06 -0.26 0 -0.51 -1.79 -0.60 -4.01z"/>
  <path d="M131.25 252.95 c0 -3.49 3.32 -15.85 6.31 -23.52 3.84 -10.06 7.59 -17.30 12.61 -24.55 l4.09 -6.05 6.31 -6.05 6.31 -6.14 5.37 -2.56 5.45 -2.56 4.60 0 4.60 0 -8.44 8.01 -8.52 8.01 -3.58 4.69 c-1.96 2.47 -5.45 7.76 -7.76 11.59 l-4.18 6.90 -4.09 9.29 -4.01 9.29 -1.53 0.43 -1.53 0.43 -2.22 7.33 -2.22 7.33 -3.84 0 -3.75 0 0 -1.88z"/>
  <path d="M860.03 234.38 l-6.31 -0.43 -0.34 -1.02 -0.34 -1.02 3.66 -0.43 c2.05 -0.26 9.80 -0.60 17.30 -0.85 l13.72 -0.43 1.88 0.51 1.88 0.43 0 1.19 0 1.11 -2.73 0.43 c-4.35 0.68 -21.73 1.02 -28.72 0.51z"/>
  <path d="M288.07 145.57 c-0.60 -2.05 -2.13 -7.07 -3.49 -11.16 -1.36 -4.18 -2.47 -7.67 -2.47 -7.93 0 -0.77 3.92 -0.26 5.88 0.77 l2.05 1.02 3.24 8.95 c1.79 4.94 3.32 9.38 3.32 9.89 l0 1.02 -1.36 0.51 c-0.77 0.26 -2.47 0.51 -3.75 0.51 l-2.47 0 -0.94 -3.58z"/>
  <path d="M280.14 116.93 l-1.53 -0.68 -2.81 -6.48 -2.90 -6.56 0.51 -0.51 c0.26 -0.26 1.28 -0.43 2.30 -0.43 l1.88 0 1.70 1.96 1.79 1.88 2.22 5.28 c1.19 2.90 2.22 5.54 2.22 5.80 0 0.60 -3.49 0.43 -5.37 -0.26z"/>
 </g>
</svg>