<svg xmlns="http://www.w3.org/2000/svg" width="16" height="16" viewBox="0 0 24 24">
  <path fill="#333" d="M5.267 2.799a1 1 0 0 1-.03.246 3 3 0 0 0-.044.382c-.009.158-.023.349-.032.431-.02.2-.018 2.298.003 2.553.023.296.09.472.232.613.096.097.742.598 1.003.78.035.024.22.159.41.297.194.138.778.56 1.303.936.526.375 1.027.739 1.118.804l.437.31c.28.2 1.256.904 1.306.945.018.015.109.088.208.165.558.43.804.672.804.783 0 .123-.642.663-1.51 1.276a3 3 0 0 0-.191.138c-.024.02-.197.147-.385.279a366 366 0 0 0-3.802 2.74c-.786.581-.854.657-.919 1.01-.064.36-.04 2.755.036 3.315.017.12.035.29.044.373.009.085.02.155.026.155.009 0 .044-.02.08-.044s.125-.062.199-.085c.07-.02.214-.094.32-.161.105-.065.228-.141.278-.168.17-.096 1.127-.733 1.682-1.123.313-.22.598-.42.633-.443s.235-.165.443-.308c.212-.147.402-.28.432-.294.026-.017.105-.07.176-.12.187-.135 1.522-1.062 2.12-1.479l2.055-1.429c.372-.258 1.156-.804 1.745-1.211 2.095-1.453 2.829-1.987 2.993-2.183.041-.047.12-.132.176-.188l.103-.103-.1-.076a2 2 0 0 1-.179-.15c-.123-.114-.308-.26-.725-.575-.39-.293-.451-.337-.874-.63-.129-.089-.352-.247-.499-.35a44 44 0 0 0-.63-.437c-.203-.138-.379-.261-.397-.273a34 34 0 0 0-.839-.587c-.152-.105-.334-.234-.408-.284l-.671-.467-.69-.478c-.305-.214-.49-.343-.986-.686-.281-.194-.63-.438-.78-.543s-.396-.276-.546-.379l-.933-.648a367 367 0 0 0-2.62-1.816c-.252-.17-.458-.297-.475-.297a.7.7 0 0 1-.141-.085c-.068-.05-.311-.2-.54-.334l-.42-.25z"/>
</svg>
