<svg role="img" viewBox="0 0 24 24" xmlns="http://www.w3.org/2000/svg"><title>Operator</title><path d="M16.34823 2.86424c.1066.08648.1951.18905.2675.30771 2.93636-.14078 4.53527 2.45367 2.92027 5.02802-.1066.8608-.07844 1.50237-.50683 2.31087-.12975.3647.09037.70493.3141 1.05074.1612.24917.32428.50123.35966.7674.01027.36571.00816.6618.00638.912-.00764 1.07207-.00928 1.30172.9952 2.55732 1.10013 1.8664-2.74329 4.40454-3.18978 2.53412.12703-.90208.86223-.93205 1.52376-.95902.67914-.02769 1.28063-.0522 1.06668-1.01397-.17498-.45453-.4666-.81052-.87689-1.06795-1.41388.39822-1.93478 3.81324-3.47335 4.47895-.2591.07319-.46924.10196-.64377.12586-.48253.06607-.69283.09487-.9129.92198-.15889.7723-.28157 1.5265-.3238 2.32898-.09252.2876-.18705.5732-.28359.85275-.29766-.04626-.58727-.13676-.86884-.26749-1.42393-.99555-2.80764-2.62865-3.96811-3.92386-.0724-.02012-.13877-.00604-.1971.03821-2.73926 3.90576-8.4712-4.6137-3.49749-5.77015.09654-.03218.15487-.09855.179-.1971-.08447-.73208-.19509-1.46013-.32984-2.18819-.20313-2.56027.30973-4.27582 1.89255-6.27697.0222-.19548-.00736-.41416-.03747-.637-.05447-.40302-.11077-.81958.134-1.13689 1.76987-2.2807 4.53528-4.09481 7.536-3.53972 1.30527.0905 1.48225 1.82416 1.91466 2.7634m1.61902 10.59503c.57119-.41632-.53497-1.68137-.79844-1.16248.32782.63957-.45252.95331-.85678.42034-.09855.20716-.19307.41431-.28157.62147-.38213-.16492-.4485-1.10818 0-1.28718.07899.04994.0879.14003.09572.21923.00952.09625.01745.17641.14764.14883.3218-.64761.68985-.68985 1.34952-.81655.05431.01041.10214.0207.14467.02986.30238.06508.3369.0725.52908-.34361-.05982-.68423-.5398-.47874-.95604-.30052-.25546.10937-.48692.20847-.58253.08532-.03419-.54705 1.0418-.88493 1.4722-.7361.0342-.02615.0704-.0523.10459-.07844.0362-.52895-.03822-1.0418-.22325-1.54058-.4986-.56667-.92538-.45198-1.45328-.3101-.18968.05098-.39242.10547-.61625.13311-.52621.03266-1.50935-.28101-2.42034-.57166-.6036-.19258-1.17552-.37505-1.56185-.43998-.71845-.08708-.87718.5522-1.03176 1.17477-.0739.29762-.14684.59143-.27954.80024-.11757.24217-.30586.44837-.49234.65258-.34625.37917-.68622.75148-.5555 1.33449.58727 1.63109.45654 2.73122-.33788 4.22957.12469 1.1323.24536 2.2807-.05833 3.40899-.07641 1.00333 1.96968 2.77636 3.18179 3.8267.2554.22131.47377.41054.62743.5537.05833.05431.11665.05632.17498.00202.01712-.11585.04779-.2904.08446-.49911.14862-.84575.39582-2.25256.23934-2.5881-1.44002-1.03375-2.54618-1.73566-3.55179-3.27222-.09251-.15084-.10659-.3037-.04223-.4646.25944.30772.53096.6094.81253.90505 1.06594.87286 2.26662 1.47823 3.60408 1.8121 1.42162.40023 2.06356-.92876 2.65345-2.15002.23713-.49093.46584-.96444.73342-1.30121.09855-.179.17095-.36604.21922-.5571-.0362-.01207-.0724-.02615-.1066-.04023-.3781.51084-.98146-.15285-1.10213-.54906-.12504-.22753-.22083-.1067-.3225.02156-.09785.12343-.20115.25373-.3412.08704.11263-.27955.20514-.5571.27553-.83666.1066.08648.22325.11464.35196.08246.13475-.1971.29364-.37207.47465-.52492.20916-.14883.44045-.20917.69587-.179M11.0628 5.37422c.03419.1609.12067.19308.25743.09654.539-.83465 1.5426-1.0056 2.2425-.25341.18703.28559.33989.58526.46056.897.06034-.20917.09453-.42638.10458-.64962.11593-.16879.18128-.04275.2426.07551.01102.02125.0219.04225.03294.06125.05832.24738.12871.49073.20514.72604.10056-.2353.18302-.47665.24939-.72202.07844.01609.13274.06235.16492.13475.04022.27956.11866.54303.23732.7884.05632-.16291.1247-.31778.20313-.4666.14883.22324.26548.4666.34794.73006.4168.29961.62895-.03794.79251-.29818.10873-.173.196-.31184.30762-.20663.01207.12268-.002.24134-.04223.358-.0543.28156-.15688.54302-.30973.78235.13997.12142.31669-.07247.43179-.19874.02217-.02433.04205-.04615.05895-.06271.24536-.30772.44648-.63957.59732-.99555.07643.179.1428.36.20314.54302.31575-.2876.23732-.74615.3781-1.10415.08246.11464.17297.22325.27152.3238.0543-.18301.1086-.37207.1629-.56514.09855.00804.17096.05832.21721.14883.18101.60738.15487 1.2047-.07642 1.79198-.00604.07442.02011.13073.07642.17095 1.52047-1.72561-.24335-3.79112-2.22841-3.6805-.11062.04223-.11665.09855-.02213.17095.31174.07441.61342.17296.90907.29364.08447.08245.10458.17296.06034.27553-.16693-.06235-.33789-.11464-.51085-.15687.04022.22927.11263.45855.2152.68783q.03619.1267-.06637.18704c-.1609-.181-.34794-.3238-.56314-.4304-.18704.28157-.45252.42236-.79443.42236-.67777-.31174-1.36963-.59934-2.07355-.86683-.99354-.39018-2.3853-.13878-2.74328.99152m-3.68252-.58124c.06838.11062.09251.22727.07039.35196.14078.05833.28961.07643.44246.0523q1.22483-.55812 2.55222-.78438c.12347-.06254.23958-.12215.34962-.17864 1.25932-.64652 1.72327-.88471 3.32687-.4408 1.10013-.11062 2.21233-.4465 1.30125-1.62707q-.1448-.11464-.32582-.0724c-.19106.35397-.44246.65967-.7542.91912-.68986.41998-1.09444-.06408-1.49058-.53805-.10278-.12297-.20498-.24526-.31146-.3509-1.57075-.10459-4.13303 1.4541-5.16075 2.66886m5.55897 11.04756c.76024-.02816 1.51846-.08648 2.27065-.17297.44448.06838.88895.0885 1.33745.06235.14481.01006.2514.07441.31777.1971a35 35 0 0 1-.65364 1.42796c-1.19465 1.18862-3.01077-.36001-3.27223-1.51444M7.31792 4.1333c1.1504-1.04583 2.46172-1.82417 3.9299-2.33904.56136-.09158.97919-.25699 1.34752-.4028.75599-.29928 1.30349-.51602 2.45567.15744.16894.02011.24134-.0543.2152-.22526-1.27712-2.514-7.52996.91912-7.9483 2.80966m3.2863 9.86295c.54706-1.44203 4.1089-.32984 2.46575 1.3274-.06235.39822-.03017.12067-.3238.40023-.04827.14681-.1428.2353-.2876.26548-.01409-.1448-.00403-.29163.03217-.44448-.03218-.02615-.06436-.0523-.09453-.07844-1.03778.04425-1.6351-.44648-1.79198-1.47019m-4.05056-2.46373c-.00201.09252-.00201.18504-.00402.27755.06235-.08447.14682-.13475.24939-.15285.54907-.0874.67908.11586.88654.44018.04559.07127.09492.14839.15325.22955.04827.26548.11464.52492.20112.77632.0124.25374-.05739.43412-.12926.61987-.0563.14552-.11389.29433-.1342.48429-.21242.37494-.47376.38808-.81286.40514-.08472.00426-.1743.00877-.26917.01922.58123 1.11823 1.77187.35397 1.9408-.61945.12873-.71599.06236-1.40985-.19709-2.08562-.22324-.3399-.46861-.65766-.74213-.95331-.19308-.40224-.2514-.8246-.17096-1.26505-.07039-.23531-.32984-.44247-.4505-.10458-.07643.48872-.15487.97744-.2333 1.46617.0059.11017-.09598.18715-.18538.2547-.09337.07055-.17313.13081-.10223.20787m.14079 3.09927c-.03821-.39734.02197-.37695.15755-.33101.07854.0266.18237.06179.30703.02933.28962-.20715.48873-.48068.59733-.82258.0362-.5933-.1428-1.11019-.54101-1.55265-.2003-.16206-.42177-.0128-.60464.11046-.18252.12302-.3266.22013-.3728-.0441a4 4 0 0 0-.07442-.0181c-.2494.38415-.01408 2.44362.53096 2.62865m.47464-5.86266c.1247.18905.27755.21318.45654.07441.57923-1.53857 1.13633-2.72518 2.41546-3.80118-.35397-.23129-1.10214.31978-1.39376.54705-.95734 1.12024-1.23086 1.80204-1.47824 3.17972m4.12096 3.4271c.14078-.17096.2675-.34996.3761-.53499.22123-.00402.41632-.07441.58928-.20916q.38615-.07542.77834-.09654c.22927.04626 1.32337.73007.99554.99957-.08592-.0383-.17125-.09626-.256-.15383-.26242-.17824-.51937-.35277-.77172.07137.07843.08246.15888.16492.23732.24738-.11263.27352-.31777.38212-.61744.3238-.4304-.26146-.98951-.24738-1.33142-.6476m-3.36676-1.3797c.13274.13878.27554.2695.4304.39018.2876.38615.47464.81454.56314 1.28717.09654.96538.10458 1.8483-.44046 2.68094.31174.29363.83063-.5913.89901-.83264.28962-1.08605.15084-2.11177-.41833-3.07916-.24939-.37207-.59531-.5209-1.03376-.44649m-2.37523 8.07902c.34391.3761.77029.51085 1.27912.40023.26347.01609 1.29321-.54101 1.01164-.84873q-.40123.2323-.85074.34995c-.31174-.03017-.60537-.12268-.8789-.27755.26347-.0543.52694-.1267.7884-.21318.539-.40023.7361-.9312.5933-1.59288 0-.10257-.03218-.19106-.10257-.26347-.08246.2514-.13475.51487-.15687.7884-.13274.32983-.35196.58123-.66169.7542a8.27 8.27 0 0 1-.69789.11464c-.18857.41041-.16988.43379-.0069.63772.04387.0549.0982.12288.16176.21503-.1629.0362-.3238.01408-.47866-.06436M3.84054 16.8582q.13274-.01207.16895-.1448c.00603-.17498.06234-.32784.16894-.45655.0724.179.1428.36201.21318.54705q.1599-.19911.36805-.33789c.1247.13676.19911.29967.22727.48872-.00603-.38615.09252-.74213.29565-1.06996.02614-.11262-.01408-.18704-.12067-.22726-.14883.03017-.28962.02815-.42437-.00604-.03017-.21922.02615-.41632.16492-.59531-.27554-.27152-.7723.3942-.88292.61945-.15285.3781-.21118.7723-.179 1.18259m7.40929-6.07183c.91107-1.0418 2.14193-1.07198 3.18575-.19911.16894.2534.10458.38816-.19308.40827-.1706-.06305-.33674-.1331-.49963-.2018-.8088-.34105-1.53765-.6484-2.33617.10325-.07844.00201-.13073-.0362-.15687-.11061M5.83566 9.23574c.20992-.0038.23815-.20409.26225-.37501.02692-.191.04868-.34532.31295-.1479.36202-.39823.6798-1.53858.8427-2.0816-.01609-.23532-.11263-.2675-.29162-.09654-.86683.96739-.93924 1.53656-1.12628 2.70105m12.86166 3.78308a8.337 8.337 0 0 1 .0905 1.51846c-.00804.08447.02012.15084.08448.1971.58727-.66974.6275-2.17613.15084-2.94642-.15486-.18705-.24537-.15084-.27151.10659-.00202.13073.02212.25542.07441.3761-.09654.23933-.13877.48872-.12872.74817M9.06164 8.19796c.09251.25743.27955.39821.56112.41833.22123.02212.68783.06838.83666-.13274-.058-.07016-.13315-.1303-.2072-.18956-.19552-.15648-.3833-.30677-.22722-.61895-.13723-.15357-.2485-.19212-.2492-.23257-.00051-.03012.06033-.0613.2175-.14182.02148-.011.04475-.02293.06992-.0359-.16291-.20715-.37007-.35799-.61744-.45252.002.20917-.03218.41833-.1066.62951.00805.22123.02615.44046.0523.65767-.09453.0724-.20314.10458-.32984.09855m4.6861 8.0428c.18705.4847 2.26865 1.01164 2.36317.11062-.17296-.20514-2.0112-.12871-2.36317-.11061M8.76196 9.02658c.18302.37207.8246.57923 1.11019.26146-.17296-.0905-.9332-.31375-1.11019-.26146m-3.411 7.52593c.181.14883.38213.20515.60738.17096.3399-.26347.2856-.4123-.15888-.45051-.16492.0724-.31375.16491-.4485.27955m8.7749.65164c.17698.04826.35195.10659.5209.17698.27754-.00201.3238-.10458.13877-.30972-.116-.00069-.23383-.05275-.33735-.09849-.20162-.08909-.3489-.15416-.32233.23123m4.07268.77632c.2313.00201.45655-.03821.67778-.11866.31978-.09855.31576-.179-.01207-.24537-.02112.00045-.0428.00072-.06482.001-.27357.00342-.60089.0075-.60089.36303M11.71441 6.3597c-.00603.24336.09654.42236.3037.53498.13614-.06605.07624-.19443.0189-.31733-.02821-.06048-.05581-.11963-.05913-.16938-.05028-.20313-.25944-.30168-.26347-.04827m8.63411 9.57736c-.01609.179.03822.33185.1609.45655.25542-.10056-.0181-.39822-.1609-.45655m-.12872-.29564c-.16491.0905-.0181.37006.12872.29564.02414-.1267-.0181-.22726-.12872-.29564m-3.12138-.07442c.08044.00604.33184.08648.13877.19107-.09252-.03017-.13877-.09252-.13877-.19107"/></svg>